<?xml version="1.0" encoding="UTF-8"?><svg xmlns="http://www.w3.org/2000/svg" viewBox="0 0 353.2 325.2"><defs><style>.d{fill:#fcb805;}.e{fill:#f9fefd;}.f{fill:#233947;}</style></defs><g id="a"/><g id="b"><g id="c"><g><path class="d" d="M342.67,84.62c11.55,25.31,12.95,51.83,7.31,78.47-7.46,35.24-24.39,65.91-48.56,92.66-21.72,24.04-47.81,41.5-77.88,53.29-24.06,9.43-48.87,15.77-74.76,16.13-22,.31-43.77-1.89-64.93-9-18.76-6.3-36.69-14.09-52.71-25.79-10.5-7.67-20.01-16.48-28.2-26.63-2.42-3-3.46-6.25-2.71-10.21,1.2-6.37,2.26-12.78,2.92-19.22,.51-4.94,3.24-7.29,7.63-8.66,16.44-5.12,33.27-8.23,50.36-10.01,22.67-2.37,45.38-4.44,67.6-9.87,36.48-8.91,69.23-25.19,98.41-48.91,24.22-19.7,44.68-42.64,61.41-68.94,4.65-7.32,8.44-15.12,12.27-22.9,.88-1.78,2.02-3.42,3.04-5.13,14.94,4.38,28.69,10.57,37.38,24.51,.17,.27,.93,.16,1.42,.22Zm-38.21,74.14c3.99-10.62,8.86-18.75,10.23-28.13,.56-3.87-.02-7.55-4.66-8.6-4.41-1-6.36,1.97-7.64,5.48-9.12,24.99-22.26,47.29-40.78,66.76-29.44,30.93-65.11,50.23-106.2,60.14-28.09,6.77-56.42,6.34-84.79,1.87-7.01-1.1-12.03,.61-12.8,4.57-.79,4.05,2.52,7,9.71,8.75,11.35,2.76,22.89,4.53,34.52,5.19,34.96,1.98,68.21-4.82,100.23-19.04,46.35-20.58,80.16-53.88,102.19-96.99Z"/><path class="f" d="M342.67,84.62c-.49-.07-1.25,.04-1.42-.22-8.69-13.94-22.44-20.12-37.38-24.51,6.29-16.31,7.7-33.2,6.29-50.51-.7-8.64,3.91-11.49,11.89-7.81,7.71,3.55,15.39,7.19,23.04,10.87,5.04,2.42,6.49,6.02,4.35,10.97-7.94,18.4-10.19,37.41-6.32,57.11,.27,1.39,1.19,2.9-.45,4.1Z"/><path class="e" d="M304.46,158.76c-22.02,43.11-55.83,76.41-102.19,96.99-32.02,14.21-65.27,21.02-100.23,19.04-11.63-.66-23.17-2.43-34.52-5.19-7.19-1.75-10.5-4.69-9.71-8.75,.77-3.96,5.79-5.68,12.8-4.57,28.37,4.47,56.7,4.91,84.79-1.87,41.1-9.91,76.77-29.21,106.2-60.14,18.52-19.46,31.67-41.77,40.78-66.76,1.28-3.5,3.22-6.48,7.64-5.48,4.63,1.05,5.22,4.73,4.66,8.6-1.37,9.38-6.24,17.51-10.23,28.13Z"/></g></g></g></svg>