<?xml version="1.0" encoding="utf-8"?>
<!-- Generator: Adobe Illustrator 27.5.0, SVG Export Plug-In . SVG Version: 6.00 Build 0)  -->
<svg version="1.1" xmlns="http://www.w3.org/2000/svg" xmlns:xlink="http://www.w3.org/1999/xlink" x="0px" y="0px"
	 viewBox="0 0 500 500" style="enable-background:new 0 0 500 500;" xml:space="preserve">
<g id="BACKGROUND">
	
		<ellipse transform="matrix(0.7071 -0.7071 0.7071 0.7071 -84.2359 235.732)" style="fill:#CCE7FF;" cx="242.436" cy="219.548" rx="151.831" ry="151.831"/>
</g>
<g id="OBJECTS">
	
		<text transform="matrix(1 0 0 1 148.0422 440.0593)" style="fill:#404160; font-family:'Riffic-Bold'; font-size:51.1704px; letter-spacing:2;">Destination</text>
	
		<text transform="matrix(1 0 0 1 189.9213 462.1759)" style="fill:#404160; font-family:'Metropolis-Medium'; font-size:15.3148px;">BANANA</text>
	<g>
		<path style="fill:#404160;" d="M184.433,143.319c0,0,49.467,68.343,53.169,147.469c1.45,31.004-13.616,49.412-20.209,68.399
			c-2.561,7.377-1.456,16.149-8.847,25.849c-3.332,4.374,3.581,7.003,6.019,7.768c0.517,0.162,1.047,0.239,1.589,0.23
			c10.301-0.164,118.944-5.245,114.085-146.569c-4.618-134.323-132.649-127.28-132.649-127.28l-17.063-6.457l-10.5,20.683
			L184.433,143.319z"/>
		<path style="fill:#FFFFFF;" d="M293.491,356.747c-31.314,32.407-74.2,33.462-77.749,33.49c-0.131-0.037-0.262-0.075-0.383-0.112
			c-2.522-0.775-4.772-2.148-4.903-2.82c0,0,0.019-0.187,0.317-0.57c5.445-7.135,6.612-13.747,7.649-19.575
			c0.448-2.522,0.868-4.903,1.616-7.051c1.793-5.174,4.259-10.339,6.864-15.811c6.836-14.345,14.579-30.614,13.495-53.645
			c-3.698-79.047-52.654-150.287-52.654-150.287l-14.112-7.873l3.269-6.435l4.418-8.704l0.57-1.121l15.017,5.688l0.243,0.093
			l0.598-0.037c0.009,0,0.523-0.028,1.476-0.037c0.448-0.019,0.981-0.019,1.616-0.019c20.425,0,122.521,6.015,126.602,124.641
			C329.092,294.651,317.67,331.718,293.491,356.747z"/>
		<path style="fill:#FFD342;" d="M289.97,356.747c-27.345,28.298-63.525,32.697-74.611,33.378c-0.215-0.065-0.43-0.14-0.644-0.215
			c-2.251-0.794-4.137-1.989-4.259-2.606c0,0,0.019-0.187,0.317-0.57c5.445-7.135,6.612-13.747,7.649-19.575
			c0.448-2.522,0.868-4.903,1.616-7.051c1.793-5.174,4.259-10.339,6.864-15.811c6.836-14.345,14.579-30.614,13.495-53.645
			c-3.698-79.047-52.654-150.287-52.654-150.287l-14.112-7.873l3.269-6.435l1.018-2.008l3.4-6.696l15.036,5.781
			c0,0,1.55-0.084,3.269-0.093h0.411c0.57,0,1.205,0.009,1.905,0.019c24.151,0.402,118.02,8.19,121.979,123.502
			C325.571,294.651,314.149,331.718,289.97,356.747z"/>
		<path style="fill:#F0C024;" d="M214.714,389.911c-2.251-0.794-4.137-1.989-4.259-2.606c0,0,0.019-0.187,0.317-0.57
			c5.445-7.135,6.612-13.747,7.649-19.575c0.448-2.522,0.868-4.903,1.616-7.051c1.793-5.174,4.259-10.339,6.864-15.811
			c6.836-14.345,14.579-30.614,13.495-53.645c-3.698-79.047-52.16-150.006-52.654-150.698v0.411l-14.112-7.873l3.269-6.435
			l1.018-2.008c9.47,3.698,17.754,6.93,17.754,6.93s18.109,2.269,32.276,27.784C241.453,183.066,303.176,273.582,214.714,389.911z"
			/>
		<path style="fill:#F0C024;" d="M313.556,191.072c0,0-10.285,6.612-16.162,2.938c-5.877-3.673-11.019-19.1-11.019-19.1l-5.51,1.469
			c0,0,4.04,22.039,0.735,25.712c-3.306,3.673-32.323,11.754-35.629,10.652c-3.306-1.102-12.489-18.733-12.489-18.733
			s37.833-29.017,59.504-27.915S313.556,191.072,313.556,191.072z"/>
		<path style="fill:#404160;" d="M263.236,216.208c0,0,8.397,34.488,25.839,9.268L263.236,216.208z"/>
		<path style="fill:#404160;" d="M318.398,186.297c-2.584,0.76-6.832,2.037-12.229,3.738c-3.865,1.218-8.093-0.072-10.6-3.256
			c-3.711-4.712-7.371-15.673-7.371-15.673l-9.301,2.953c0,0,3.48,8.989,4.666,16.581c0.243,1.541-0.084,3.005-0.752,4.361
			c-1.089,2.213-3.107,3.821-5.431,4.645c-6.709,2.38-13.725,4.982-20.704,7.742c-2.791,1.104-5.894,1.328-8.747,0.398
			c-2.658-0.866-5.402-2.75-6.747-6.715c-3.063-9.05-3.717-10.021-3.717-10.021l-17.996,19.252
			c-1.933,2.067-5.384,1.195-6.097-1.544c-0.008-0.029-0.015-0.059-0.023-0.089c-0.271-1.051-0.053-2.176,0.595-3.048l16.647-22.4
			c1.85-2.489,4.21-4.551,6.933-6.035c10.417-5.676,38.442-18.941,68.892-16.424c1.532,0.131,2.905,0.981,3.736,2.27
			c2.858,4.417,7.64,14.821,9.853,19.762C320.649,184.205,319.883,185.858,318.398,186.297z"/>
		<path style="fill:#FFFFFF;" d="M240.25,185.319c0,0.318,3.806,7.74,6.559,13.069c1.589,3.075,5.21,4.491,8.465,3.314l16.368-5.918
			l-20.181,0.125L240.25,185.319z"/>
		<path style="fill:#FFFFFF;" d="M293.243,174.403c-0.009,0.227,2.483,5.628,4.288,9.507c1.041,2.238,3.58,3.354,5.935,2.612
			l11.839-3.733l-14.385-0.509L293.243,174.403z"/>
		<path style="fill:#53557D;" d="M273.793,173.471c0,0,5.538,13.258,5.035,18.461C278.828,191.933,273.122,182.367,273.793,173.471z
			"/>
		<path style="fill:#53557D;" d="M308.753,165.194c0,0,7.48,12.268,7.769,17.487C316.522,182.681,309.435,174.088,308.753,165.194z"
			/>
		<path style="fill:#53557D;" d="M238.809,178.18c-0.48,0.2,37.313-17.917,65.257-15.287
			C304.066,162.893,258.534,169.961,238.809,178.18z"/>
		<path style="fill:#FFFFFF;" d="M266.942,219.137l18.069,6.834C285.011,225.971,270.996,231.762,266.942,219.137z"/>
		<path style="fill:none;stroke:#404160;stroke-width:10;stroke-miterlimit:10;" d="M224.735,238.054
			c0,0-78.252,43.936-66.975,56.908c10.159,11.686,35.417-16.353,53.96-34.723"/>
		<path style="fill:#404160;" d="M196.653,313.951c-10.334,0.69-21.677-9.978-26.971-25.363
			c-6.064-17.627-2.141-34.419,8.931-38.229c1.152-0.396,2.36-0.639,3.59-0.721c10.334-0.689,21.676,9.978,26.97,25.364
			c6.064,17.626,2.142,34.418-8.93,38.228C199.09,313.626,197.884,313.869,196.653,313.951z"/>
		<path style="fill:#FFFFFF;" d="M206.524,275.913c5.469,15.898-0.473,26.427-9.138,31.388c-7.602,4.352-19.584-3.727-25.053-19.625
			c-5.469-15.898-2.249-31.419,7.193-34.667C188.967,249.761,201.055,260.016,206.524,275.913z"/>
		
			<ellipse transform="matrix(0.9456 -0.3253 0.3253 0.9456 -80.216 78.5937)" style="fill:#EDF7FF;" cx="194.91" cy="279.166" rx="18.079" ry="30.441"/>
		<path style="fill:#404160;" d="M220.084,314.293c-6.083,0.406-11.762,0.032-14.132-0.933
			c-18.071-7.337-29.597-34.245-31.493-72.345c-1.026-20.604-18.363-38.306-22.04-41.839c-0.531-0.51-0.996-1.095-1.292-1.769
			c-2.326-5.295-0.457-15.562,8.014-19.97c0.596-0.319,1.256-0.641,1.99-0.965c1.529-0.68,3.774-1.162,6.157-1.321
			c4.175-0.279,14.848,0.101,23.777,9.615c14.072,14.993,15.571,33.376,14.623,42.69c1.619-0.646,2.275-0.7,4.423-1.39
			c4.902-1.583,9.386-2.519,13.324-2.782c7.61-0.508,13.116,1.49,16.362,5.938c4.821,6.606,4.218,12.948,2.941,16.999
			c4.037,0.598,10.016,3.177,12.059,12.881c2.378,11.327-2.72,19.037-6.474,22.977c0.75,0.602,1.481,1.376,2.107,2.372
			c2.22,3.534,2.227,8.475,0.021,14.685c-3.193,8.985-14.044,12.692-22.586,14.219C225.364,313.8,222.746,314.116,220.084,314.293z"
			/>
		<path style="fill:#EDF7FF;" d="M247.811,298.197c-2.545,7.162-11.503,10.801-20.438,12.399c-0.324,0.059-0.648,0.109-0.963,0.158
			c-8.64,1.25-17.121-1.291-19.469-2.248c-15.326-6.222-27.363-27.696-27.972-67.819c-0.373-24.395-17.003-39.778-21.864-43.759
			c-0.832-0.684-3.493-11.392,4.051-15.321c0.578-0.31,1.186-0.603,1.831-0.89c0.436-0.197,0.984-0.403,1.635-0.605
			c4.929-1.592,15.523-2.889,24.4,6.571c15.709,16.736,13.06,39.18,12.102,44.747c-0.135,0.777-0.236,1.233-0.242,1.28
			c0.263-0.121,4.497-2.181,10.087-3.977c8.915-2.879,21.281-5.098,26.566,2.14c6.851,9.39,0.85,18.205,0.85,18.205
			s10.875-2.682,13.671,10.601c3.183,15.157-8.791,23.125-8.791,23.125S252.909,283.845,247.811,298.197z"/>
		<path style="fill:#FFFFFF;" d="M240.008,300.206c-1.789,5.033-6.746,8.322-12.635,10.39c-0.324,0.059-0.648,0.109-0.963,0.158
			c-8.647,1.279-17.094-0.881-19.442-1.838c-15.326-6.222-29.01-27.548-29.618-67.671c-0.314-20.421-13.016-36.693-20.245-44.317
			c-0.005-0.006-0.011-0.011-0.016-0.017c-1.281-1.348-2.086-3.087-2.212-4.942c-0.226-3.329,0.869-7.544,6.279-10.362
			c0.578-0.31,1.186-0.603,1.831-0.89c0.436-0.197,0.984-0.403,1.635-0.605c5.153,0.639,11.286,2.916,16.597,8.58
			c17.855,19.026,11.988,45.42,11.86,46.027c0.2-0.088,3.473-1.683,8.045-3.289c2.909-1.018,6.34-2.052,9.845-2.697
			c7.293-1.376,14.919-1.136,18.772,4.148c6.851,9.39,0.84,18.205,0.84,18.205s10.885-2.682,13.671,10.601
			c3.192,15.156-8.79,23.125-8.79,23.125S245.106,285.853,240.008,300.206z"/>
		<path style="fill:#404160;" d="M240.009,235.201c0,0,4.168,9.668-8.251,14.261c-9.977,3.69-14.964,5.287-12.687,5.748
			c2.277,0.461,21.38-4.113,25.189-5.995c1.195-0.591-1.378-0.634-2.015-4.064C241.607,241.723,240.009,235.201,240.009,235.201z"/>
		<path style="fill:#404160;" d="M249.576,275.733c-5.844,5.953-15.884,5.944-20.513,7.745c-10.279,4,13.784-2.488,17.471,0.738
			C246.534,284.216,251.11,274.17,249.576,275.733z"/>
		<path style="fill:#404160;" d="M182.506,249.552c-1.317,10.738,2.456,33.81,14.665,50.717c0.563,0.779,1.945,0.102,1.509-0.776
			c-4.858-9.775-12.533-31.842-14.535-50.463C184.031,247.969,182.637,248.485,182.506,249.552z"/>
		<path style="fill:#FFFFFF;" d="M177.939,120.107l18.624,9.451c0,0,22.631-0.915,34.468,33.356c0,0-14.315-31.271-35.58-30.16
			l-17.533-8.704L177.939,120.107z"/>
		<path style="fill:#404160;" d="M172.456,124.954l22.993,8.706c0,0,15.849-5.804,37.503,34.378c0,0-9.152-34.824-37.279-37.056
			l-19.638-10.455L172.456,124.954z"/>
		<path style="fill:#404160;" d="M178.721,112.159c0,0-14.359,7.467-10.913,21.252l12.963,7.249c0,0-5.59-14.233,5.036-26.007
			L178.721,112.159z"/>
		<path style="fill:#FFFFFF;" d="M255.453,310.736c0,0-7.155,45.96-33.025,67.977C222.428,378.713,248.023,337.707,255.453,310.736z
			"/>
		<path style="fill:#404160;" d="M258.807,298.178c0,0-12.24,50.591-29.375,72.622c-17.136,22.031-13.69,19.438-13.69,19.438
			l-5.285-2.928C210.456,387.31,229.431,384.672,258.807,298.178z"/>
	</g>
	<path style="fill:#404160;" d="M215.301,378.577c0,0-3.708,7.416-0.927,6.357c2.781-1.059,5.032-1.324,5.032-1.324
		s-4.635,6.622,1.987,6.489c6.622-0.132-5.518,2.075-9.491,0.751C207.929,389.525,208.414,383.345,215.301,378.577z"/>
</g>
</svg>
