<?xml version="1.0" encoding="UTF-8"?><svg xmlns="http://www.w3.org/2000/svg" viewBox="0 0 1029.54 90.31"><defs><style>.d{fill:#fcb805;}.e{fill:#f9fefd;}.f{fill:#233947;}</style></defs><g id="a"/><g id="b"><g id="c"><g><g><path d="M121.67,70.27l11.59-39.1c.84-3.02,1.71-5.14,2.58-6.38,.55-.71,1.28-1.31,2.19-1.8v-.19h-.68c-.94,0-2.91,.54-5.89,1.61-3.28,1.14-5.54,1.7-6.77,1.7-.65,0-1.1-.11-1.34-.34-.24-.23-.37-.62-.37-1.17,0-1.3,.37-2.72,1.1-4.26,.73-1.54,1.68-2.93,2.85-4.16,1.17-1.23,2.37-2.11,3.6-2.63,2.82-1.1,6.65-1.96,11.49-2.58,4.84-.62,10.09-.92,15.78-.92,6.1,0,11.3,.96,15.58,2.87s7.54,4.75,9.76,8.52c2.22,3.77,3.33,8.31,3.33,13.63s-1.06,10.75-3.19,16.19c-2.13,5.44-4.94,9.99-8.45,13.66-8.21,8.7-19.18,13.05-32.92,13.05-4.41,0-8.45-.36-12.1-1.07-3.65-.71-6.06-1.59-7.23-2.63-.75-.58-1.12-1.44-1.12-2.58,0-.29,.06-.76,.19-1.41Zm32.9-48.45l-9.78,37c-.06,.23-.19,.83-.39,1.8-.58,2.56-1.25,4.54-2,5.94-.52,1.07-1.35,2.3-2.48,3.7,.94,.07,2,.1,3.17,.1,2.82,0,5.18-.19,7.06-.56s3.63-1.01,5.26-1.92c1.62-.91,3.15-2.08,4.58-3.51,2.69-2.76,4.76-5.96,6.21-9.59,1.44-3.63,2.17-7.58,2.17-11.83,0-3.89-.58-7.43-1.75-10.61-1.17-3.18-2.79-5.69-4.87-7.52-2.08-1.83-4.47-2.83-7.16-2.99Z"/><path d="M206.53,64.67c.36,1.95,1.62,2.92,3.8,2.92,2.43,0,5.6-1.43,9.49-4.29,2.27-1.66,3.8-2.48,4.58-2.48,.97,0,1.88,.26,2.73,.78,.84,.52,1.27,1.06,1.27,1.61,0,.58-.47,1.35-1.41,2.29-1.72,1.72-3.7,3.4-5.94,5.04-2.24,1.64-4.4,3-6.48,4.09s-4.16,1.95-6.23,2.58-3.93,.95-5.55,.95c-4.06,0-7.3-1.16-9.74-3.48-2.43-2.32-3.65-5.41-3.65-9.28,0-2.95,.64-6.29,1.92-10.01,1.28-3.72,3.01-7.2,5.19-10.44,2.56-3.8,5.71-6.96,9.45-9.5,4.61-3.05,9.02-4.58,13.24-4.58,3.05,0,5.45,.97,7.18,2.9,1.74,1.93,2.61,4.58,2.61,7.96,0,2.63-.69,5.37-2.07,8.23-1.38,2.86-3.42,5.6-6.11,8.23-2.21,2.21-4.37,3.93-6.5,5.16-2.13,1.23-3.99,1.85-5.58,1.85-.71,0-1.44-.18-2.19-.54Zm-.1-1.56c1.49-1.01,2.63-2.01,3.41-3.02,1.72-2.11,3.05-4.53,3.99-7.25,.75-1.79,1.33-3.78,1.75-5.99,.42-2.21,.63-4.27,.63-6.18,0-1.79-.37-2.68-1.12-2.68-1.04,0-2.63,2.29-4.77,6.87-1.27,2.76-2.3,5.51-3.09,8.25-.8,2.74-1.19,5.1-1.19,7.08,0,.68,.13,1.66,.39,2.92Z"/><path d="M246.7,80.35c1.91-.1,3.66-1.03,5.23-2.8s2.36-3.69,2.36-5.77c0-1.43-.47-2.56-1.41-3.41-1.01-1.01-3.26-2-6.77-2.97-5.16-1.49-8.52-3.17-10.08-5.01-1.46-1.49-2.19-3.28-2.19-5.36,0-3.73,1.35-7.46,4.07-11.2,2.71-3.73,6.18-6.79,10.4-9.18,4.22-2.39,8.47-3.58,12.76-3.58,2.08,0,4.02,.49,5.84,1.46,1.82,.97,3.26,2.26,4.33,3.87,1.07,1.61,1.61,3.35,1.61,5.23s-.58,3.77-1.75,5.75c-1.17,1.98-2.64,3.63-4.41,4.94-1.77,1.31-3.45,1.97-5.04,1.97-.91,0-1.7-.2-2.36-.58-.67-.39-1-.81-1-1.27s.13-1.12,.39-2c.71-2.79,1.07-5.23,1.07-7.3s-.62-3.98-1.85-5.79c-1.59,1.1-2.63,1.98-3.12,2.63-1.23,1.43-2.19,3.05-2.87,4.86-.75,1.85-1.12,3.6-1.12,5.25,0,1.17,.27,2.1,.81,2.8,.54,.7,1.41,1.29,2.63,1.78,1.22,.49,3.06,1.02,5.53,1.61,4.12,1.01,7.03,1.98,8.71,2.92,.39,.23,.99,.7,1.8,1.41,1.23,1.33,1.85,3.05,1.85,5.16,0,2.24-.7,4.51-2.09,6.79-1.4,2.29-3.55,4.65-6.48,7.09-3.12,2.63-6.22,4.51-9.3,5.65-3.08,1.14-6.49,1.71-10.23,1.71s-6.44-.71-8.5-2.14c-2.06-1.43-3.09-3.38-3.09-5.84,0-1.75,.68-3.53,2.04-5.33s3.06-3.27,5.09-4.41c2.03-1.14,4.02-1.7,5.96-1.7,1.46,0,2.19,.33,2.19,.97,0,.33-.21,.86-.63,1.61-1.27,2.27-1.9,4.37-1.9,6.28,0,1.36,.5,2.66,1.51,3.9Z"/><path d="M286.14,31.17l.19-.58c2.14-6.04,4-10.29,5.56-12.76,.75-1.17,1.79-2.21,3.12-3.12,2.5-1.59,4.86-2.39,7.07-2.39,1.3,0,2.29,.29,2.97,.88,.68,.58,1.02,1.43,1.02,2.54,0,.75-.49,2.27-1.47,4.57-1.67,3.83-2.91,7.42-3.72,10.76,.55,.07,1.09,.16,1.61,.29,1.95,.29,3.23,.62,3.85,1,.62,.37,.93,1.05,.93,2.02,0,1.72-.44,3.31-1.31,4.77-.88,1.46-2.03,2.53-3.46,3.22-1.07,.49-2.81,.81-5.21,.97-.42,1.27-.88,3-1.4,5.21-.29,1.95-.61,4.64-.96,8.09-.2,1.27-.29,2.45-.29,3.55,0,5.12,2.48,7.69,7.45,7.69h.44c.58,0,.88,.1,.88,.29,0,.52-.55,1.4-1.66,2.63-1.1,1.23-2.32,2.32-3.65,3.26-1.43,.97-2.99,1.75-4.68,2.34-1.69,.58-3.22,.88-4.58,.88-3.42,0-6.19-1.15-8.32-3.46-2.13-2.3-3.2-5.36-3.2-9.15,0-1.62,.28-3.75,.85-6.38,.57-2.63,1.45-6.15,2.65-10.57,.2-.78,.41-1.6,.63-2.46s.36-1.37,.39-1.53c-1.3-.03-2.22-.31-2.78-.83s-.83-1.36-.83-2.53c0-2.04,.79-3.98,2.36-5.79,1.57-1.82,3.42-2.95,5.53-3.41Z"/><path d="M318.37,78.74c-1.46-.1-2.79-.76-3.99-2-1.2-1.3-2.05-2.7-2.55-4.21-.5-1.51-.75-3.46-.75-5.87,0-5.36,1-11.4,2.99-18.14,2-6.74,4.26-11.61,6.79-14.63,1.01-1.27,2.4-1.9,4.19-1.9,1.88,0,3.4,.86,4.55,2.58,1.15,1.72,1.73,3.98,1.73,6.77,0,4.12-.59,8.95-1.78,14.48-1.19,5.53-2.85,11.29-5,17.26-.84,2.4-1.88,4.03-3.11,4.87-.84,.52-1.83,.78-2.97,.78h-.1Zm5.85-48.93c-3.05-.1-4.58-1.93-4.58-5.5,0-1.79,.45-3.85,1.34-6.21s1.91-4.1,3.04-5.23c.58-.62,1.18-1.05,1.78-1.31s1.37-.39,2.31-.39c1.62,0,2.82,.4,3.58,1.19,.76,.8,1.14,2.12,1.14,3.97,0,2.3-.4,4.49-1.19,6.55s-1.86,3.73-3.19,5.01c-1.33,1.28-2.7,1.92-4.09,1.92h-.15Z"/><path d="M357.02,52.58l2.93-3.42c2.97-3.29,5.32-5.74,7.05-7.35,1.73-1.61,3.29-2.77,4.67-3.49s2.78-1.07,4.21-1.07c2.3,0,3.92,.62,4.86,1.85s1.41,3.38,1.41,6.43c0,1.27-.13,3.13-.39,5.6-.39,3.28-.58,6.36-.58,9.25,0,3.25,.16,5.88,.49,7.89,.23,1.23,.57,2.47,1.02,3.7,.32,1.17,.49,1.96,.49,2.39,0,.52-.19,.93-.58,1.22-1.01,.88-2.34,1.64-3.99,2.29-1.66,.65-3.05,.97-4.19,.97-1.85,0-3.53-.63-5.04-1.9-1.51-1.27-2.68-3.02-3.51-5.26-.83-2.24-1.24-4.77-1.24-7.6,0-1.88,.19-4.11,.58-6.67l-.19-.19c-1.4,1.56-2.52,2.79-3.38,3.7-.86,.91-1.66,1.77-2.41,2.58-3.64,4.16-6.72,7.9-9.25,11.25-.97,1.3-1.87,2.43-2.68,3.41-1.2,1.2-2.56,1.8-4.09,1.8-2.08,0-3.77-.78-5.06-2.34-1.3-1.56-1.95-3.57-1.95-6.04,0-1.53,.18-3.39,.54-5.6,.36-2.21,.83-4.57,1.44-7.08,.6-2.51,1.31-5.1,2.14-7.77,.83-2.66,1.73-5.19,2.7-7.6,1.49-3.99,3.31-7.11,5.45-9.35,1.46-1.46,3.23-2.19,5.31-2.19,3.38,0,5.06,2.19,5.06,6.57,0,3.21-.67,7.82-2.01,13.81l.19,.2Z"/><path d="M420.33,64.08v.2l-.2-.2c-3.02,3.54-5.79,6.44-8.3,8.69-2.52,2.26-4.84,3.95-6.96,5.09-2.13,1.14-4.08,1.7-5.87,1.7-3.64,0-6.64-1.22-9.01-3.65-2.37-2.43-3.55-5.52-3.55-9.25,0-2.3,.58-5.03,1.75-8.18,1.17-3.15,2.78-6.23,4.82-9.25,3.41-4.93,7.69-9.12,12.85-12.56,5.32-3.54,10.45-5.31,15.39-5.31,4.16,0,7.57,.85,10.25,2.56,2.68,1.7,4.02,3.85,4.02,6.45,0,1.92-.67,3.94-2,6.09,1.75,0,2.86,.19,3.31,.56,.45,.37,.68,1.24,.68,2.6,0-.13-.08,.54-.24,2-.2,3.21-.29,6.22-.29,9.01,0,1.46,.02,2.56,.05,3.31s.1,1.61,.2,2.58,.19,1.75,.29,2.34c.26,1.53,.68,3.04,1.27,4.53-1.95,1.92-3.81,3.32-5.6,4.21-1.79,.89-3.6,1.34-5.45,1.34-5,0-7.5-4.19-7.5-12.56,0-.97,.03-1.74,.1-2.29Zm2.92-11.15l-.92,.29c-2.34,.65-4.03,.97-5.06,.97-1.27,0-1.9-.32-1.9-.97,0-.23,.26-.83,.78-1.8,1.82-2.76,2.73-5.36,2.73-7.79,0-1.39-.24-2.67-.73-3.82-.49-1.15-1.02-1.73-1.61-1.73-.52,0-1.31,.55-2.39,1.66-3.02,3.28-5.41,6.64-7.18,10.08-1.77,3.44-2.65,6.51-2.65,9.2,0,1.79,.37,3.26,1.1,4.43s1.65,1.75,2.75,1.75c.94,0,2.7-1.01,5.28-3.02,2.58-2.01,5.48-4.67,8.69-7.99l1.31-1.07-.2-.2Z"/><path d="M451.25,31.17l.19-.58c2.14-6.04,4-10.29,5.56-12.76,.75-1.17,1.79-2.21,3.12-3.12,2.5-1.59,4.86-2.39,7.07-2.39,1.3,0,2.29,.29,2.97,.88,.68,.58,1.02,1.43,1.02,2.54,0,.75-.49,2.27-1.47,4.57-1.67,3.83-2.91,7.42-3.72,10.76,.55,.07,1.09,.16,1.61,.29,1.95,.29,3.23,.62,3.85,1,.62,.37,.93,1.05,.93,2.02,0,1.72-.44,3.31-1.31,4.77-.88,1.46-2.03,2.53-3.46,3.22-1.07,.49-2.81,.81-5.21,.97-.42,1.27-.88,3-1.4,5.21-.29,1.95-.61,4.64-.96,8.09-.2,1.27-.29,2.45-.29,3.55,0,5.12,2.48,7.69,7.45,7.69h.44c.58,0,.88,.1,.88,.29,0,.52-.55,1.4-1.66,2.63-1.1,1.23-2.32,2.32-3.65,3.26-1.43,.97-2.99,1.75-4.68,2.34-1.69,.58-3.22,.88-4.58,.88-3.42,0-6.19-1.15-8.32-3.46-2.13-2.3-3.2-5.36-3.2-9.15,0-1.62,.28-3.75,.85-6.38,.57-2.63,1.45-6.15,2.65-10.57,.2-.78,.41-1.6,.63-2.46s.36-1.37,.39-1.53c-1.3-.03-2.22-.31-2.78-.83s-.83-1.36-.83-2.53c0-2.04,.79-3.98,2.36-5.79,1.57-1.82,3.42-2.95,5.53-3.41Z"/><path d="M483.47,78.74c-1.46-.1-2.79-.76-3.99-2-1.2-1.3-2.05-2.7-2.55-4.21-.5-1.51-.75-3.46-.75-5.87,0-5.36,1-11.4,2.99-18.14,2-6.74,4.26-11.61,6.79-14.63,1.01-1.27,2.4-1.9,4.19-1.9,1.88,0,3.4,.86,4.55,2.58,1.15,1.72,1.73,3.98,1.73,6.77,0,4.12-.59,8.95-1.78,14.48-1.19,5.53-2.85,11.29-5,17.26-.84,2.4-1.88,4.03-3.11,4.87-.84,.52-1.83,.78-2.97,.78h-.1Zm5.85-48.93c-3.05-.1-4.58-1.93-4.58-5.5,0-1.79,.45-3.85,1.34-6.21s1.91-4.1,3.04-5.23c.58-.62,1.18-1.05,1.78-1.31s1.37-.39,2.31-.39c1.62,0,2.82,.4,3.58,1.19,.76,.8,1.14,2.12,1.14,3.97,0,2.3-.4,4.49-1.19,6.55s-1.86,3.73-3.19,5.01c-1.33,1.28-2.7,1.92-4.09,1.92h-.15Z"/><path d="M533.73,29.27c4.84,0,7.25,.57,7.25,1.7,0,1.3-1.09,2-3.26,2.09-2.63,.16-5.08,.91-7.35,2.24-2.27,1.33-4.29,3.15-6.06,5.45-1.77,2.3-3.15,4.9-4.14,7.79-.99,2.89-1.49,5.94-1.49,9.15,0,3.54,.83,6.39,2.48,8.54,1.66,2.16,3.81,3.24,6.48,3.24,2.47,0,4.63-1.27,6.48-3.8,1.85-2.53,2.78-5.48,2.78-8.86,0-2.76-.58-5.35-1.73-7.77s-2.83-4.46-5.04-6.11c-.94-.75-1.41-1.28-1.41-1.61,0-.45,.67-1.15,2-2.09,1.49-1.01,3.17-1.85,5.02-2.53,1.85-.68,3.41-1.02,4.67-1.02,1.46,0,2.85,.38,4.16,1.14,1.31,.76,2.47,1.85,3.48,3.26,1.01,1.41,1.78,3.04,2.31,4.87,.54,1.83,.8,3.79,.8,5.87,0,3.44-.65,6.84-1.95,10.2-1.3,3.36-3,6.08-5.11,8.16-2.73,2.63-6.01,4.78-9.86,6.45s-7.51,2.51-10.98,2.51-6.73-.58-10.05-1.75c-3.33-1.17-5.96-2.71-7.91-4.62-2.6-2.6-3.9-6.28-3.9-11.05,0-3.77,.93-7.53,2.78-11.3,1.85-3.77,4.36-7.18,7.52-10.25,3.17-3.07,6.65-5.49,10.47-7.25,3.81-1.77,7.67-2.65,11.56-2.65Z"/><path d="M576.17,52.58l2.93-3.42c2.97-3.29,5.32-5.74,7.05-7.35,1.73-1.61,3.29-2.77,4.67-3.49s2.78-1.07,4.21-1.07c2.3,0,3.92,.62,4.86,1.85s1.41,3.38,1.41,6.43c0,1.27-.13,3.13-.39,5.6-.39,3.28-.58,6.36-.58,9.25,0,3.25,.16,5.88,.49,7.89,.23,1.23,.57,2.47,1.02,3.7,.32,1.17,.49,1.96,.49,2.39,0,.52-.19,.93-.58,1.22-1.01,.88-2.34,1.64-3.99,2.29-1.66,.65-3.05,.97-4.19,.97-1.85,0-3.53-.63-5.04-1.9-1.51-1.27-2.68-3.02-3.51-5.26-.83-2.24-1.24-4.77-1.24-7.6,0-1.88,.19-4.11,.58-6.67l-.19-.19c-1.4,1.56-2.52,2.79-3.38,3.7-.86,.91-1.66,1.77-2.41,2.58-3.64,4.16-6.72,7.9-9.25,11.25-.97,1.3-1.87,2.43-2.68,3.41-1.2,1.2-2.56,1.8-4.09,1.8-2.08,0-3.77-.78-5.06-2.34-1.3-1.56-1.95-3.57-1.95-6.04,0-1.53,.18-3.39,.54-5.6,.36-2.21,.83-4.57,1.44-7.08,.6-2.51,1.31-5.1,2.14-7.77,.83-2.66,1.73-5.19,2.7-7.6,1.49-3.99,3.31-7.11,5.45-9.35,1.46-1.46,3.23-2.19,5.31-2.19,3.38,0,5.06,2.19,5.06,6.57,0,3.21-.67,7.82-2.01,13.81l.19,.2Z"/><path d="M616.26,62.48c1.79,.03,3.25,.39,4.38,1.07,1.14,.68,1.7,1.53,1.7,2.53,0,1.88-.59,3.79-1.78,5.72-1.19,1.93-2.7,3.54-4.55,4.82s-3.67,1.92-5.45,1.92c-1.4,0-2.56-.38-3.48-1.14-.92-.76-1.39-1.78-1.39-3.04,0-1.07,.29-2.41,.88-4.02,.58-1.61,1.28-3.03,2.09-4.26,.94-1.36,2.11-2.29,3.51-2.78,1.4-.55,2.73-.83,3.99-.83h.1Zm3.12-12.37c-1.4,0-2.6-.49-3.6-1.46-1.01-.97-1.51-2.11-1.51-3.41s.41-2.79,1.22-4.67c.81-1.88,1.67-3.25,2.58-4.09,.94-.94,2.21-1.71,3.8-2.31,1.59-.6,3.12-.9,4.58-.9,3.05,0,4.58,.88,4.58,2.63v.1c-.1,1.82-.73,3.98-1.9,6.48-1.1,2.63-2.09,4.28-2.97,4.97-.75,.68-1.81,1.3-3.19,1.85-1.38,.55-2.57,.83-3.58,.83Z"/><path d="M656.92,53.61l5.7-17.53c1.1-3.15,2.43-6.21,3.99-9.2-.16,.03-.54,.21-1.12,.54-2.24,.91-3.83,1.36-4.77,1.36-1.33,0-2-.5-2-1.51,0-1.07,.52-2.61,1.56-4.63,1.04-2.01,2.08-3.52,3.12-4.53,2.37-2.17,5.98-3.89,10.83-5.16,4.85-1.27,10.28-1.9,16.29-1.9,3.63,0,6.92,.31,9.86,.92,2.94,.62,5.44,1.53,7.52,2.75,2.08,1.22,3.66,2.69,4.75,4.41,1.09,1.72,1.63,3.64,1.63,5.75,0,2.95-.62,5.58-1.85,7.89-1.23,2.3-3.18,4.46-5.84,6.48-2.95,2.21-5.75,3.67-8.38,4.38-.29,.1-.8,.2-1.51,.29v.24c11.39,1.46,17.09,6.17,17.09,14.12,0,1.59-.27,3.25-.8,4.97s-1.31,3.41-2.34,5.06-2.25,3.17-3.68,4.53c-3.08,3.02-6.74,5.83-10.98,8.42-4.24,2.6-8.5,4.69-12.78,6.28-4.28,1.59-7.95,2.39-11,2.39-2.56,0-5.02-.29-7.38-.88-2.35-.58-4.23-1.36-5.62-2.31-1.4-.96-2.09-1.99-2.09-3.09,0-1.01,.28-1.95,.85-2.82,.57-.88,1.61-1.96,3.14-3.26l-.19-.19c-.88,.32-1.74,.49-2.58,.49-1.79,0-3.23-.52-4.33-1.56s-1.66-2.45-1.66-4.24c0-1.01,.45-3.35,1.36-7.04,.91-3.68,1.98-7.49,3.21-11.42Zm21.25-6.37c-.13,.42-.26,.89-.39,1.41-.13,.52-.26,1-.39,1.46-1.54,5.16-2.94,9.35-4.23,12.56-1.28,3.21-2.64,5.94-4.07,8.18-.81,1.36-1.98,2.81-3.51,4.33,3.93,1.2,6.73,1.98,8.4,2.34,1.67,.36,3.33,.54,4.99,.54,1.92,0,3.61-.28,5.09-.85,1.48-.57,2.86-1.49,4.16-2.75,1.92-1.88,3.47-4.12,4.67-6.72s1.8-5.11,1.8-7.55c0-2.66-.92-4.92-2.77-6.77-.91-.91-1.92-1.61-3.04-2.09-1.12-.49-2.67-.89-4.65-1.22-1.82-.36-3.08-.7-3.79-1.02s-1.48-.94-2.29-1.85Zm7.28-25.03l-6.2,21.33c.39,.07,.78,.1,1.16,.1,1.71,0,3.7-.79,5.96-2.39,2.84-1.98,5.05-4.1,6.62-6.35s2.35-4.46,2.35-6.6c0-4.45-2.34-6.67-7.01-6.67-1.3,0-2.26,.2-2.88,.58Z"/><path d="M751.52,64.08v.2l-.2-.2c-3.02,3.54-5.79,6.44-8.3,8.69-2.52,2.26-4.84,3.95-6.96,5.09-2.13,1.14-4.08,1.7-5.87,1.7-3.64,0-6.64-1.22-9.01-3.65-2.37-2.43-3.55-5.52-3.55-9.25,0-2.3,.58-5.03,1.75-8.18,1.17-3.15,2.78-6.23,4.82-9.25,3.41-4.93,7.69-9.12,12.85-12.56,5.32-3.54,10.45-5.31,15.39-5.31,4.16,0,7.57,.85,10.25,2.56,2.68,1.7,4.02,3.85,4.02,6.45,0,1.92-.67,3.94-2,6.09,1.75,0,2.86,.19,3.31,.56,.45,.37,.68,1.24,.68,2.6,0-.13-.08,.54-.24,2-.2,3.21-.29,6.22-.29,9.01,0,1.46,.02,2.56,.05,3.31s.1,1.61,.2,2.58,.19,1.75,.29,2.34c.26,1.53,.68,3.04,1.27,4.53-1.95,1.92-3.81,3.32-5.6,4.21-1.79,.89-3.6,1.34-5.45,1.34-5,0-7.5-4.19-7.5-12.56,0-.97,.03-1.74,.1-2.29Zm2.92-11.15l-.92,.29c-2.34,.65-4.03,.97-5.06,.97-1.27,0-1.9-.32-1.9-.97,0-.23,.26-.83,.78-1.8,1.82-2.76,2.73-5.36,2.73-7.79,0-1.39-.24-2.67-.73-3.82-.49-1.15-1.02-1.73-1.61-1.73-.52,0-1.31,.55-2.39,1.66-3.02,3.28-5.41,6.64-7.18,10.08-1.77,3.44-2.65,6.51-2.65,9.2,0,1.79,.37,3.26,1.1,4.43s1.65,1.75,2.75,1.75c.94,0,2.7-1.01,5.28-3.02,2.58-2.01,5.48-4.67,8.69-7.99l1.31-1.07-.2-.2Z"/><path d="M796.06,52.58l2.93-3.42c2.97-3.29,5.32-5.74,7.05-7.35,1.73-1.61,3.29-2.77,4.67-3.49s2.78-1.07,4.21-1.07c2.3,0,3.92,.62,4.86,1.85s1.41,3.38,1.41,6.43c0,1.27-.13,3.13-.39,5.6-.39,3.28-.58,6.36-.58,9.25,0,3.25,.16,5.88,.49,7.89,.23,1.23,.57,2.47,1.02,3.7,.32,1.17,.49,1.96,.49,2.39,0,.52-.19,.93-.58,1.22-1.01,.88-2.34,1.64-3.99,2.29-1.66,.65-3.05,.97-4.19,.97-1.85,0-3.53-.63-5.04-1.9-1.51-1.27-2.68-3.02-3.51-5.26-.83-2.24-1.24-4.77-1.24-7.6,0-1.88,.19-4.11,.58-6.67l-.19-.19c-1.4,1.56-2.52,2.79-3.38,3.7-.86,.91-1.66,1.77-2.41,2.58-3.64,4.16-6.72,7.9-9.25,11.25-.97,1.3-1.87,2.43-2.68,3.41-1.2,1.2-2.56,1.8-4.09,1.8-2.08,0-3.77-.78-5.06-2.34-1.3-1.56-1.95-3.57-1.95-6.04,0-1.53,.18-3.39,.54-5.6,.36-2.21,.83-4.57,1.44-7.08,.6-2.51,1.31-5.1,2.14-7.77,.83-2.66,1.73-5.19,2.7-7.6,1.49-3.99,3.31-7.11,5.45-9.35,1.46-1.46,3.23-2.19,5.31-2.19,3.38,0,5.06,2.19,5.06,6.57,0,3.21-.67,7.82-2.01,13.81l.19,.2Z"/><path d="M859.37,64.08v.2l-.2-.2c-3.02,3.54-5.79,6.44-8.3,8.69-2.52,2.26-4.84,3.95-6.96,5.09-2.13,1.14-4.08,1.7-5.87,1.7-3.64,0-6.64-1.22-9.01-3.65-2.37-2.43-3.55-5.52-3.55-9.25,0-2.3,.58-5.03,1.75-8.18,1.17-3.15,2.78-6.23,4.82-9.25,3.41-4.93,7.69-9.12,12.85-12.56,5.32-3.54,10.45-5.31,15.39-5.31,4.16,0,7.57,.85,10.25,2.56,2.68,1.7,4.02,3.85,4.02,6.45,0,1.92-.67,3.94-2,6.09,1.75,0,2.86,.19,3.31,.56,.45,.37,.68,1.24,.68,2.6,0-.13-.08,.54-.24,2-.2,3.21-.29,6.22-.29,9.01,0,1.46,.02,2.56,.05,3.31s.1,1.61,.2,2.58,.19,1.75,.29,2.34c.26,1.53,.68,3.04,1.27,4.53-1.95,1.92-3.81,3.32-5.6,4.21-1.79,.89-3.6,1.34-5.45,1.34-5,0-7.5-4.19-7.5-12.56,0-.97,.03-1.74,.1-2.29Zm2.92-11.15l-.92,.29c-2.34,.65-4.03,.97-5.06,.97-1.27,0-1.9-.32-1.9-.97,0-.23,.26-.83,.78-1.8,1.82-2.76,2.73-5.36,2.73-7.79,0-1.39-.24-2.67-.73-3.82-.49-1.15-1.02-1.73-1.61-1.73-.52,0-1.31,.55-2.39,1.66-3.02,3.28-5.41,6.64-7.18,10.08-1.77,3.44-2.65,6.51-2.65,9.2,0,1.79,.37,3.26,1.1,4.43s1.65,1.75,2.75,1.75c.94,0,2.7-1.01,5.28-3.02,2.58-2.01,5.48-4.67,8.69-7.99l1.31-1.07-.2-.2Z"/><path d="M903.91,52.58l2.93-3.42c2.97-3.29,5.32-5.74,7.05-7.35,1.73-1.61,3.29-2.77,4.67-3.49s2.78-1.07,4.21-1.07c2.3,0,3.92,.62,4.86,1.85s1.41,3.38,1.41,6.43c0,1.27-.13,3.13-.39,5.6-.39,3.28-.58,6.36-.58,9.25,0,3.25,.16,5.88,.49,7.89,.23,1.23,.57,2.47,1.02,3.7,.32,1.17,.49,1.96,.49,2.39,0,.52-.19,.93-.58,1.22-1.01,.88-2.34,1.64-3.99,2.29-1.66,.65-3.05,.97-4.19,.97-1.85,0-3.53-.63-5.04-1.9-1.51-1.27-2.68-3.02-3.51-5.26-.83-2.24-1.24-4.77-1.24-7.6,0-1.88,.19-4.11,.58-6.67l-.19-.19c-1.4,1.56-2.52,2.79-3.38,3.7-.86,.91-1.66,1.77-2.41,2.58-3.64,4.16-6.72,7.9-9.25,11.25-.97,1.3-1.87,2.43-2.68,3.41-1.2,1.2-2.56,1.8-4.09,1.8-2.08,0-3.77-.78-5.06-2.34-1.3-1.56-1.95-3.57-1.95-6.04,0-1.53,.18-3.39,.54-5.6,.36-2.21,.83-4.57,1.44-7.08,.6-2.51,1.31-5.1,2.14-7.77,.83-2.66,1.73-5.19,2.7-7.6,1.49-3.99,3.31-7.11,5.45-9.35,1.46-1.46,3.23-2.19,5.31-2.19,3.38,0,5.06,2.19,5.06,6.57,0,3.21-.67,7.82-2.01,13.81l.19,.2Z"/><path d="M967.22,64.08v.2l-.2-.2c-3.02,3.54-5.79,6.44-8.3,8.69-2.52,2.26-4.84,3.95-6.96,5.09-2.13,1.14-4.08,1.7-5.87,1.7-3.64,0-6.64-1.22-9.01-3.65-2.37-2.43-3.55-5.52-3.55-9.25,0-2.3,.58-5.03,1.75-8.18,1.17-3.15,2.78-6.23,4.82-9.25,3.41-4.93,7.69-9.12,12.85-12.56,5.32-3.54,10.45-5.31,15.39-5.31,4.16,0,7.57,.85,10.25,2.56,2.68,1.7,4.02,3.85,4.02,6.45,0,1.92-.67,3.94-2,6.09,1.75,0,2.86,.19,3.31,.56,.45,.37,.68,1.24,.68,2.6,0-.13-.08,.54-.24,2-.2,3.21-.29,6.22-.29,9.01,0,1.46,.02,2.56,.05,3.31s.1,1.61,.2,2.58,.19,1.75,.29,2.34c.26,1.53,.68,3.04,1.27,4.53-1.95,1.92-3.81,3.32-5.6,4.21-1.79,.89-3.6,1.34-5.45,1.34-5,0-7.5-4.19-7.5-12.56,0-.97,.03-1.74,.1-2.29Zm2.92-11.15l-.92,.29c-2.34,.65-4.03,.97-5.06,.97-1.27,0-1.9-.32-1.9-.97,0-.23,.26-.83,.78-1.8,1.82-2.76,2.73-5.36,2.73-7.79,0-1.39-.24-2.67-.73-3.82-.49-1.15-1.02-1.73-1.61-1.73-.52,0-1.31,.55-2.39,1.66-3.02,3.28-5.41,6.64-7.18,10.08-1.77,3.44-2.65,6.51-2.65,9.2,0,1.79,.37,3.26,1.1,4.43s1.65,1.75,2.75,1.75c.94,0,2.7-1.01,5.28-3.02,2.58-2.01,5.48-4.67,8.69-7.99l1.31-1.07-.2-.2Z"/><path d="M1003.4,80.35c1.91-.1,3.66-1.03,5.23-2.8s2.36-3.69,2.36-5.77c0-1.43-.47-2.56-1.41-3.41-1.01-1.01-3.26-2-6.77-2.97-5.16-1.49-8.52-3.17-10.08-5.01-1.46-1.49-2.19-3.28-2.19-5.36,0-3.73,1.35-7.46,4.07-11.2,2.71-3.73,6.18-6.79,10.4-9.18,4.22-2.39,8.47-3.58,12.76-3.58,2.08,0,4.02,.49,5.84,1.46,1.82,.97,3.26,2.26,4.33,3.87,1.07,1.61,1.61,3.35,1.61,5.23s-.58,3.77-1.75,5.75c-1.17,1.98-2.64,3.63-4.41,4.94-1.77,1.31-3.45,1.97-5.04,1.97-.91,0-1.7-.2-2.36-.58-.67-.39-1-.81-1-1.27s.13-1.12,.39-2c.71-2.79,1.07-5.23,1.07-7.3s-.62-3.98-1.85-5.79c-1.59,1.1-2.63,1.98-3.12,2.63-1.23,1.43-2.19,3.05-2.87,4.86-.75,1.85-1.12,3.6-1.12,5.25,0,1.17,.27,2.1,.81,2.8,.54,.7,1.41,1.29,2.63,1.78,1.22,.49,3.06,1.02,5.53,1.61,4.12,1.01,7.03,1.98,8.71,2.92,.39,.23,.99,.7,1.8,1.41,1.23,1.33,1.85,3.05,1.85,5.16,0,2.24-.7,4.51-2.09,6.79-1.4,2.29-3.55,4.65-6.48,7.09-3.12,2.63-6.22,4.51-9.3,5.65-3.08,1.14-6.49,1.71-10.23,1.71s-6.44-.71-8.5-2.14c-2.06-1.43-3.09-3.38-3.09-5.84,0-1.75,.68-3.53,2.04-5.33s3.06-3.27,5.09-4.41c2.03-1.14,4.02-1.7,5.96-1.7,1.46,0,2.19,.33,2.19,.97,0,.33-.21,.86-.63,1.61-1.27,2.27-1.9,4.37-1.9,6.28,0,1.36,.5,2.66,1.51,3.9Z"/></g><g><path class="d" d="M95.16,23.5c3.21,7.03,3.6,14.4,2.03,21.79-2.07,9.79-6.77,18.3-13.49,25.73-6.03,6.68-13.28,11.53-21.63,14.8-6.68,2.62-13.57,4.38-20.76,4.48-6.11,.09-12.16-.53-18.03-2.5-5.21-1.75-10.19-3.91-14.64-7.16-2.92-2.13-5.56-4.58-7.83-7.4-.67-.83-.96-1.73-.75-2.84,.33-1.77,.63-3.55,.81-5.34,.14-1.37,.9-2.02,2.12-2.4,4.57-1.42,9.24-2.29,13.99-2.78,6.3-.66,12.6-1.23,18.77-2.74,10.13-2.48,19.23-6.99,27.33-13.58,6.73-5.47,12.41-11.84,17.05-19.15,1.29-2.03,2.34-4.2,3.41-6.36,.24-.49,.56-.95,.84-1.42,4.15,1.22,7.97,2.94,10.38,6.81,.05,.07,.26,.04,.39,.06Zm-10.61,20.59c1.11-2.95,2.46-5.21,2.84-7.81,.16-1.07,0-2.1-1.29-2.39-1.23-.28-1.77,.55-2.12,1.52-2.53,6.94-6.18,13.13-11.33,18.54-8.17,8.59-18.08,13.95-29.49,16.7-7.8,1.88-15.67,1.76-23.55,.52-1.95-.31-3.34,.17-3.55,1.27-.22,1.13,.7,1.94,2.7,2.43,3.15,.77,6.36,1.26,9.59,1.44,9.71,.55,18.94-1.34,27.83-5.29,12.87-5.71,22.26-14.96,28.38-26.93Z"/><path class="f" d="M95.16,23.5c-.13-.02-.35,.01-.39-.06-2.41-3.87-6.23-5.59-10.38-6.81,1.75-4.53,2.14-9.22,1.75-14.03-.19-2.4,1.09-3.19,3.3-2.17,2.14,.99,4.27,2,6.4,3.02,1.4,.67,1.8,1.67,1.21,3.05-2.21,5.11-2.83,10.39-1.76,15.86,.08,.39,.33,.81-.13,1.14Z"/><path class="e" d="M84.55,44.09c-6.12,11.97-15.51,21.22-28.38,26.93-8.89,3.95-18.13,5.84-27.83,5.29-3.23-.18-6.43-.67-9.59-1.44-2-.48-2.91-1.3-2.7-2.43,.21-1.1,1.61-1.58,3.55-1.27,7.88,1.24,15.75,1.36,23.55-.52,11.41-2.75,21.32-8.11,29.49-16.7,5.14-5.41,8.79-11.6,11.33-18.54,.35-.97,.9-1.8,2.12-1.52,1.29,.29,1.45,1.31,1.29,2.39-.38,2.6-1.73,4.86-2.84,7.81Z"/></g></g></g></g></svg>