<?xml version="1.0" encoding="UTF-8" standalone="no"?>
<!-- Generator: Adobe Illustrator 27.5.0, SVG Export Plug-In . SVG Version: 6.00 Build 0)  -->

<svg
   version="1.1"
   id="Layer_1"
   x="0px"
   y="0px"
   viewBox="0 0 283.261 400"
   xml:space="preserve"
   sodipodi:docname="confused_monkey.svg"
   inkscape:version="1.3.2 (091e20e, 2023-11-25)"
   xmlns:inkscape="http://www.inkscape.org/namespaces/inkscape"
   xmlns:sodipodi="http://sodipodi.sourceforge.net/DTD/sodipodi-0.dtd"
   xmlns="http://www.w3.org/2000/svg"
   xmlns:svg="http://www.w3.org/2000/svg">
   
   <defs
   id="defs156" />
   
   <sodipodi:namedview
   id="namedview156"
   pagecolor="#505050"
   bordercolor="#eeeeee"
   borderopacity="1"
   inkscape:showpageshadow="0"
   inkscape:pageopacity="0"
   inkscape:pagecheckerboard="0"
   inkscape:deskcolor="#505050"
   inkscape:zoom="1.8276769"
   inkscape:cx="126.66353"
   inkscape:cy="178.91565"
   inkscape:window-width="1440"
   inkscape:window-height="847"
   inkscape:window-x="0"
   inkscape:window-y="25"
   inkscape:window-maximized="1"
   inkscape:current-layer="Layer_1" />
<g
   id="g155"
   style="display:inline"
   transform="translate(-7.080798,-10)">
	
	<g
   id="g154"
   style="display:inline">
		<path
   style="fill:#ffffff"
   d="m 264.343,120.668 c -0.078,-0.069 -0.158,-0.135 -0.239,-0.199 -1.407,-1.111 -3.156,-1.471 -4.794,-1.154 -0.903,-1.458 -1.915,-2.797 -2.973,-3.955 -1.599,-1.709 -4.002,-2.237 -6.1,-1.556 0.649,-2.304 0.976,-4.877 0.972,-7.708 1.44,-2.817 2.625,-5.675 3.459,-8.352 1.753,-5.668 4.471,-14.484 -0.858,-23.29 0.782,-0.199 1.516,-0.563 2.162,-1.062 0.05,0.018 0.093,0.047 0.144,0.064 0.632,0.216 1.279,0.319 1.919,0.319 2.094,0 4.099,-1.105 5.174,-2.989 2.527,-4.377 2.677,-9.644 0.402,-14.089 -2.116,-4.135 -6.089,-6.884 -10.634,-7.362 -1.72,-0.194 -3.358,0.376 -4.564,1.455 -1.175,-0.474 -2.353,-0.846 -3.485,-1.095 -2.929,-0.658 -5.907,1.043 -6.825,3.916 -0.941,2.938 0.567,6.125 3.432,7.255 0.121,0.048 0.242,0.091 0.365,0.13 2.375,0.755 3.768,1.552 4.622,2.621 0.374,0.478 0.376,1.229 0.094,3.169 -1.304,-0.903 -2.749,-1.761 -4.064,-2.38 -3.32,-1.57 -6.728,-2.366 -10.128,-2.366 -1.63,-1.339 -3.343,-2.525 -5.125,-3.548 C 219.933,39.99 206.355,25.152 189.773,17.577 178.723,12.549 166.839,10 154.454,10 c -15.401,0 -30.556,4.273 -38.955,10.606 -1.05,-1.62 -1.642,-3.65 -1.851,-4.887 -0.002,-0.012 -0.004,-0.023 -0.006,-0.035 -0.449,-2.742 -2.648,-4.857 -5.406,-5.17 -2.868,-0.319 -5.585,1.388 -6.537,4.079 -0.472,1.286 -1.311,3.904 -1.664,7.059 -0.936,-0.227 -1.934,-0.236 -2.92,-0.004 -0.066,0.016 -0.131,0.032 -0.197,0.05 -2.233,0.611 -3.928,2.417 -4.424,4.714 -0.046,0.215 -0.08,0.432 -0.101,0.651 -0.407,3.857 0.523,9.006 3.865,13.353 -3.883,4.236 -7.127,9.369 -9.705,15.356 -3.588,-1.871 -7.651,-2.875 -11.774,-2.875 -3.79,0 -7.5,0.862 -10.726,2.491 -10.325,5.202 -14.289,17.276 -14.555,26.824 -0.233,7.573 2.696,15.944 8.036,22.966 l 0.01,-0.008 c 0.493,0.626 1.403,1.61 3.27,3.438 -0.069,5.315 1.172,11.063 3.7,17.128 4.884,11.722 15.589,25.839 32.175,36.353 -1.371,-0.003 -2.532,0.017 -3.677,0.063 -17.357,0.935 -32.721,5.535 -45.667,13.67 -9.034,5.679 -14.611,11.74 -17.259,15.047 -0.744,0.281 -1.499,0.546 -2.219,0.798 -5.676,1.95 -12.741,4.378 -17.129,12.71 -4.324,8.231 -4.227,16.346 -2.7,21.176 1.37,4.389 3.878,6.349 5.74,7.221 0.045,0.02 0.09,0.041 0.135,0.061 0.558,0.243 1.115,0.431 1.67,0.566 1.447,3.815 4.154,7.421 7.59,9.289 3.405,8.327 9.67,9.031 11.664,9.031 0.301,0 0.626,-0.008 0.904,-0.033 3.379,-0.289 6.177,-1.938 7.91,-4.691 1.945,-3.162 2.097,-7.284 0.455,-12.244 -1.025,-3.116 -0.651,-6.477 -0.155,-8.006 0.292,0.004 0.518,0.059 0.657,0.108 0.212,0.441 0.46,1.119 0.612,1.531 1.154,3.015 3.554,9.288 11.008,10.304 0.741,0.1 1.411,0.148 2.048,0.148 4.224,0 7.667,-2.072 9.237,-5.605 1.614,-3.751 0.598,-8.217 -2.775,-12.239 -1.934,-2.32 -2.487,-5.291 -2.72,-9.006 -0.25,-4.347 -2.86,-8.119 -5.372,-10.778 1.884,-3.226 7.69,-6.646 16.527,-9.655 0.032,-0.011 0.063,-0.022 0.095,-0.033 8.349,-3.009 16.96,-4.535 25.595,-4.535 5.31,0 9.956,0.581 13.719,1.32 -16.923,13.657 -46.985,38.37 -42.246,62.717 0.236,1.22 0.532,2.444 0.885,3.662 -5.998,9.502 -22.385,36.877 -22.217,52.04 0,12.612 7.7,19.844 21.125,19.844 2.698,0 5.675,-0.253 9.377,-0.797 2.314,-0.342 4.447,-0.516 6.341,-0.516 1.8,0 3.174,0.155 4.216,0.371 -0.363,3.523 -1.453,8.841 -4.486,15.238 -3.453,7.231 -6.217,12.087 -7.964,14.938 -2.603,0.283 -4.904,1.648 -6.387,3.796 -2.075,2.919 -2.341,6.917 -0.664,10.495 1.211,2.504 3.222,4.375 5.588,5.31 2.218,2.485 5.359,3.856 8.858,3.693 1.607,0.703 3.538,1.004 5.491,0.869 2.266,1.249 5.097,1.659 7.723,1.077 2.124,0.874 4.526,1.352 6.93,1.352 4.217,0 14.555,-1.606 19.454,-16.48 0.071,-0.218 0.13,-0.447 0.174,-0.682 3.953,-15.031 3.367,-23.719 1.639,-41.648 -0.024,-2.377 0.505,-4.249 1.028,-6.1 0.423,-1.541 0.906,-3.304 1.061,-5.255 3.483,1.846 7.247,3.254 11.223,4.156 2.696,0.615 5.566,0.928 8.533,0.928 9.427,0 19.371,-3.049 28.016,-8.492 5.684,9.013 5.781,18.488 5.831,23.455 0.015,1.582 0.026,2.725 0.262,3.845 0.208,0.983 0.596,1.867 1.126,2.62 -0.259,0.384 -0.648,0.905 -0.857,1.188 -2.388,3.219 -6.833,9.212 -4.538,18.318 2.161,8.557 7.92,13.079 16.655,13.079 2.542,0 5.484,-0.384 8.983,-1.174 4.567,-0.546 10.454,-2.523 16.202,-4.455 4.721,-1.59 11.176,-3.763 13.849,-3.794 1.589,0.243 3.214,0.366 4.831,0.366 5.441,0 10.017,-1.367 13.185,-3.896 3.753,-0.753 7.122,-3.426 8.468,-6.942 0.323,-0.875 0.508,-1.776 0.556,-2.676 1.33,-2.092 2.013,-4.593 1.823,-6.975 -0.024,-0.334 -0.066,-0.663 -0.123,-0.988 1.234,-2.92 1.369,-6.085 0.288,-8.785 -0.008,-0.021 -0.018,-0.043 -0.027,-0.065 -0.236,-0.569 -0.521,-1.105 -0.85,-1.603 0.107,-2.157 -0.35,-3.865 -0.841,-5.026 -0.52,-1.284 -1.279,-2.443 -2.242,-3.437 -0.758,-4.087 -2.793,-7.316 -5.769,-9.059 -1.737,-1.032 -3.545,-1.554 -5.374,-1.554 -5.173,0 -8.372,3.743 -12.401,8.458 -3.833,4.436 -9.909,7.749 -19.686,10.735 -0.618,0.188 -1.08,0.264 -1.381,0.294 -2.285,-18.406 -8.026,-34.077 -17.078,-46.644 2.518,-6.475 3.549,-13.36 3.144,-20.934 -0.491,-9.342 -3.265,-18.26 -5.625,-24.983 -2.455,-7.008 -1.427,-17.523 2.434,-24.983 1.65,-3.156 4.486,-7.119 8.629,-8.075 1.658,-0.383 3.331,-0.577 4.975,-0.577 8.798,0 15.435,5.367 16.906,13.659 0.769,4.408 -0.243,8.773 -2.779,11.977 -2.226,2.816 -5.318,4.159 -8.061,3.508 -1.538,-0.369 -3.008,-0.557 -4.369,-0.557 -6.571,0 -10.083,4.432 -10.156,8.794 -0.133,6.772 6.718,12.176 15.935,12.571 0.131,0.007 0.263,0.007 0.39,0.004 8.612,-0.221 15.892,-3.917 21.047,-10.681 7.189,-9.403 8.742,-22.521 7.094,-31.337 -1.975,-10.714 -15.892,-26.153 -32.269,-28.78 8.298,-4.043 14.014,-8.298 17.29,-12.841 7.149,-9.954 9.688,-29.855 9.759,-35.557 0.042,-2.264 1.987,-5.149 3.149,-6.873 l 0.034,-0.05 c 1.147,-1.662 2.54,-3.684 2.161,-6.314 0.166,0.324 0.363,0.636 0.594,0.931 1.922,2.554 2.81,4.448 2.973,6.385 0.108,1.141 -0.469,1.953 -2.66,4.353 l -0.051,0.056 c -1.849,1.98 -2.146,5.022 -0.683,7.343 1.124,1.782 3.017,2.788 5.005,2.788 0.25,0 0.502,-0.034 0.754,-0.066 0.136,0.244 0.276,0.487 0.449,0.717 1.164,1.549 2.928,2.398 4.774,2.398 0.862,0 1.742,-0.186 2.588,-0.571 4.745,-2.243 8.023,-6.721 8.768,-11.977 0.737,-5.19 -1.143,-10.337 -5.028,-13.768 z M 103.725,296.331 c -1.682,-2.319 -4.751,-3.299 -7.561,-2.271 -3.647,1.266 -6.347,2.172 -8.984,2.699 3.017,-3.773 7.222,-8.529 11.062,-12.223 2.957,1.126 5.933,2.003 8.904,2.622 0.936,2.74 2.121,5.351 3.529,7.812 -2.137,0.109 -4.446,0.561 -6.95,1.361 z m 33.355,-10.144 c 6.508,0 13.588,2.508 23,8.253 -4.408,1.953 -9.107,2.993 -13.59,2.875 -8.992,-0.197 -14.21,-5.221 -17.191,-10.282 2.704,-0.487 5.199,-0.846 7.781,-0.846 z m 41.138,-29.807 c 1.212,3.476 1.783,7.004 1.712,10.47 -0.123,-0.088 -0.247,-0.175 -0.37,-0.262 -8.067,-5.668 -15.907,-8.698 -21.407,-10.285 8.193,-23.771 10.485,-47.923 11.109,-57.958 4.081,-0.914 10.63,-2.481 18.036,-4.632 -14.99,14.463 -18.252,36.359 -9.08,62.667 z"
   id="path18" />
		<g
   id="g153">
			<g
   id="g20">
				<path
   style="fill:#6e150c"
   d="m 119.854,279.678 c 0,0 4.057,23.361 26.511,23.863 22.448,0.504 47.273,-21.847 37.694,-49.227 -9.535,-27.374 -4.516,-48.725 13.623,-61.031 18.14,-12.306 40.826,8.794 42.965,20.346 2.139,11.558 -2.629,34.165 -22.197,34.661 -11.705,-0.496 -13.598,-11.043 -3.118,-8.531 10.51,2.506 20.768,-9.045 18.409,-22.613 -2.408,-13.556 -15.29,-21.338 -29.372,-18.078 -14.082,3.26 -20.529,26.866 -15.511,41.188 5.002,14.316 9.31,31.64 -0.741,48.211 -10.02,16.595 -31.493,25.383 -47.01,21.859 -15.51,-3.511 -26.253,-15.32 -29.372,-29.643 z"
   id="path19" />
				<path
   style="fill:#300100"
   d="m 148.264,311.619 c -2.537,0 -4.989,-0.265 -7.262,-0.784 -15.081,-3.42 -26.474,-14.917 -29.74,-30.028 l -0.129,-0.564 9.137,-1.14 0.074,0.478 c 0.043,0.245 4.246,22.956 26.02,23.434 12.9,0.269 26.136,-6.839 33.546,-17.993 6.067,-9.144 7.366,-19.971 3.689,-30.518 -9.505,-27.265 -4.621,-49.172 13.8,-61.65 3.751,-2.537 7.868,-3.825 12.28,-3.825 14.85,0 29.667,14.831 31.451,24.5 1.372,7.343 0.073,18.876 -6.018,26.841 -4.137,5.43 -9.744,8.268 -16.663,8.445 -6.556,-0.281 -10.54,-3.737 -10.479,-6.765 0.026,-1.557 1.226,-3.205 4.456,-3.205 0.9,0 1.918,0.13 3.039,0.399 4.946,1.176 10.259,-0.956 13.862,-5.515 3.542,-4.474 4.97,-10.492 3.922,-16.492 -1.949,-10.988 -10.994,-18.378 -22.521,-18.378 -2.065,0 -4.161,0.239 -6.257,0.723 -6.275,1.446 -10.197,6.778 -12.397,10.988 -4.59,8.868 -5.742,21.002 -2.764,29.507 2.23,6.349 4.859,14.751 5.313,23.398 0.503,9.412 -1.471,17.68 -6.066,25.272 -8.144,13.459 -24.72,22.872 -40.293,22.872 z M 112.36,281.137 c 3.334,14.425 14.358,25.395 28.851,28.679 2.212,0.504 4.59,0.755 7.053,0.755 15.266,0 31.486,-9.205 39.453,-22.387 9.67,-15.995 6.037,-32.406 0.65,-47.745 -3.052,-8.77 -1.906,-21.252 2.837,-30.365 3.291,-6.317 7.807,-10.308 13.059,-11.514 2.139,-0.509 4.308,-0.766 6.465,-0.766 12.011,0 21.473,7.746 23.483,19.261 1.104,6.305 -0.386,12.63 -4.137,17.348 -3.848,4.854 -9.529,7.134 -14.842,5.865 -3.664,-0.889 -6.214,-0.091 -6.275,1.796 -0.043,2.219 3.248,5.436 9.517,5.706 6.557,-0.178 11.914,-2.874 15.872,-8.053 5.607,-7.36 7.182,-18.648 5.81,-25.977 -1.723,-9.34 -16.068,-23.655 -30.476,-23.655 -4.221,0 -8.162,1.225 -11.735,3.646 -17.962,12.195 -22.73,33.657 -13.402,60.418 3.781,10.859 2.421,22.037 -3.818,31.463 -7.575,11.435 -21.185,18.728 -34.391,18.452 -20.769,-0.46 -26.124,-20.426 -26.866,-23.809 z"
   id="path20" />
			</g>
			<g
   id="g21">
				<path
   style="fill:#300100"
   d="m 221.815,247.309 c -9.156,1.33 -10.583,-5.822 -5.687,-4.989 4.902,0.834 14.395,-2.659 19.292,-13.959 5.049,-16.276 -6.018,-27.908 -15.824,-31.235 -14.003,-4.75 -26.4,3.566 -32.246,15.7 -5.828,12.128 -1.09,28.024 3.009,40.306 6.938,20.774 -4.234,25.738 -2.978,20.921 1.268,-4.816 1.428,-9.965 -2.672,-22.594 -4.117,-12.631 -7.103,-19.605 -2.053,-36.892 2.966,-10.154 8.825,-16.466 13.163,-19.941 -16.601,12.484 -20.971,33.282 -11.76,59.689 9.579,27.38 -15.246,49.731 -37.694,49.227 -22.454,-0.502 -26.511,-23.863 -26.511,-23.863 l -8.12,1.004 c 0.552,2.501 1.33,4.916 2.336,7.231 1.624,-0.68 3.573,-0.294 5.576,2.445 5.981,8.022 22.583,23.753 45.152,12.569 10.081,-4.989 -3.658,11.447 -24.942,7.066 0.411,0.104 0.809,0.239 1.25,0.33 15.517,3.523 36.991,-5.264 47.01,-21.859 10.05,-16.571 5.742,-33.895 0.741,-48.211 -5.018,-14.321 1.429,-37.928 15.511,-41.188 14.082,-3.26 26.965,4.523 29.372,18.078 2.359,13.568 -7.899,25.119 -18.409,22.613 -10.479,-2.513 -8.586,8.034 3.118,8.531 11.938,-0.307 18.373,-8.843 21.075,-18.066 -3.632,9.868 -11.617,16.205 -17.709,17.087 z"
   id="path21" />
			</g>
			<g
   id="g23">
				<path
   style="fill:#6e150c"
   d="m 85.879,94.239 c 0,0 -1.992,-37.199 19.66,-53.959 -8.206,-4.456 -6.95,-12.588 -6.95,-12.588 0,0 3.713,4.455 10.681,4.976 -5.975,-5.227 -1.74,-15.963 -1.74,-15.963 0,0 1.256,9.419 8.469,12.048 6.483,-9.18 39.587,-19.91 71.203,-5.503 31.628,14.402 49.314,57.366 34.14,90.636 10e-4,0 -93.889,6.545 -135.463,-19.647 z"
   id="path22" />
				<path
   style="fill:#300100"
   d="m 195.439,115.136 c -67.317,0 -97.708,-12.82 -109.811,-20.456 -0.165,-0.079 -0.239,-0.245 -0.263,-0.417 0,-0.367 -1.716,-36.952 19.261,-53.916 -7.679,-4.658 -6.557,-12.654 -6.557,-12.734 0.043,-0.203 0.177,-0.369 0.355,-0.417 0.209,-0.049 0.386,0 0.515,0.16 0.048,0.042 3.192,3.701 8.978,4.633 -4.639,-5.651 -0.993,-15.07 -0.846,-15.486 0.074,-0.226 0.313,-0.35 0.533,-0.325 0.209,0.024 0.386,0.221 0.417,0.442 0.025,0.097 1.268,8.861 7.807,11.508 4.719,-6.166 20.248,-12.428 38.626,-12.428 11.571,0 22.656,2.378 32.958,7.065 16.086,7.348 29.102,22.141 35.653,40.613 6.159,17.385 5.718,35.409 -1.293,50.734 -0.079,0.179 -0.239,0.283 -0.417,0.301 -0.104,0 -10.626,0.723 -25.916,0.723 z M 86.363,93.933 c 12.196,7.587 42.42,20.149 109.076,20.149 13.857,0 23.778,-0.588 25.561,-0.711 6.76,-15.002 7.176,-32.609 1.121,-49.62 -6.447,-18.207 -19.261,-32.798 -35.096,-40.035 -10.185,-4.621 -21.148,-6.974 -32.571,-6.974 -18.378,0 -33.785,6.269 -38.038,12.317 -0.135,0.191 -0.368,0.258 -0.564,0.191 -5.491,-1.986 -7.629,-7.604 -8.427,-10.583 -0.858,3.187 -2.035,9.915 2.17,13.604 0.166,0.148 0.239,0.392 0.166,0.6 -0.104,0.221 -0.282,0.356 -0.521,0.319 -5.314,-0.38 -8.781,-2.985 -10.253,-4.327 0,2.279 0.662,7.624 6.784,10.945 0.153,0.086 0.251,0.245 0.251,0.417 0.031,0.19 -0.043,0.368 -0.177,0.472 -20.217,15.645 -19.61,49.816 -19.482,53.236 z"
   id="path23" />
			</g>
			<g
   id="g24">
				<path
   style="fill:#300100"
   d="m 205.134,35.788 c 22.423,30.69 1.992,36.965 -10.786,17.76 -11.944,-13.618 -26.229,-5.596 -34.526,3.143 -8.31,8.739 -7.985,-15.02 -24.556,-15.363 -25.229,-1.047 -30.891,34.919 -36.53,28.637 -5.638,-6.293 2.317,-25.145 18.256,-31.443 -10.302,0.631 -15.738,-5.332 -18.464,-10.235 -0.105,1.899 0.104,8.237 7.011,11.994 -21.651,16.76 -19.66,53.959 -19.66,53.959 41.573,26.192 135.464,19.647 135.464,19.647 11.98,-26.279 3.468,-58.574 -16.209,-78.099 z"
   id="path24" />
			</g>
			<g
   id="g26">
				<path
   style="fill:#fccaa1"
   d="m 69.094,107.783 c -0.055,0.098 -6.287,-6.018 -6.582,-6.429 -4.013,-5.264 -6.918,-12.103 -6.74,-18.937 0.233,-8.426 3.524,-17.581 11.098,-21.393 6.079,-3.052 13.899,-2.201 19.366,1.985 7.212,5.503 11.79,21.351 11.405,31.952 -0.001,0.001 -21.873,-4.263 -28.547,12.822 z"
   id="path25" />
				<path
   style="fill:#dd692f"
   d="m 69.094,108.383 c -0.588,0 -6.992,-6.587 -7.022,-6.655 C 57.542,95.771 55,88.723 55.195,82.387 c 0.221,-7.918 3.334,-17.833 11.424,-21.909 2.452,-1.237 5.283,-1.881 8.163,-1.881 4.308,0 8.487,1.398 11.802,3.916 7.354,5.638 12.017,21.639 11.62,32.48 l -0.031,0.692 -0.631,-0.117 c -0.031,-0.018 -2.439,-0.472 -5.815,-0.472 -6.392,0 -17.717,1.679 -22.098,12.906 l -0.16,0.38 h -0.375 z m 5.688,-48.578 c -2.702,0 -5.363,0.618 -7.66,1.77 -7.618,3.837 -10.583,13.287 -10.792,20.861 -0.147,6.048 2.243,12.796 6.643,18.544 0.325,0.411 4.412,4.412 5.889,5.823 4.842,-11.209 16.35,-12.906 22.865,-12.906 2.463,0 4.412,0.221 5.355,0.367 C 97.26,83.748 92.818,68.784 85.911,63.501 82.79,61.123 78.838,59.805 74.782,59.805 Z"
   id="path26" />
			</g>
			<path
   style="fill:#faaa74"
   d="m 87.179,73.146 c 0,0 -8.518,-12.483 -18.66,-9.529 -10.136,2.953 -11.539,21.111 -5.399,30.867 3.144,4.425 7.012,0 10.154,-4.418 3.114,-4.431 4.308,-4.774 7.452,-3.408 3.113,1.355 14.009,-1.93 6.453,-13.512 z"
   id="path27" />
			<path
   style="fill:#e28f63"
   d="m 65.215,68.544 c 0,0 -4.442,5.233 -3.07,15.467 2.023,9.236 7.513,8.684 9.726,5.007 2.452,-4.229 4.234,-6.453 8.267,-4.67 4.002,1.777 8.77,-3.002 5.576,-9.125 C 82.558,69.101 71.355,60.65 65.215,68.544 Z"
   id="path28" />
			<g
   id="g35">
				<g
   id="g31">
					<g
   id="g30">
						<path
   style="fill:#fccaa1"
   d="m 218.199,122.331 c 13.825,4.246 26.713,-14.285 30.475,-26.449 2.127,-6.821 4.443,-14.708 -3.75,-22.454 -1.018,-0.968 -3.187,-2.457 -5.044,-3.327 -11.663,-5.534 -21.253,2.813 -27.424,12.115 -6.17,9.303 -9.848,19.488 -5.301,28.986 1.863,3.903 3.855,8.224 10.7,10.988 0.136,0.055 0.209,0.079 0.344,0.141 z"
   id="path29" />
						<path
   style="fill:#dd692f"
   d="m 222.299,123.532 v 0 c -1.428,0 -2.85,-0.214 -4.247,-0.643 l -0.386,-0.165 c -6.999,-2.801 -9.094,-7.219 -10.951,-11.116 l -0.074,-0.135 c -4.002,-8.426 -2.274,-18.116 5.356,-29.593 4.284,-6.453 11.306,-14.138 20.425,-14.138 2.555,0 5.141,0.613 7.691,1.819 1.967,0.926 4.18,2.471 5.197,3.439 8.549,8.077 5.975,16.387 3.91,23.067 -3.45,11.079 -14.359,27.465 -26.921,27.465 z m 10.124,-54.614 c -8.646,0 -15.376,7.408 -19.513,13.629 -7.359,11.104 -9.106,20.382 -5.282,28.398 l 0.092,0.135 c 1.857,3.891 3.763,7.917 10.344,10.565 l 0.313,0.122 c 1.268,0.398 2.592,0.6 3.922,0.6 7.103,0 20.204,-8.481 25.842,-26.67 2.071,-6.679 4.443,-14.26 -3.567,-21.829 -0.974,-0.894 -3.057,-2.365 -4.914,-3.248 -2.439,-1.126 -4.86,-1.702 -7.237,-1.702 z"
   id="path30" />
					</g>
				</g>
				<path
   style="fill:#faaa74"
   d="m 224.99,81.211 c -3.5,3.248 -11.632,14.652 -5.742,18.935 1.323,0.981 2.978,0.699 4.516,0.283 3.512,-0.956 0.987,5.436 1.398,8.983 0.429,4.204 5.362,4.462 8.579,1.717 6.729,-5.737 15.732,-20.015 11.852,-29.906 -1.624,-4.13 -5.479,-5.835 -8.751,-5.723 -1.599,0.048 -3.825,0.686 -5.301,1.25 -2.348,0.906 -4.516,2.524 -6.551,4.461 z"
   id="path31" />
				<g
   id="g34">
					<path
   style="fill:#e28f63"
   d="m 221.901,98.847 c 0,0 6.778,-3.161 4.976,3.628 -1.845,6.791 1.403,12.336 8.929,3.652 7.495,-8.677 11.84,-29.482 -2.409,-24.022 -14.211,5.467 -16.098,17.986 -11.496,16.742 z"
   id="path32" />
					<path
   style="fill:#d46e43"
   d="m 224.426,87.743 c -4.235,4.137 -5.417,8.64 -4.413,10.417 -1.005,-1.777 0.178,-6.28 4.413,-10.417 z m 0.012,-0.036 c -0.012,0.012 -0.012,0.012 -0.012,0.024 0,-0.012 0,-0.012 0.012,-0.024 z m 7.28,-4.89 c -2.169,0.993 -4.032,2.162 -5.595,3.394 0.312,0.026 0.619,0.062 0.932,0.123 1.017,0.165 2.108,0.515 3.26,1.06 6.76,3.266 5.124,18.115 0,23.012 -0.533,0.165 -1.047,0.202 -1.476,0.122 -1.784,-0.306 -2.629,-2.482 -2.451,-5.283 -0.056,0.858 0,1.673 0.122,2.379 0.307,1.593 1.103,2.708 2.329,2.916 1.446,0.245 3.511,-0.722 6.14,-3.529 4.308,-6.987 5.607,-19.329 -0.631,-22.969 -0.89,-0.539 -1.76,-0.926 -2.63,-1.225 z"
   id="path33" />
					<path
   style="fill:#c7552d"
   d="m 227.055,86.334 c -0.313,-0.061 -0.619,-0.098 -0.932,-0.123 -0.607,0.491 -1.164,0.993 -1.685,1.496 -0.012,0.012 -0.012,0.012 -0.012,0.024 0,0 0,0 0,0.013 -4.235,4.137 -5.417,8.64 -4.413,10.417 v 0 c 0,0.013 0,0.013 0,0.013 v 0.013 0 c 0.221,0.403 0.557,0.661 0.987,0.723 0.282,0.037 0.564,0.025 0.901,-0.062 v 0 c 0,0 2.041,-0.943 3.573,-0.686 0,0 0,0 0.013,0 v 0 0 0 c 1.255,0.227 2.2,1.263 1.39,4.314 -0.269,0.956 -0.442,1.901 -0.49,2.77 -0.178,2.801 0.668,4.977 2.451,5.283 0.429,0.079 0.943,0.043 1.476,-0.122 5.124,-4.897 6.76,-19.745 0,-23.012 -1.151,-0.547 -2.242,-0.896 -3.259,-1.061 z"
   id="path34" />
				</g>
				<path
   style="fill:#fdd8b6"
   d="m 228.458,71.21 c 7.82,-2.575 16.265,2.304 18.538,7.108 0.025,0.098 -0.018,0.221 -0.104,0.147 -5.638,-4.142 -10.866,-6.649 -17.803,-4.675 -5.503,1.562 -9.284,6.317 -12.471,11.11 -2.984,4.455 -3.929,0.815 -3.805,0.496 2.42,-5.73 9.13,-12.048 15.645,-14.186 z"
   id="path35" />
			</g>
			<g
   id="g37"
   transform="translate(-0.21810172,-2.54452)">
				<path
   style="fill:#fbcaa2"
   d="m 102.052,95.465 c 0,0 -21.915,-13.973 -32.204,3.836 -10.27,17.815 13.966,59.382 60.443,69.157 11.068,6.343 20.56,5.583 29.532,2.445 21.596,5.233 60.087,-1.047 67.41,-45.41 2.316,-16.068 -13.298,-25.493 -25.242,-24.451 0,0 0.368,-46.537 -21.963,-50.84 -16.223,-2.071 -27.345,25.298 -27.345,25.298 0,0 0.643,-27.774 -19.163,-28.601 -14.934,-0.337 -27.718,23.066 -31.468,48.566 z"
   id="path36" />
				<path
   style="fill:#dd692f"
   d="m 133.195,46.899 c 0.104,0 0.239,0 0.325,0 19.806,0.827 19.163,28.601 19.163,28.601 0,0 10.326,-25.408 25.591,-25.408 0.589,0 1.177,0.037 1.754,0.11 22.331,4.303 21.963,50.84 21.963,50.84 0.594,-0.049 1.213,-0.062 1.845,-0.062 11.631,0 25.579,9.266 23.397,24.513 -5.95,36.071 -32.504,46.966 -53.831,46.966 -4.902,0 -9.547,-0.577 -13.579,-1.557 -4.076,1.434 -8.267,2.359 -12.649,2.359 -5.283,0 -10.859,-1.342 -16.883,-4.805 -46.476,-9.775 -70.713,-51.342 -60.443,-69.157 4.014,-6.943 9.775,-9.045 15.339,-9.045 8.709,0 16.865,5.209 16.865,5.209 3.719,-25.326 16.344,-48.564 31.143,-48.564 z m 0,-1.048 c -15.823,0 -28.085,24.434 -31.891,47.972 -2.671,-1.477 -9.18,-4.615 -16.117,-4.615 -7.072,0 -12.532,3.205 -16.179,9.553 -3.585,6.202 -3.309,15.003 0.766,24.783 6.998,16.791 26.939,38.877 60.161,45.912 5.754,3.273 11.392,4.853 17.238,4.853 4.002,0 8.163,-0.754 12.71,-2.316 4.173,0.986 8.855,1.513 13.518,1.513 12.337,0 24.164,-3.596 33.24,-10.129 11.558,-8.322 18.801,-21.008 21.547,-37.7 0.9,-6.129 -0.631,-11.804 -4.425,-16.449 -4.62,-5.65 -12.459,-9.314 -19.929,-9.314 -0.307,0 -0.589,0.012 -0.87,0.03 -0.043,-3.236 -0.411,-12.967 -2.629,-22.95 -3.616,-16.349 -10.577,-25.977 -20.131,-27.816 l -0.012,-0.018 h -0.031 c -0.637,-0.073 -1.256,-0.11 -1.888,-0.11 -12.219,0 -21.178,15.038 -24.77,22.27 -0.264,-2.696 -0.797,-6.397 -2.046,-10.16 -3.162,-9.658 -9.358,-14.965 -17.908,-15.308 -0.115,-10e-4 -0.219,-10e-4 -0.354,-10e-4 z"
   id="path37" />
			</g>
			
			<g
   id="g40">
				<path
   style="fill:#fbcaa2"
   d="m 49.276,203.554 c 0,0 5.815,4.412 6.067,8.824 0.276,4.419 0.986,9.02 4.277,12.967 3.321,3.928 2.335,7.311 -2.494,6.656 -4.823,-0.662 -5.074,-5.711 -6.864,-8.813 -1.783,-3.1 -6.698,-4.044 -10.008,-2.352 -3.29,1.691 -4.546,9.848 -2.505,16.043 2.065,6.202 -0.252,7.894 -2.568,8.089 -2.335,0.184 -5.282,-1.606 -6.717,-7.709 -3.364,0.283 -6.864,-4.884 -7.292,-9.001 -1.354,-0.295 -2.066,-2.531 -2.066,-2.531 0,0 -0.588,1.826 -2.505,0.937 -3.058,-1.452 -4.431,-10.621 0.055,-19.126 4.462,-8.519 13.182,-8.519 19.66,-12.049 6.482,-3.542 8.841,-1.936 12.96,8.065 z"
   id="path39" />
				<path
   style="fill:#dd692f"
   d="m 41.376,193.774 c 3.07,0 5.08,2.904 7.899,9.78 0,0 5.815,4.412 6.067,8.824 0.276,4.419 0.986,9.02 4.277,12.967 3.04,3.603 2.451,6.729 -1.342,6.729 -0.368,0 -0.735,-0.005 -1.152,-0.073 -4.823,-0.662 -5.074,-5.711 -6.864,-8.813 -1.194,-2.083 -3.805,-3.186 -6.343,-3.186 -1.299,0 -2.567,0.27 -3.665,0.834 -3.29,1.691 -4.546,9.848 -2.505,16.043 2.065,6.202 -0.252,7.894 -2.568,8.089 -0.104,0.013 -0.239,0.013 -0.343,0.013 -2.274,0 -5.001,-1.9 -6.374,-7.722 -0.073,0.013 -0.178,0.013 -0.251,0.013 -3.322,0 -6.613,-5.001 -7.042,-9.014 -1.354,-0.295 -2.066,-2.531 -2.066,-2.531 0,0 -0.385,1.176 -1.537,1.176 -0.246,0 -0.589,-0.074 -0.968,-0.239 -3.058,-1.452 -4.431,-10.621 0.055,-19.126 4.462,-8.519 13.182,-8.519 19.66,-12.049 2.022,-1.115 3.665,-1.715 5.062,-1.715 z m 0,-1.055 v 0 c -1.502,0 -3.217,0.564 -5.516,1.827 -1.893,1.029 -3.958,1.753 -6.14,2.513 -5.24,1.801 -10.614,3.664 -13.935,9.97 -3.512,6.686 -3.438,13.244 -2.305,16.827 0.595,1.907 1.538,3.206 2.715,3.757 0.491,0.214 0.95,0.331 1.373,0.331 0.533,0 0.95,-0.147 1.299,-0.355 0.343,0.533 0.796,1.084 1.39,1.421 0.705,4.155 3.941,8.855 7.44,9.278 1.887,6.955 5.589,7.734 7.139,7.734 0.135,0 0.282,0 0.417,-0.013 1.58,-0.135 2.8,-0.821 3.542,-1.998 1.017,-1.654 0.987,-4.179 -0.104,-7.476 -1.992,-6.054 -0.564,-13.446 1.992,-14.757 0.943,-0.478 2.035,-0.73 3.235,-0.73 2.39,0 4.56,1.048 5.473,2.672 0.441,0.747 0.797,1.661 1.151,2.628 1.048,2.74 2.348,6.135 6.447,6.693 0.448,0.06 0.877,0.098 1.287,0.098 2.672,0 3.647,-1.36 4.002,-2.158 0.735,-1.71 0.031,-4.014 -1.918,-6.336 -3.101,-3.72 -3.769,-8.132 -4.033,-12.329 -0.251,-4.376 -5.123,-8.524 -6.245,-9.438 -2.724,-6.58 -4.943,-10.159 -8.706,-10.159 z"
   id="path40" />
			</g>
			<g
   id="g41">
				<path
   style="fill:#faaa74"
   d="m 59.62,225.346 c -3.291,-3.947 -4.001,-8.549 -4.277,-12.967 -0.252,-4.412 -6.067,-8.824 -6.067,-8.824 -4.118,-10.001 -6.478,-11.607 -12.961,-8.065 -1.655,0.895 -3.438,1.569 -5.271,2.213 -0.178,2.457 6.349,-0.202 6.245,1.085 -0.13,1.544 -1.826,5.154 1.09,4.253 2.972,-0.896 5.037,-2.44 5.54,-0.638 0.472,1.796 0.987,5.024 1.594,2.831 0.619,-2.193 1.593,0 4.896,2.843 3.292,2.832 3.678,5.54 1.716,8.764 -1.967,3.217 -4.547,1.544 -9.805,1.789 -5.251,0.264 -7.096,4.511 -7.347,9.548 -0.252,5.012 -4.903,5.405 -5.252,-1.286 -0.386,-6.711 6.729,-13.275 6.729,-13.275 0,0 -0.87,0.509 -3.793,2.697 -2.936,2.188 -4.781,5.154 -6.613,3.352 -1.863,-1.807 -0.637,-3.474 2.806,-8.855 -3.677,2.997 -5.993,5.896 -7.837,4.095 -1.833,-1.815 1.323,-5.675 4.394,-9.407 -4.29,1.93 -6.992,7.225 -8.187,6.821 -1.759,-0.576 0.117,-6.135 3.186,-9.499 -1.433,1.201 -2.702,2.721 -3.75,4.719 -4.486,8.505 -3.113,17.673 -0.055,19.126 1.918,0.889 2.505,-0.937 2.505,-0.937 0,0 0.712,2.236 2.066,2.531 0.429,4.118 3.929,9.284 7.292,9.001 1.434,6.104 4.382,7.894 6.717,7.709 2.317,-0.195 4.633,-1.887 2.568,-8.089 -2.041,-6.195 -0.785,-14.352 2.505,-16.043 3.31,-1.691 8.225,-0.748 10.008,2.352 1.789,3.102 2.041,8.151 6.864,8.813 4.829,0.653 5.815,-2.73 2.494,-6.657 z"
   id="path41" />
			</g>
			<g
   id="g44">
				<path
   style="fill:#dd692f"
   d="m 19.106,225.726 c 0,0 -0.208,-0.288 -0.49,-0.81 -0.275,-0.526 -0.692,-1.299 -1.017,-2.297 -0.177,-0.496 -0.337,-1.036 -0.453,-1.637 -0.092,-0.294 -0.104,-0.6 -0.165,-0.925 -0.043,-0.312 -0.074,-0.643 -0.074,-0.98 -0.03,-0.319 -0.043,-0.668 -0.03,-1.024 0.03,-0.343 0.03,-0.692 0.104,-1.042 0.104,-0.712 0.282,-1.41 0.546,-2.084 l 0.429,-0.993 c 0.208,-0.294 0.386,-0.6 0.564,-0.894 0.411,-0.608 0.808,-1.067 1.195,-1.582 0.797,-0.98 1.532,-1.912 2.2,-2.671 0.307,-0.392 0.6,-0.742 0.882,-1.048 0.282,-0.313 0.564,-0.552 0.766,-0.754 0.447,-0.417 0.668,-0.625 0.668,-0.625 0,0 -0.178,0.282 -0.533,0.76 -0.166,0.245 -0.387,0.508 -0.588,0.858 -0.221,0.367 -0.491,0.747 -0.773,1.183 -0.526,0.863 -1.195,1.845 -1.931,2.874 -0.355,0.509 -0.765,1.066 -1.09,1.58 -0.165,0.27 -0.343,0.553 -0.49,0.822 l -0.38,0.882 c -0.239,0.6 -0.417,1.219 -0.521,1.85 -0.104,0.631 -0.177,1.275 -0.147,1.894 -0.03,0.307 0,0.619 0.03,0.913 0.013,0.295 0.013,0.589 0.074,0.87 0.043,0.577 0.147,1.116 0.251,1.612 0.239,0.993 0.46,1.807 0.663,2.379 0.176,0.565 0.31,0.889 0.31,0.889 z"
   id="path42" />
				<path
   style="fill:#dd692f"
   d="m 21.171,228.257 c 0,0 -0.159,-0.295 -0.282,-0.834 -0.074,-0.264 -0.129,-0.607 -0.178,-0.987 -0.055,-0.392 -0.086,-0.833 -0.086,-1.323 0,-0.478 0.062,-1.005 0.135,-1.551 0.074,-0.558 0.202,-1.115 0.356,-1.703 0.172,-0.57 0.337,-1.183 0.588,-1.747 0.234,-0.594 0.484,-1.182 0.797,-1.728 0.282,-0.582 0.607,-1.115 0.943,-1.642 0.325,-0.52 0.681,-1.016 1.036,-1.471 0.368,-0.478 0.692,-0.931 1.048,-1.318 0.349,-0.386 0.722,-0.754 1.017,-1.103 0.65,-0.668 1.281,-1.14 1.667,-1.501 0.398,-0.343 0.637,-0.54 0.637,-0.54 0,0 -0.177,0.257 -0.52,0.686 -0.325,0.43 -0.809,1.018 -1.343,1.753 -0.281,0.38 -0.557,0.785 -0.869,1.201 -0.325,0.411 -0.607,0.895 -0.944,1.367 -0.325,0.46 -0.607,0.962 -0.912,1.489 -0.344,0.496 -0.638,1.018 -0.902,1.569 -0.3,0.539 -0.533,1.091 -0.753,1.642 -0.27,0.533 -0.472,1.078 -0.65,1.617 -0.178,0.552 -0.356,1.072 -0.46,1.588 -0.117,0.508 -0.221,0.993 -0.282,1.452 -0.306,1.821 -0.043,3.084 -0.043,3.084 z"
   id="path43" />
				<path
   style="fill:#dd692f"
   d="m 28.464,237.258 c 0,0 -0.104,-0.385 -0.239,-1.084 -0.086,-0.705 -0.349,-1.686 -0.472,-2.911 -0.086,-0.607 -0.159,-1.262 -0.233,-1.961 -0.104,-0.686 -0.135,-1.421 -0.147,-2.188 -0.062,-0.766 -0.074,-1.556 -0.135,-2.359 0.031,-0.484 0.061,-0.821 0.073,-1.25 0.062,-0.405 0.031,-0.791 0.166,-1.22 l 0.294,-1.281 c 0.129,-0.399 0.368,-0.773 0.514,-1.146 l 0.252,-0.57 0.356,-0.49 c 0.233,-0.343 0.472,-0.661 0.692,-0.968 0.515,-0.564 1.005,-1.141 1.508,-1.582 0.484,-0.471 0.974,-0.919 1.428,-1.292 0.889,-0.766 1.655,-1.367 2.2,-1.808 0.534,-0.435 0.858,-0.674 0.858,-0.674 0,0 -1.048,1.225 -2.672,2.941 -0.441,0.417 -0.839,0.9 -1.299,1.397 -0.46,0.478 -0.87,1.055 -1.36,1.606 -0.203,0.295 -0.38,0.608 -0.589,0.92 l -0.294,0.465 -0.209,0.509 c -0.159,0.338 -0.337,0.668 -0.441,1.036 l -0.282,1.066 c -0.117,0.356 -0.104,0.785 -0.148,1.189 -0.03,0.373 -0.073,0.846 -0.073,1.152 0,0.796 0.012,1.569 0.012,2.316 0.031,0.76 -0.012,1.495 0.031,2.194 0.03,0.68 0.061,1.336 0.061,1.941 0.075,2.429 0.148,4.052 0.148,4.052 z"
   id="path44" />
			</g>
			<g
   id="g46">
				<path
   style="fill:#fbcaa2"
   d="m 96.812,320.571 c 0,0 1.256,9.61 -5.222,23.22 -6.453,13.622 -10.791,19.396 -10.791,19.396 0,0 -2.654,-1.759 -4.131,0.349 -1.507,2.096 0.484,6.275 3.469,5.754 1.36,3.316 4.486,3.492 6.478,2.617 0.668,1.746 4.313,1.569 5.638,0.699 1.507,2.635 5.153,2.286 6.336,0.87 2.978,2.801 14.683,5.503 19.659,-9.683 3.721,-14.15 3.243,-21.742 1.471,-39.822 -0.22,-8.635 4.756,-12.048 0.27,-18.077 -4.504,-6.018 -11.944,-6.018 -26.639,2.892 0,10e-4 3.241,5.229 3.462,11.785 z"
   id="path45" />
				<path
   style="fill:#dd692f"
   d="m 111.692,301.685 c 3.646,0 6.275,1.489 8.297,4.21 4.486,6.03 -0.49,9.443 -0.27,18.077 1.772,18.079 2.25,25.672 -1.471,39.822 -3.045,9.254 -8.579,11.858 -13.096,11.858 -2.904,0 -5.398,-1.073 -6.563,-2.175 -0.564,0.661 -1.643,1.091 -2.795,1.091 -1.324,0 -2.727,-0.564 -3.542,-1.961 -0.589,0.404 -1.65,0.65 -2.697,0.65 -1.286,0 -2.556,-0.38 -2.941,-1.349 -0.619,0.282 -1.373,0.46 -2.139,0.46 -1.667,0 -3.426,-0.808 -4.339,-3.077 -0.147,0.031 -0.337,0.043 -0.515,0.043 -2.672,0 -4.357,-3.83 -2.954,-5.797 0.558,-0.791 1.269,-1.036 1.962,-1.036 1.151,0 2.17,0.686 2.17,0.686 0,0 4.338,-5.773 10.791,-19.396 6.478,-13.61 5.222,-23.22 5.222,-23.22 -0.221,-6.556 -3.463,-11.784 -3.463,-11.784 8.059,-4.896 13.961,-7.102 18.343,-7.102 z m 0,-1.042 c -4.646,0 -10.817,2.359 -18.845,7.237 l -0.9,0.539 0.557,0.926 c 0.03,0.055 3.088,5.104 3.322,11.263 v 0.056 l 0.03,0.055 c 0,0.08 1.09,9.48 -5.136,22.606 -5.154,10.792 -8.928,16.65 -10.228,18.532 -0.491,-0.202 -1.152,-0.404 -1.863,-0.404 -1.122,0 -2.097,0.496 -2.758,1.453 -0.888,1.251 -0.962,3.039 -0.178,4.712 0.809,1.673 2.274,2.721 3.855,2.758 1.017,1.931 2.789,3.039 4.927,3.039 0.576,0 1.195,-0.098 1.759,-0.257 0.692,0.735 1.857,1.146 3.321,1.146 0.839,0 1.697,-0.141 2.39,-0.392 0.912,1.086 2.297,1.704 3.848,1.704 1.047,0 2.04,-0.294 2.806,-0.797 1.459,1.012 3.837,1.882 6.551,1.882 3.708,0 10.437,-1.624 14.04,-12.563 v -0.038 -0.025 c 3.824,-14.401 3.26,-22.251 1.532,-40.164 -0.073,-3.248 0.607,-5.737 1.226,-7.93 0.986,-3.591 1.832,-6.674 -1.183,-10.725 -2.315,-3.112 -5.281,-4.613 -9.073,-4.613 z"
   id="path46" />
			</g>
			<g
   id="g47">
				<path
   style="fill:#faaa74"
   d="m 116.668,363.715 c -5.313,11.527 -17.27,7.672 -13.948,3.836 3.334,-3.836 6.318,0.699 8.635,-1.752 8.291,-15.364 -0.993,-38.418 -2.317,-41.917 -1.329,-3.487 -3.322,-10.461 -0.668,-14.665 3.751,-7.452 9.314,-4.302 12.961,-0.944 -0.294,-0.766 -0.735,-1.544 -1.342,-2.378 -4.504,-6.018 -11.944,-6.018 -26.639,2.892 0,0 3.242,5.228 3.463,11.784 0,0 1.256,9.61 -5.222,23.22 -6.453,13.622 -10.791,19.396 -10.791,19.396 0,0 -2.654,-1.759 -4.131,0.349 -1.507,2.096 0.484,6.275 3.469,5.754 1.36,3.316 4.486,3.492 6.478,2.617 0.668,1.746 4.313,1.569 5.638,0.699 1.507,2.635 5.153,2.286 6.336,0.87 2.978,2.801 14.683,5.503 19.659,-9.683 3.721,-14.15 3.243,-21.742 1.471,-39.822 -0.012,-1.483 0.092,-2.812 0.283,-4.025 -0.117,0.244 -0.252,0.496 -0.356,0.79 -2.654,7.692 2.321,31.451 -2.979,42.979 z"
   id="path47" />
			</g>
			<g
   id="g49">
				<path
   style="fill:#6e150c"
   d="m 78.274,255.19 c 0,0 -23.244,35.439 -23.066,51.539 0,14.401 11.894,14.585 23.422,12.887 11.527,-1.703 17.091,0.564 19.439,3.597 1.091,1.14 -1.256,-4.921 -1.256,-4.921 l 3.781,0.95 c 0,0 0.178,-1.9 -2.348,-3.603 5.406,1.128 6.656,-1.514 -0.355,-6.251 5.761,-2.279 5.761,-2.279 5.761,-2.279 0,0 -2.158,-2.844 -8.285,-0.748 4.345,-5.883 3.591,-6.698 2.879,-6.447 -6.477,2.268 -10.963,3.787 -17.826,3.591 -4.841,0 -5.037,-0.368 -1.967,-5.294 3.058,-4.94 13.495,-17.245 20.505,-22.558 -0.001,-0.001 -9.181,-1.698 -20.684,-20.463 z"
   id="path48" />
				<path
   style="fill:#300100"
   d="m 98.276,323.881 c -0.239,0 -0.442,-0.16 -0.564,-0.294 -1.428,-1.869 -4.615,-4.027 -11.864,-4.027 -2.138,0 -4.559,0.19 -7.176,0.577 -3.377,0.496 -6.092,0.735 -8.542,0.735 -10.375,0 -15.425,-4.627 -15.425,-14.143 -0.178,-16.068 22.184,-50.375 23.158,-51.833 l 0.41,-0.65 0.399,0.661 c 11.281,18.36 20.284,20.223 20.388,20.235 l 1.146,0.215 -0.943,0.729 c -7.158,5.417 -17.521,17.772 -20.413,22.405 -0.809,1.318 -2.182,3.529 -1.931,4.044 0.251,0.453 2.304,0.453 3.499,0.453 0.411,0.013 0.766,0.013 1.152,0.013 5.987,0 10.166,-1.373 16.527,-3.58 0.46,-0.183 0.913,0 1.091,0.392 0.147,0.343 0.564,1.202 -2.524,5.615 0.993,-0.239 1.936,-0.356 2.806,-0.356 3.248,0 4.516,1.642 4.559,1.71 l 0.442,0.557 -5.485,2.169 c 2.341,1.692 4.664,3.837 4.192,5.534 -0.178,0.625 -0.803,1.379 -2.721,1.379 -0.179,0 -0.35,0 -0.558,-0.019 1.312,1.464 1.207,2.807 1.182,2.887 l -0.061,0.594 -3.382,-0.845 c 1.476,3.989 1.244,4.368 1.097,4.577 L 98.6,323.854 Z M 85.848,318.5 c 6.405,0 9.843,1.68 11.706,3.396 -0.295,-0.951 -0.754,-2.255 -1.195,-3.408 l -0.387,-0.937 4.033,1.004 c -0.177,-0.607 -0.668,-1.556 -2.01,-2.482 l -2.231,-1.489 2.587,0.533 c 2.108,0.441 3.701,0.258 3.878,-0.373 0.148,-0.564 -0.65,-2.243 -4.589,-4.915 l -0.839,-0.577 5.888,-2.322 c -0.588,-0.374 -1.606,-0.815 -3.217,-0.815 -1.164,0 -2.494,0.244 -3.952,0.735 l -1.538,0.527 1.005,-1.349 c 2.702,-3.689 3.218,-5.105 3.291,-5.565 -6.79,2.367 -11.129,3.744 -17.858,3.573 v 0 c -2.598,0 -3.916,-0.091 -4.369,-1.011 -0.472,-0.95 0.264,-2.359 1.962,-5.111 2.818,-4.511 12.636,-16.276 19.849,-22.049 -2.697,-0.981 -10.357,-4.915 -19.611,-19.721 -3.143,4.878 -22.705,36.009 -22.551,50.583 0,8.94 4.59,13.101 14.433,13.101 2.408,0 5.08,-0.244 8.426,-0.735 2.638,-0.39 5.09,-0.593 7.289,-0.593 z"
   id="path49" />
			</g>
			<g
   style="opacity:0.5"
   id="g50">
				<path
   style="fill:#300100"
   d="m 97.891,309.388 c 5.761,-2.279 5.761,-2.279 5.761,-2.279 0,0 -2.158,-2.844 -8.285,-0.748 4.345,-5.883 3.591,-6.698 2.879,-6.447 -6.477,2.268 -10.963,3.787 -17.826,3.591 -4.841,0 -5.037,-0.368 -1.967,-5.294 3.058,-4.94 13.495,-17.245 20.505,-22.558 0,0 -9.18,-1.697 -20.683,-20.462 0,0 -8.249,12.532 -14.842,26.082 h 0.025 c 0,0 9.228,-18.864 14.689,-15.186 5.492,3.665 3.248,15.713 -2.984,25.401 -6.226,9.701 -8.709,21.756 -14.181,21.216 -5.491,-0.527 -4.976,-12.036 -4.976,-12.036 l -0.03,-0.018 c -0.503,2.219 -0.779,4.277 -0.766,6.08 0,14.401 11.894,14.585 23.422,12.887 11.527,-1.703 17.091,0.564 19.439,3.597 1.091,1.14 -1.256,-4.921 -1.256,-4.921 l 3.781,0.95 c 0,0 0.178,-1.9 -2.348,-3.603 5.403,1.127 6.653,-1.516 -0.357,-6.252 z"
   id="path50" />
			</g>
			<g
   id="g52">
				<path
   style="fill:#fbcaa2"
   d="m 205.753,327.772 c 0,0 0.472,12.6 11.809,9.15 11.32,-3.445 18.213,-7.416 22.772,-12.771 4.591,-5.345 6.41,-7.25 9.376,-5.516 2.948,1.723 2.776,6.901 2.776,6.901 0,0 4.59,1.55 1.962,7.593 2.8,-0.178 3.438,4.137 0.325,7.415 2.151,0.687 1.329,4.835 -1.299,6.201 2.304,2.262 -1.655,5.706 -4.591,5.001 -2.286,3.456 -8.696,4.326 -14.26,3.456 -6.404,-0.686 -23.464,7.427 -31.983,8.279 -9.665,2.255 -15.897,1.557 -18.035,-6.9 -2.157,-8.451 4.252,-12.409 5.405,-15.872 1.147,-3.443 0.484,-11.202 0.484,-11.202 0,0 4.443,-7.073 15.259,-1.735 z"
   id="path51" />
				<path
   style="fill:#dd692f"
   d="m 247.719,318.017 c 0.631,0 1.269,0.195 1.992,0.619 2.948,1.723 2.776,6.901 2.776,6.901 0,0 4.59,1.55 1.962,7.593 0.042,0 0.134,-0.013 0.177,-0.013 2.654,0 3.218,4.21 0.148,7.427 2.151,0.687 1.329,4.835 -1.299,6.201 2.096,2.053 -0.987,5.099 -3.794,5.099 -0.252,0 -0.546,-0.018 -0.797,-0.098 -1.758,2.653 -5.919,3.781 -10.258,3.781 -1.341,0 -2.702,-0.111 -4.002,-0.325 -0.275,-0.031 -0.558,-0.043 -0.839,-0.043 -6.937,0 -22.969,7.507 -31.143,8.322 -2.966,0.693 -5.596,1.104 -7.881,1.104 -5.209,0 -8.677,-2.12 -10.154,-8.004 -2.157,-8.451 4.252,-12.409 5.405,-15.872 1.147,-3.443 0.484,-11.202 0.484,-11.202 0,0 2.346,-3.732 7.746,-3.732 2.053,0 4.547,0.538 7.513,1.997 0,0 0.374,9.744 8.163,9.744 1.067,0 2.292,-0.171 3.646,-0.594 11.32,-3.445 18.213,-7.416 22.772,-12.771 3.498,-4.069 5.385,-6.134 7.383,-6.134 z m 0,-1.049 c -2.421,0 -4.442,2.218 -8.089,6.484 -4.578,5.301 -11.454,9.136 -22.349,12.465 -1.195,0.361 -2.348,0.557 -3.365,0.557 -6.74,0 -7.139,-8.377 -7.17,-8.738 l -0.03,-0.638 -0.534,-0.263 c -2.831,-1.398 -5.491,-2.108 -7.942,-2.108 -5.889,0 -8.456,4.026 -8.555,4.203 l -0.208,0.301 0.03,0.361 c 0.013,0.073 0.631,7.574 -0.447,10.78 -0.276,0.833 -0.986,1.814 -1.826,2.941 -2.2,2.966 -5.239,7.048 -3.603,13.544 1.508,5.974 5.05,8.775 11.129,8.775 2.181,0 4.811,-0.361 8.028,-1.103 4.002,-0.417 9.775,-2.359 15.339,-4.229 5.988,-2.016 12.159,-4.093 15.658,-4.093 0.252,0 0.514,0.012 0.711,0.042 1.355,0.215 2.758,0.325 4.13,0.325 4.903,0 8.751,-1.341 10.7,-3.695 0.104,0.013 0.221,0.013 0.356,0.013 2.181,0 4.529,-1.545 5.251,-3.432 0.313,-0.846 0.282,-1.679 -0.055,-2.432 1.532,-1.287 2.224,-3.31 2.096,-4.811 -0.049,-0.742 -0.313,-1.391 -0.711,-1.869 1.685,-2.249 1.887,-4.669 1.268,-6.214 -0.356,-0.858 -0.943,-1.489 -1.71,-1.82 0.588,-1.832 0.588,-3.462 0,-4.854 -0.576,-1.422 -1.655,-2.212 -2.347,-2.61 -0.074,-1.618 -0.534,-5.51 -3.292,-7.127 -0.858,-0.509 -1.684,-0.755 -2.463,-0.755 z"
   id="path52" />
			</g>
			<g
   id="g53">
				<path
   style="fill:#faaa74"
   d="m 254.773,340.543 c 3.113,-3.278 2.475,-7.593 -0.325,-7.415 2.629,-6.043 -1.962,-7.593 -1.962,-7.593 0,0 0,-0.27 0,-0.687 -0.9,2.316 -2.219,4.234 -4.272,5.675 -2.978,2.096 -3.744,0.527 -1.752,8.384 2.022,7.85 -2.213,16.497 -5.21,9.167 -3.015,-7.335 -5.228,2.096 -13.948,1.826 -8.726,-0.257 -8.224,-4.443 -20.179,1.58 -11.938,6.031 -19.923,1.049 -15.186,-6.287 4.725,-7.335 10.718,-9.161 13.709,-7.078 2.984,2.096 6.955,2.887 18.158,-0.257 11.233,-3.15 17.196,-9.174 20.916,-15.204 1.697,-2.69 3.492,-3.701 5.001,-4.002 l -0.013,-0.018 c -2.966,-1.733 -4.785,0.172 -9.376,5.516 -4.559,5.356 -11.453,9.326 -22.772,12.771 -11.337,3.45 -11.809,-9.15 -11.809,-9.15 -10.816,-5.338 -15.259,1.734 -15.259,1.734 0,0 0.662,7.759 -0.484,11.202 -1.152,3.463 -7.562,7.421 -5.405,15.872 2.139,8.457 8.371,9.155 18.035,6.9 8.518,-0.851 25.579,-8.965 31.983,-8.279 5.564,0.87 11.975,0 14.26,-3.456 2.936,0.704 6.895,-2.74 4.591,-5.001 2.628,-1.365 3.449,-5.513 1.299,-6.2 z"
   id="path53" />
			</g>
			<g
   id="g58">
				<path
   style="fill:#dd692f"
   d="m 220.516,350.036 c 0,0 0.264,0.036 0.693,0.135 0.429,0.104 1.048,0.195 1.814,0.337 0.742,0.104 1.612,0.251 2.525,0.349 0.49,0.068 0.943,0.091 1.446,0.116 0.49,0.068 0.974,0.037 1.464,0.049 0.496,0.018 0.986,-0.012 1.471,-0.018 0.49,-0.067 0.974,-0.079 1.404,-0.165 0.459,-0.111 0.919,-0.13 1.299,-0.257 0.416,-0.13 0.827,-0.215 1.182,-0.344 0.325,-0.134 0.662,-0.264 0.943,-0.361 0.282,-0.123 0.503,-0.282 0.711,-0.38 0.38,-0.214 0.619,-0.33 0.619,-0.33 0,0 -0.196,0.184 -0.521,0.496 -0.178,0.147 -0.38,0.361 -0.631,0.551 -0.269,0.172 -0.564,0.369 -0.919,0.589 -0.338,0.202 -0.748,0.349 -1.147,0.534 -0.417,0.177 -0.9,0.281 -1.36,0.411 -0.484,0.116 -0.986,0.177 -1.507,0.263 -0.496,0.026 -1.017,0.062 -1.545,0.062 -0.521,-0.026 -1.048,-0.013 -1.538,-0.08 -0.515,-0.049 -1.017,-0.129 -1.507,-0.226 -0.944,-0.172 -1.814,-0.429 -2.549,-0.681 -0.711,-0.257 -1.33,-0.521 -1.729,-0.723 -0.41,-0.191 -0.618,-0.327 -0.618,-0.327 z"
   id="path54" />
				<path
   style="fill:#dd692f"
   d="m 252.486,325.536 c 0.043,0.894 -0.079,1.807 -0.312,2.677 -0.105,0.442 -0.252,0.871 -0.429,1.307 l -0.283,0.612 c -0.104,0.202 -0.233,0.392 -0.348,0.594 -0.105,0.197 -0.239,0.387 -0.387,0.564 -0.135,0.184 -0.263,0.374 -0.416,0.546 l -0.454,0.515 c -0.147,0.172 -0.343,0.307 -0.49,0.454 -0.325,0.325 -0.735,0.569 -1.09,0.821 -0.178,0.135 -0.387,0.214 -0.588,0.337 l -0.595,0.307 0.178,-0.76 c 0.239,0.331 0.46,0.656 0.668,0.999 0.178,0.361 0.38,0.711 0.558,1.078 0.312,0.724 0.594,1.477 0.827,2.237 l 0.282,1.158 0.191,1.164 c 0.134,0.791 0.238,1.569 0.281,2.366 0.062,0.773 0.086,1.563 0.062,2.359 -0.031,0.778 -0.08,1.563 -0.153,2.347 -0.086,0.785 -0.202,1.557 -0.38,2.317 -0.092,0.386 -0.178,0.765 -0.313,1.127 -0.104,0.38 -0.275,0.743 -0.41,1.086 0.074,-0.368 0.179,-0.742 0.234,-1.122 0.073,-0.386 0.122,-0.766 0.147,-1.146 0.104,-0.754 0.135,-1.538 0.165,-2.304 0.013,-0.76 0.013,-1.526 -0.03,-2.285 -0.031,-0.392 -0.061,-0.773 -0.074,-1.159 -0.061,-0.379 -0.061,-0.766 -0.104,-1.14 -0.086,-0.754 -0.233,-1.507 -0.338,-2.255 l -0.22,-1.115 -0.313,-1.103 c -0.208,-0.704 -0.429,-1.422 -0.735,-2.101 -0.135,-0.337 -0.343,-0.65 -0.49,-0.982 -0.178,-0.312 -0.381,-0.606 -0.589,-0.912 l -0.312,-0.527 0.52,-0.232 0.527,-0.264 c 0.208,-0.091 0.386,-0.159 0.564,-0.276 l 0.514,-0.325 c 0.178,-0.104 0.325,-0.245 0.503,-0.361 0.165,-0.135 0.337,-0.239 0.485,-0.387 l 0.46,-0.434 c 0.165,-0.135 0.281,-0.301 0.416,-0.466 0.147,-0.147 0.275,-0.306 0.38,-0.503 0.135,-0.165 0.283,-0.33 0.356,-0.521 l 0.338,-0.545 c 0.208,-0.392 0.386,-0.785 0.564,-1.183 0.29,-0.806 0.529,-1.675 0.633,-2.564 z"
   id="path55" />
				<path
   style="fill:#dd692f"
   d="m 254.49,332.872 c 0,0 -0.042,0.538 -0.294,1.25 -0.282,0.729 -0.797,1.624 -1.507,2.371 -0.178,0.202 -0.38,0.349 -0.588,0.527 -0.178,0.16 -0.417,0.282 -0.607,0.411 -0.441,0.245 -0.87,0.392 -1.256,0.447 -0.202,0.025 -0.38,0.025 -0.527,0.025 -0.165,0.018 -0.282,-0.043 -0.386,-0.049 -0.233,-0.042 -0.337,-0.079 -0.337,-0.079 0,0 0.104,-0.061 0.306,-0.123 0.209,-0.055 0.491,-0.202 0.766,-0.336 0.153,-0.098 0.3,-0.197 0.491,-0.295 0.147,-0.105 0.294,-0.245 0.472,-0.349 0.312,-0.288 0.65,-0.582 0.944,-0.913 0.343,-0.318 0.649,-0.686 0.931,-1.004 0.294,-0.343 0.558,-0.668 0.785,-0.938 0.482,-0.566 0.807,-0.945 0.807,-0.945 z"
   id="path56" />
				<path
   style="fill:#dd692f"
   d="m 254.773,340.543 c 0,0 -0.092,0.392 -0.473,0.84 -0.177,0.226 -0.416,0.471 -0.692,0.686 -0.282,0.208 -0.637,0.38 -0.993,0.52 -0.368,0.104 -0.754,0.202 -1.103,0.172 -0.208,0 -0.356,-0.024 -0.533,-0.068 -0.148,-0.024 -0.313,-0.066 -0.429,-0.134 -0.546,-0.215 -0.798,-0.552 -0.798,-0.539 0,-0.013 0.387,0 0.87,-0.049 0.252,-0.031 0.533,-0.068 0.809,-0.135 0.134,-0.012 0.282,-0.068 0.429,-0.109 0.165,-0.018 0.282,-0.086 0.447,-0.135 0.589,-0.184 1.165,-0.484 1.649,-0.686 0.461,-0.228 0.817,-0.363 0.817,-0.363 z"
   id="path57" />
				<path
   style="fill:#dd692f"
   d="m 253.632,346.708 c 0,0 -0.129,0.294 -0.442,0.552 -0.294,0.282 -0.784,0.533 -1.329,0.649 -0.251,0.03 -0.503,0.098 -0.747,0.061 -0.27,-0.031 -0.491,-0.043 -0.699,-0.117 -0.38,-0.165 -0.619,-0.355 -0.619,-0.355 0,0 0.281,-0.165 0.619,-0.251 0.177,-0.062 0.386,-0.148 0.607,-0.191 0.208,-0.056 0.441,-0.104 0.65,-0.165 0.22,-0.037 0.459,-0.104 0.68,-0.117 0.209,-0.043 0.442,-0.055 0.62,-0.068 0.385,-0.029 0.66,0.002 0.66,0.002 z"
   id="path58" />
			</g>
			<g
   id="g62">
				<path
   style="fill:#dd692f"
   d="m 80.137,369.291 c 0,0 -0.386,-0.478 -0.618,-1.41 -0.043,-0.227 -0.092,-0.496 -0.092,-0.778 -0.024,-0.275 0,-0.6 0.092,-0.912 0.055,-0.16 0.086,-0.319 0.159,-0.478 0.074,-0.148 0.178,-0.295 0.282,-0.441 0.221,-0.264 0.46,-0.558 0.766,-0.704 0.147,-0.08 0.295,-0.161 0.46,-0.227 l 0.459,-0.117 c 0.306,-0.111 0.601,-0.098 0.883,-0.111 0.282,-0.024 0.564,0 0.826,0.049 0.221,0.031 0.485,0.086 0.681,0.122 0.441,0.117 0.766,0.264 1.017,0.349 0.233,0.098 0.368,0.165 0.368,0.165 0,0 -0.589,0.08 -1.428,0.08 -0.208,0.018 -0.429,0.049 -0.668,0.068 -0.233,0 -0.484,0.043 -0.705,0.091 -0.269,0.026 -0.52,0.086 -0.754,0.16 l -0.355,0.11 -0.313,0.178 c -0.086,0.048 -0.19,0.098 -0.275,0.183 -0.074,0.08 -0.178,0.13 -0.226,0.227 -0.074,0.11 -0.13,0.183 -0.202,0.282 -0.043,0.091 -0.104,0.202 -0.148,0.306 -0.073,0.203 -0.165,0.429 -0.177,0.661 -0.062,0.227 -0.062,0.453 -0.092,0.669 -0.013,0.865 0.06,1.478 0.06,1.478 z"
   id="path59" />
				<path
   style="fill:#dd692f"
   d="m 86.615,371.908 c 0,0 -0.429,-0.569 -0.797,-1.648 -0.043,-0.27 -0.147,-0.564 -0.191,-0.889 -0.061,-0.332 -0.091,-0.681 -0.061,-1.06 0,-0.184 0.061,-0.369 0.074,-0.564 0.031,-0.197 0.073,-0.392 0.178,-0.577 0.092,-0.19 0.134,-0.386 0.269,-0.557 l 0.349,-0.503 c 0.123,-0.178 0.313,-0.264 0.46,-0.398 0.147,-0.13 0.313,-0.257 0.485,-0.325 0.355,-0.148 0.68,-0.325 1.047,-0.362 0.325,-0.056 0.668,-0.147 0.962,-0.129 0.312,0 0.619,0.018 0.87,0.049 0.252,0 0.516,0.079 0.712,0.117 0.202,0.042 0.38,0.098 0.546,0.134 0.306,0.086 0.459,0.135 0.459,0.135 0,0 -0.178,0.025 -0.49,0.067 -0.135,0.018 -0.325,0.036 -0.533,0.066 -0.203,0.026 -0.442,0.019 -0.693,0.068 -0.22,0.049 -0.502,0.105 -0.797,0.148 -0.282,0.031 -0.533,0.177 -0.808,0.244 -0.313,0.038 -0.534,0.245 -0.815,0.362 -0.147,0.037 -0.251,0.16 -0.355,0.246 -0.104,0.097 -0.234,0.165 -0.338,0.294 l -0.251,0.343 c -0.074,0.104 -0.135,0.252 -0.209,0.392 -0.128,0.27 -0.177,0.564 -0.251,0.858 -0.025,0.294 -0.074,0.607 -0.074,0.883 0,0.299 0.019,0.576 0.019,0.833 0.104,1.05 0.233,1.773 0.233,1.773 z"
   id="path60" />
				<path
   style="fill:#dd692f"
   d="m 92.253,372.606 c 0,0 -0.381,-0.778 -0.619,-2.108 -0.116,-0.639 -0.178,-1.434 -0.104,-2.293 0.061,-0.429 0.104,-0.889 0.294,-1.329 0.153,-0.442 0.356,-0.883 0.65,-1.276 0.313,-0.361 0.699,-0.71 1.109,-0.925 0.399,-0.226 0.839,-0.348 1.238,-0.416 0.447,-0.067 0.846,-0.067 1.213,-0.037 0.38,0.037 0.704,0.079 1.017,0.178 0.637,0.147 1.121,0.343 1.446,0.491 0.338,0.159 0.546,0.25 0.546,0.25 0,0 -0.208,-0.006 -0.589,-0.048 -0.356,-0.043 -0.87,-0.086 -1.464,-0.104 -0.601,-0.019 -1.299,0.006 -1.973,0.171 -0.343,0.092 -0.668,0.227 -0.975,0.417 -0.313,0.159 -0.564,0.416 -0.796,0.692 -0.46,0.564 -0.681,1.33 -0.846,2.072 -0.147,0.735 -0.178,1.471 -0.203,2.12 0,1.275 0.056,2.145 0.056,2.145 z"
   id="path61" />
				<path
   style="fill:#dd692f"
   d="m 98.589,373.477 c 0,0 -0.209,-0.239 -0.491,-0.748 -0.134,-0.245 -0.282,-0.569 -0.441,-0.938 -0.117,-0.38 -0.282,-0.827 -0.356,-1.318 -0.073,-0.496 -0.147,-1.06 -0.104,-1.648 0.031,-0.589 0.178,-1.226 0.46,-1.833 0.263,-0.6 0.65,-1.164 1.078,-1.66 0.221,-0.239 0.496,-0.454 0.735,-0.68 0.312,-0.252 0.533,-0.38 0.808,-0.564 0.564,-0.338 1.226,-0.608 1.851,-0.766 0.631,-0.166 1.269,-0.202 1.888,-0.202 1.195,0.006 2.285,0.306 3.187,0.656 0.889,0.337 1.581,0.754 2.034,1.048 0.459,0.299 0.711,0.508 0.711,0.508 0,0 -0.282,-0.135 -0.785,-0.337 -0.515,-0.197 -1.25,-0.429 -2.12,-0.644 -0.46,-0.104 -0.92,-0.19 -1.422,-0.251 -0.514,-0.074 -1.048,-0.086 -1.606,-0.074 -0.546,0.031 -1.109,0.135 -1.667,0.275 -0.564,0.153 -1.024,0.374 -1.55,0.668 -0.239,0.166 -0.564,0.35 -0.742,0.496 -0.203,0.203 -0.442,0.381 -0.631,0.577 -0.386,0.429 -0.754,0.864 -0.975,1.36 -0.135,0.251 -0.251,0.49 -0.313,0.755 -0.104,0.244 -0.147,0.508 -0.202,0.759 -0.105,0.515 -0.105,1.018 -0.079,1.489 0.03,0.454 0.079,0.883 0.165,1.275 0.073,0.38 0.178,0.704 0.251,0.968 0.181,0.535 0.316,0.829 0.316,0.829 z"
   id="path62" />
			</g>
			<g
   id="g73">
				<g
   id="g72">
					<path
   style="fill:#faaa74"
   d="m 122.023,108.303 c -4.191,-1.568 -6.894,-7.287 -6.404,-14.456 0.619,-8.801 5.871,-16.436 11.736,-17.048 1.091,-0.111 2.139,0.024 3.082,0.385 4.192,1.557 6.925,7.287 6.405,14.451 -0.608,8.806 -5.846,16.442 -11.706,17.055 -1.103,0.11 -2.138,-0.025 -3.113,-0.387 z M 131.338,74.2 c -1.122,-0.423 -2.316,-0.589 -3.573,-0.466 -6.539,0.698 -12.367,9.352 -13.09,19.353 -0.564,8.157 2.507,14.683 7.17,16.423 1.067,0.405 2.188,0.551 3.395,0.429 6.527,-0.686 13.244,-9.364 13.917,-19.365 0.564,-8.089 -2.978,-14.573 -7.819,-16.374 z"
   id="path63" />
					<path
   style="fill:#ffeebb"
   d="m 136.842,91.635 c -0.608,8.806 -5.846,16.442 -11.706,17.055 -5.87,0.619 -10.124,-6.018 -9.517,-14.842 0.619,-8.801 5.871,-16.436 11.736,-17.048 5.84,-0.621 10.105,6.017 9.487,14.835 z"
   id="path64" />
					<path
   style="fill:#fffaed"
   d="m 135.395,92.376 c -0.546,7.954 -5.283,14.867 -10.595,15.419 -5.301,0.564 -9.119,-5.454 -8.592,-13.409 0.564,-7.955 5.301,-14.867 10.583,-15.419 5.314,-0.563 9.168,5.455 8.604,13.409 z"
   id="path65" />
					<g
   id="g71">
						<path
   style="fill:#fff2d1"
   d="m 118.91,95.513 c -0.208,6.337 3.04,10.86 7.292,10.087 4.234,-0.746 7.863,-6.507 8.071,-12.831 0.191,-6.337 -3.07,-10.86 -7.304,-10.113 -4.235,0.761 -7.851,6.522 -8.059,12.857 z"
   id="path66" />
						<path
   style="fill:#904d35"
   d="m 125.535,103.376 c -0.557,-0.036 -1.121,-0.226 -1.624,-0.557 -2.445,-1.643 -3.242,-6.202 -1.753,-10.204 1.164,-3.157 3.376,-5.02 5.472,-4.854 0.564,0.036 1.097,0.214 1.642,0.557 2.422,1.63 3.217,6.201 1.723,10.197 -1.164,3.157 -3.389,5.008 -5.46,4.861 z m 2.231,-18.696 c -2.733,-0.184 -5.638,2.261 -7.17,6.379 -1.937,5.252 -0.888,11.233 2.298,13.365 0.668,0.453 1.403,0.699 2.139,0.755 2.733,0.202 5.638,-2.25 7.146,-6.38 1.936,-5.233 0.913,-11.215 -2.305,-13.347 -0.662,-0.46 -1.373,-0.699 -2.108,-0.772 z"
   id="path67" />
						<path
   style="fill:#450806"
   d="m 125.848,103.051 c -0.399,-0.024 -0.785,-0.159 -1.165,-0.416 -1.746,-1.152 -2.304,-4.394 -1.256,-7.244 0.839,-2.237 2.421,-3.566 3.898,-3.462 0.41,0.03 0.797,0.164 1.152,0.411 1.74,1.164 2.298,4.412 1.25,7.255 -0.809,2.242 -2.403,3.567 -3.879,3.456 z m 1.783,-15.289 c -2.096,-0.166 -4.308,1.697 -5.472,4.854 -1.489,4.002 -0.693,8.561 1.753,10.204 0.503,0.33 1.066,0.52 1.624,0.557 2.071,0.148 4.296,-1.703 5.461,-4.859 1.494,-3.996 0.699,-8.567 -1.723,-10.197 -0.547,-0.345 -1.079,-0.523 -1.643,-0.559 z"
   id="path68" />
						<path
   style="fill:#3d0101"
   d="m 127.324,91.929 c 0.41,0.03 0.797,0.164 1.152,0.411 1.74,1.164 2.298,4.412 1.25,7.255 -0.808,2.243 -2.402,3.567 -3.878,3.456 -0.399,-0.024 -0.785,-0.159 -1.165,-0.416 -1.746,-1.152 -2.304,-4.394 -1.256,-7.244 0.839,-2.237 2.421,-3.567 3.897,-3.462 z"
   id="path69" />
						<path
   style="fill:#fffaed"
   d="m 126.129,91.285 c -0.741,1.33 -1.967,1.722 -2.775,0.889 -0.797,-0.834 -0.84,-2.592 -0.104,-3.903 0.711,-1.318 1.961,-1.717 2.757,-0.877 0.784,0.827 0.845,2.579 0.122,3.891 z"
   id="path70" />
						<path
   style="fill:#fffaed"
   d="m 128.427,102.923 c -0.349,0.631 -0.974,0.815 -1.354,0.416 -0.386,-0.41 -0.417,-1.244 -0.043,-1.894 0.349,-0.63 0.944,-0.821 1.324,-0.416 0.398,0.405 0.429,1.25 0.073,1.894 z"
   id="path71" />
					</g>
				</g>
				<path
   style="fill:#bb5323"
   d="m 112.58,100.452 c -0.092,-0.036 -0.148,0.111 -0.044,0.172 2.341,1.546 4.364,3.157 6.092,5.467 1.716,2.305 2.764,4.964 3.677,7.697 0.074,0.234 0.46,0.197 0.429,-0.073 -0.943,-5.816 -4.59,-11.545 -10.154,-13.263 z"
   id="path72" />
				<path
   style="fill:#fdd8b6"
   d="m 118.702,106.587 c -1.403,-2.323 -4.149,-4.633 -6.907,-3.708 -0.356,0.123 -0.441,0.699 -0.074,0.87 1.269,0.65 2.524,1.011 3.616,1.998 1.078,0.987 1.845,2.255 2.586,3.53 1.373,2.329 2.317,4.902 3.585,7.28 0.135,0.227 0.41,0.049 0.368,-0.177 -0.692,-3.376 -1.36,-6.827 -3.174,-9.793 z"
   id="path73" />
			</g>
			<g
   id="g84">
				<g
   id="g83">
					<path
   style="fill:#faaa74"
   d="m 174.836,113.837 c -5.141,-0.582 -9.67,-6.275 -10.951,-14.486 -1.581,-10.1 2.372,-20.211 8.825,-22.571 1.194,-0.447 2.421,-0.576 3.596,-0.453 5.124,0.577 9.671,6.263 10.939,14.481 1.563,10.105 -2.39,20.211 -8.842,22.564 -1.208,0.447 -2.403,0.575 -3.567,0.465 z m 1.722,-41.12 c -1.398,-0.16 -2.801,0 -4.173,0.49 -7.177,2.636 -11.558,14.07 -9.775,25.543 1.446,9.363 6.588,15.859 12.324,16.496 1.275,0.147 2.598,0 3.928,-0.49 7.188,-2.629 12.514,-14.328 10.73,-25.794 -1.445,-9.296 -7.114,-15.595 -13.034,-16.245 z"
   id="path74" />
					<path
   style="fill:#ffeebb"
   d="m 187.246,90.807 c 1.563,10.105 -2.39,20.211 -8.842,22.564 -6.435,2.365 -12.943,-3.916 -14.518,-14.021 -1.581,-10.1 2.372,-20.211 8.825,-22.571 6.464,-2.359 12.954,3.917 14.535,14.028 z"
   id="path75" />
					<path
   style="fill:#fffaed"
   d="m 185.8,92.052 c 1.433,9.136 -2.139,18.28 -7.985,20.413 -5.846,2.132 -11.705,-3.542 -13.133,-12.685 -1.433,-9.137 2.139,-18.275 7.985,-20.395 5.809,-2.145 11.698,3.541 13.133,12.667 z"
   id="path76" />
					<g
   id="g82">
						<path
   style="fill:#fff2d1"
   d="m 167.354,101.807 c 1.502,6.857 6.71,10.816 11.655,8.867 4.946,-1.954 7.734,-9.106 6.257,-15.97 -1.501,-6.852 -6.709,-10.822 -11.655,-8.867 -4.965,1.974 -7.734,9.125 -6.257,15.97 z"
   id="path77" />
						<path
   style="fill:#904d35"
   d="m 178.127,108.113 c -0.698,0.111 -1.403,0.056 -2.096,-0.172 -3.339,-1.115 -5.387,-5.76 -4.565,-10.405 0.65,-3.64 2.91,-6.197 5.448,-6.57 0.693,-0.11 1.404,-0.056 2.096,0.19 3.353,1.097 5.388,5.754 4.547,10.382 -0.638,3.651 -2.893,6.195 -5.43,6.575 z m -1.789,-20.432 c -3.321,0.478 -6.257,3.837 -7.127,8.611 -1.06,6.079 1.593,12.176 5.95,13.623 0.944,0.307 1.858,0.38 2.758,0.251 3.334,-0.496 6.275,-3.842 7.146,-8.628 1.06,-6.067 -1.581,-12.165 -5.95,-13.623 -0.945,-0.307 -1.858,-0.368 -2.777,-0.234 z"
   id="path78" />
						<path
   style="fill:#450806"
   d="m 178.403,107.684 c -0.484,0.086 -0.999,0.044 -1.49,-0.135 -2.359,-0.777 -3.824,-4.093 -3.229,-7.377 0.453,-2.605 2.065,-4.412 3.878,-4.682 0.472,-0.086 0.994,-0.043 1.477,0.122 2.378,0.79 3.825,4.106 3.23,7.391 -0.453,2.597 -2.034,4.412 -3.866,4.681 z m -1.49,-16.717 c -2.537,0.373 -4.798,2.93 -5.448,6.57 -0.821,4.644 1.226,9.29 4.565,10.405 0.692,0.227 1.398,0.283 2.096,0.172 2.537,-0.38 4.793,-2.923 5.43,-6.575 0.84,-4.627 -1.194,-9.284 -4.547,-10.382 -0.692,-0.246 -1.403,-0.301 -2.096,-0.19 z"
   id="path79" />
						<path
   style="fill:#3d0101"
   d="m 177.563,95.489 c 0.472,-0.086 0.994,-0.043 1.477,0.122 2.378,0.79 3.825,4.106 3.23,7.391 -0.454,2.597 -2.035,4.412 -3.867,4.681 -0.484,0.086 -0.999,0.044 -1.49,-0.135 -2.359,-0.777 -3.824,-4.093 -3.229,-7.377 0.453,-2.604 2.065,-4.412 3.879,-4.682 z"
   id="path80" />
						<path
   style="fill:#fffaed"
   d="m 175.958,95.11 c -0.564,1.598 -1.967,2.341 -3.144,1.654 -1.152,-0.687 -1.624,-2.524 -1.067,-4.118 0.564,-1.605 1.967,-2.34 3.131,-1.654 1.153,0.685 1.638,2.536 1.08,4.118 z"
   id="path81" />
						<path
   style="fill:#fffaed"
   d="m 181.492,106.881 c -0.282,0.767 -0.944,1.122 -1.508,0.791 -0.557,-0.318 -0.796,-1.22 -0.533,-1.985 0.282,-0.778 0.962,-1.128 1.526,-0.809 0.557,0.337 0.796,1.238 0.515,2.003 z"
   id="path82" />
					</g>
				</g>
				<path
   style="fill:#bb5323"
   d="m 190.182,105.527 c -6.417,-0.3 -10.357,6.361 -13.384,11.362 -0.104,0.146 0.104,0.325 0.221,0.19 3.983,-4.67 6.894,-9.8 13.268,-10.83 0.415,-0.072 0.28,-0.709 -0.105,-0.722 z"
   id="path83" />
				<path
   style="fill:#fdd8b6"
   d="m 192.253,107.929 c -2.598,-2.096 -6.453,-0.686 -8.697,1.324 -3.07,2.709 -4.828,6.655 -6.508,10.406 -0.178,0.391 0.307,0.869 0.589,0.489 1.814,-2.451 3.512,-4.938 5.564,-7.164 1.017,-1.128 2.17,-2.102 3.438,-2.843 1.685,-0.95 3.395,-0.386 5.154,-0.361 1.017,0.012 1.182,-1.305 0.46,-1.851 z"
   id="path84" />
			</g>
			
			
			<g
   id="g88">
				
				
			</g>
			
			<g
   id="g93">
				<path
   style="fill:#faaa74"
   d="m 130.216,61.097 c -0.177,0.062 -0.343,0.007 -0.459,-0.11 -2.066,0.803 -3.848,2.88 -4.823,4.816 -0.595,1.152 -1.404,2.899 -0.974,4.254 0.869,2.721 3.395,-0.43 4.614,-1.072 1.404,-0.73 2.66,-0.73 4.033,0.079 1.152,0.687 4.829,5.282 4.829,1.434 0.024,-3.995 -2.023,-11.238 -7.22,-9.401 z"
   id="path90" />
				<path
   style="fill:#faaa74"
   d="m 177.845,62.777 c -2.022,-1.152 -3.383,-0.772 -5.135,0.613 -0.325,0.257 -0.638,0.012 -0.712,-0.307 -1.961,1.483 -3.425,3.928 -3.983,6.152 -0.251,0.982 -0.533,2.072 -0.386,3.102 0.313,2.23 2.335,1.587 3.353,0.416 0.766,-0.87 1.728,-1.985 2.879,-2.279 1.177,-0.306 2.274,-0.111 3.291,0.612 0.557,0.404 1.091,0.833 1.649,1.251 0.374,0.307 0.772,0.576 1.182,0.808 1.833,-0.416 2.661,-1.434 2.452,-3.076 -0.264,-3.137 -1.949,-5.797 -4.59,-7.292 z"
   id="path91" />
				<path
   style="fill:#6f1200"
   d="m 132.564,61.25 c -3.113,-0.723 -6.465,1.71 -6.054,5.264 0.061,0.325 0.49,0.496 0.638,0.148 0,0 0,0 0,-0.013 1.814,-0.686 3.554,-1.398 5.46,-0.527 1.759,0.809 3.009,2.624 4.235,4.082 0.134,0.135 0.281,0.122 0.416,0.043 0.025,0.116 0.043,0.251 0.104,0.386 0.044,0.306 0.496,0.27 0.558,-0.024 0.636,-3.395 -2.024,-8.549 -5.357,-9.359 z"
   id="path92" />
				<path
   style="fill:#6f1200"
   d="m 175.32,61.791 c 3.156,-0.227 6.11,2.702 5.197,6.145 -0.074,0.314 -0.534,0.418 -0.638,0.049 v -0.012 c -1.71,-0.963 -3.321,-1.937 -5.325,-1.379 -1.862,0.52 -3.352,2.108 -4.78,3.357 -0.153,0.117 -0.3,0.08 -0.404,-0.018 -0.056,0.123 -0.098,0.245 -0.16,0.369 -0.086,0.306 -0.533,0.183 -0.564,-0.123 -0.147,-3.449 3.224,-8.126 6.674,-8.388 z"
   id="path93" />
			</g>
			<g
   id="g105">
				<path
   style="fill:#faaa74"
   d="m 140.929,127.411 c -1.281,-1.139 -2.654,-2.102 -4.014,-3.131 0.546,1.532 1.048,3.604 -0.527,4.302 -1.923,0.846 -1.079,2.867 0.276,3.916 1.194,0.926 2.806,1.636 4.338,1.477 4.517,-0.472 1.937,-4.75 -0.073,-6.564 z"
   id="path94" />
				<path
   style="fill:#e0864d"
   d="m 139.157,128.858 c 0.448,1.182 1.673,4.699 3.292,3.952 0.668,-0.313 0.876,-1.141 0.803,-2.151 -0.252,-0.668 -0.699,-1.367 -1.152,-1.985 -0.178,0.165 -0.43,0.203 -0.638,0 -0.46,-0.472 -0.944,-0.981 -1.477,-1.33 -0.411,-0.244 -1.25,-0.416 -1.121,0.392 0.042,0.379 0.146,0.76 0.293,1.122 z"
   id="path95" />
				<path
   style="fill:#faaa74"
   d="m 165.062,114.211 c -0.38,-4.259 -4.161,-5.509 -7.421,-3.64 -3.855,2.201 -6.864,6.79 -8.341,11.325 2.495,-1.93 4.455,-7.299 7.011,-8.855 4.798,-2.886 5.399,4.951 4.946,8.573 0,0 0,0 0,0.013 1.354,-1.876 3.364,-3.941 3.805,-6.252 0.018,-0.392 0.043,-0.778 0,-1.164 z"
   id="path96" />
				<path
   style="fill:#faaa74"
   d="m 140.194,116.079 c -1.152,-1.74 -2.482,-3.651 -4.621,-4.032 -0.557,-0.098 -1.108,-0.098 -1.581,0 -0.307,0.227 -0.587,0.508 -0.821,0.833 -2.347,3.113 -1.728,7.917 -0.049,11.35 -0.263,-3.566 0.399,-8.935 4.137,-8.801 2.39,0.093 4.069,3.531 5.399,5.191 0.031,0.018 0.031,0.043 0.061,0.055 -0.742,-1.579 -1.594,-3.136 -2.525,-4.596 z"
   id="path97" />
				<path
   style="fill:#faaa74"
   d="m 160.49,127.577 c -0.607,-1.066 -1.421,-2.047 -1.936,-3.168 -0.516,-1.195 -0.43,-2.14 0.208,-2.819 -2.231,0.594 -4.474,1.906 -5.95,3.658 -2.954,3.505 -0.208,7.721 4.063,7.489 2.591,-0.129 5.356,-2.182 3.615,-5.16 z"
   id="path98" />
				<path
   style="fill:#e0864d"
   d="m 156.795,123.091 c -0.589,-0.183 -1.177,-0.074 -1.741,0.214 -0.557,0.374 -1.121,0.808 -1.606,1.268 -0.177,0.208 -0.355,0.411 -0.49,0.613 -0.074,0.091 -0.147,0.147 -0.251,0.172 -0.558,0.686 -0.883,1.398 -1.06,2.096 0.073,0.815 0.251,1.618 0.631,2.28 1.047,1.771 2.941,-0.245 3.591,-1.354 0.515,-0.803 2.654,-4.726 0.926,-5.289 z"
   id="path99" />
				<path
   style="fill:#e0864d"
   d="m 143.913,122.478 c -0.913,-1.814 -1.992,-3.505 -3.187,-5.136 -1.047,-1.39 -2.2,-2.782 -4.014,-2.506 -3.278,0.508 -3.854,7.085 -3.646,9.701 0,0.257 0.368,0.27 0.38,0 0.062,-1.372 0.313,-2.745 0.723,-4.064 0.399,-1.366 1.421,-4.025 3.027,-4.246 1.489,-0.196 2.966,1.887 3.805,2.892 0.974,1.115 1.79,2.347 2.733,3.487 0.105,0.099 0.222,-0.031 0.179,-0.128 z"
   id="path100" />
				<path
   style="fill:#e0864d"
   d="m 162.022,119.475 c 0.735,-2.856 -0.03,-7.403 -3.468,-7.587 -4.087,-0.203 -6.76,6.509 -8.697,9.266 -0.129,0.19 0.104,0.417 0.252,0.257 2.292,-2.2 3.542,-5.38 6.067,-7.329 4.013,-3.052 4.693,2.647 5.239,5.429 0.074,0.344 0.534,0.276 0.607,-0.036 z"
   id="path101" />
				<path
   style="fill:#bb5323"
   d="m 142.626,128.777 c -1.121,-1.954 -3.481,-3.646 -5.429,-4.608 -0.116,-0.074 -0.282,0.11 -0.147,0.209 1.33,1.084 2.556,2.401 3.512,3.835 0.545,0.754 1.078,1.599 1.36,2.5 0.282,0.926 -0.031,1.533 -0.386,2.347 -0.074,0.135 0.03,0.337 0.178,0.325 2.334,-0.312 1.771,-3.155 0.912,-4.608 z"
   id="path102" />
				<path
   style="fill:#bb5323"
   d="m 152.947,130.494 c 0.012,-0.724 -0.178,-1.41 -0.166,-2.132 0,-0.896 0.387,-1.765 0.797,-2.55 0.741,-1.459 2.114,-2.629 3.468,-3.457 0.135,-0.086 0.049,-0.294 -0.098,-0.232 -1.82,0.785 -3.37,2.175 -4.517,3.836 -0.888,1.287 -1.477,3.732 -0.03,4.817 0.233,0.147 0.546,-0.013 0.546,-0.282 z"
   id="path103" />
				<path
   style="fill:#fdd8b6"
   d="m 159.497,115.725 c -3.952,-2.979 -7.85,5.197 -8.677,8.064 -0.104,0.392 0.282,0.723 0.638,0.619 2.432,-0.717 4.645,-5.884 6.844,-5.325 2.041,0.521 2.672,-2.243 1.195,-3.358 z"
   id="path104" />
				<path
   style="fill:#fdd8b6"
   d="m 142.908,123.666 c -0.429,-2.941 -2.537,-7.489 -5.962,-6.949 -1.68,0.269 -1.164,2.857 0.355,2.942 1.048,0.06 1.888,1.115 2.58,1.838 0.815,0.834 1.624,1.649 2.348,2.586 0.281,0.381 0.74,-0.037 0.679,-0.417 z"
   id="path105" />
			</g>
			<g
   id="g107">
				<path
   style="fill:#c7552d"
   d="m 77.924,75.891 c -4.933,0.796 -8.254,7.157 -7.072,14.389 0.386,-0.349 0.735,-0.777 1.017,-1.262 2.452,-4.229 4.234,-6.453 8.267,-4.67 2.702,1.195 5.742,-0.588 6.447,-3.738 -2.064,-2.587 -5.147,-5.276 -8.659,-4.719 z"
   id="path106" />
				<path
   style="fill:#d46e43"
   d="m 77.924,75.891 c 3.512,-0.557 6.595,2.132 8.659,4.719 0.356,-1.532 0.178,-3.389 -0.87,-5.387 -0.177,-0.349 -0.38,-0.711 -0.6,-1.072 -2.66,-3.089 -6.686,-5.901 -11.693,-3.493 -6.863,3.322 -8.34,12.875 -7.292,20.346 1.643,0.913 3.395,0.484 4.725,-0.724 -1.183,-7.232 2.138,-13.592 7.071,-14.389 z"
   id="path107" />
			</g>
			<path
   style="fill:#fdd8b6"
   d="m 131.277,52.506 c 0,0 22.73,6.104 11.276,63.218 -0.987,4.185 8.506,5.344 11.723,-4.376 3.199,-9.701 -0.417,-61.122 29.458,-54.835 0,0 -14.61,-14.842 -30.537,20.083 -3.015,-24.801 -16.944,-31.082 -21.92,-24.09 z"
   id="path108" />
			<g
   id="g109">
				<path
   style="fill:#faaa74"
   d="m 201.99,101.042 c 0,0 0.368,-46.537 -21.963,-50.84 -0.84,-0.11 -1.68,-0.122 -2.494,-0.073 17.196,2.352 20.799,39.882 18.807,55.815 10.302,-3.144 17.932,7.324 18.256,21.657 -2.642,44.7 -53.769,41.213 -52.115,39.81 1.649,-1.392 6.3,-4.89 0.337,-2.44 -20.59,12.225 -41.499,-9.781 -39.527,-5.601 1.993,4.191 4.314,4.89 4.314,4.89 C 89.776,153.444 70.19,122.355 75.16,105.589 80.136,88.815 97.405,93.712 106.377,101.74 106.689,72.533 121.33,52.972 123.395,50.361 113.05,57.752 104.9,75.989 102.05,95.465 c 0,0 -21.915,-13.973 -32.204,3.836 -10.27,17.815 13.966,59.382 60.443,69.157 11.068,6.343 20.56,5.583 29.532,2.445 21.596,5.233 60.087,-1.047 67.41,-45.41 C 229.549,109.425 213.934,100 201.99,101.042 Z"
   id="path109" />
			</g>
			
			<g
   id="g112">
				<path
   style="fill:#fbcaa2"
   d="m 223.022,130.807 c 0,0 2.954,-17.3 -4.442,-21.615 -5.767,-3.114 -4.768,-6.055 -6.257,-12.281 -1.477,-6.226 -5.253,-10.025 -3.763,-12.28 1.476,-2.255 6.066,0.699 6.728,2.592 0,0 1.968,-8.819 10.186,-7.789 -1.152,-7.428 -9.861,-8.813 -14.806,-9.162 -4.915,-0.337 -6.551,-7.777 1.33,-8.99 7.881,-1.213 23.495,6.925 27.779,24.905 1.477,2.255 0.809,3.29 0.809,3.29 0,0 3.959,3.635 2.641,6.576 1.979,8.64 1.802,15.725 -1.311,19.88 -3.132,4.155 -5.577,7.439 -8.059,12.966 -2.464,1.908 -10.835,1.908 -10.835,1.908 z"
   id="path111" />
				<path
   style="fill:#dd692f"
   d="m 213.634,61.159 c 8.236,0 22.141,8.199 26.143,25.028 1.477,2.255 0.809,3.29 0.809,3.29 0,0 3.959,3.635 2.641,6.576 1.979,8.64 1.802,15.725 -1.311,19.88 -3.132,4.155 -5.577,7.439 -8.059,12.966 -2.464,1.907 -10.835,1.907 -10.835,1.907 0,0 2.954,-17.3 -4.442,-21.615 -5.767,-3.114 -4.768,-6.055 -6.257,-12.281 -1.477,-6.226 -5.253,-10.025 -3.763,-12.28 0.355,-0.577 0.943,-0.803 1.624,-0.803 1.948,0 4.62,1.985 5.104,3.395 0,0 1.759,-7.869 8.874,-7.869 0.411,0 0.839,0.031 1.311,0.08 -1.152,-7.428 -9.861,-8.813 -14.806,-9.162 -4.915,-0.337 -6.551,-7.777 1.33,-8.99 0.516,-0.079 1.048,-0.122 1.637,-0.122 z m 0,-1.042 v 0 c -0.65,0 -1.22,0.049 -1.784,0.135 -4.798,0.735 -6.404,3.566 -6.299,5.969 0.098,2.709 2.274,4.915 5.074,5.098 7.648,0.54 12.219,2.881 13.562,6.992 -0.025,0 -0.025,0 -0.025,0 -5.081,0 -7.955,3.732 -9.211,6.735 -1.268,-1.237 -3.162,-2.279 -4.767,-2.279 -1.067,0 -1.907,0.441 -2.452,1.274 -1.195,1.79 -0.178,3.874 1.109,6.533 0.883,1.875 1.9,4.002 2.525,6.588 0.294,1.341 0.527,2.555 0.704,3.622 0.638,3.885 1.122,6.673 6.054,9.326 3.365,1.985 4.278,7.354 4.443,11.516 0.19,4.7 -0.521,8.953 -0.551,8.99 l -0.202,1.238 h 1.207 c 0.889,0 8.77,-0.055 11.424,-2.107 l 0.208,-0.16 0.104,-0.245 c 2.42,-5.441 4.872,-8.665 7.924,-12.758 3.144,-4.174 3.677,-11.056 1.581,-20.457 0.974,-2.837 -1.477,-5.846 -2.537,-6.974 0.074,-0.723 -0.061,-1.863 -1.036,-3.394 -4.233,-17.491 -18.641,-25.642 -27.055,-25.642 z"
   id="path112" />
			</g>
			<g
   id="g113">
				<path
   style="fill:#faaa74"
   d="m 243.227,96.053 c 1.318,-2.941 -2.641,-6.576 -2.641,-6.576 0,0 0.668,-1.035 -0.809,-3.29 -0.766,-3.175 -1.863,-6.049 -3.235,-8.616 0.889,3.076 -1.048,3.763 -4.216,1.765 -4.045,-2.555 -1.729,-3.524 -9.818,-9.253 -8.12,-5.711 -14.921,-1.569 -15.381,-4.732 -0.074,-0.46 -0.056,-0.932 0.03,-1.398 -1.636,2.598 0.178,6.093 3.512,6.319 4.945,0.349 13.653,1.734 14.806,9.162 -0.104,-0.013 -0.208,0 -0.338,-0.013 1.048,0.16 2.243,0.405 3.671,0.797 5.209,1.445 3.604,3.014 -0.766,2.107 -4.35,-0.925 -7.568,0.637 -9.461,3.799 -1.195,2.035 -2.832,1.582 -2.832,-0.33 -0.325,0.852 -0.46,1.428 -0.46,1.428 -0.661,-1.893 -5.251,-4.847 -6.728,-2.592 -1.49,2.255 2.286,6.054 3.763,12.28 1.489,6.226 0.49,9.167 6.257,12.281 7.397,4.314 4.442,21.615 4.442,21.615 0,0 8.371,0 10.835,-1.907 2.482,-5.527 4.927,-8.811 8.059,-12.966 3.112,-4.154 3.289,-11.24 1.31,-19.88 z M 218.45,90.305 c 0,0 1.385,-4.707 5.492,-6.018 4.099,-1.325 9.977,0.907 12.575,2.359 2.623,1.427 1.992,4.185 -3.248,2.482 -5.228,-1.704 -9.18,-0.754 -10.332,2.488 -1.594,4.584 -5.712,3.671 -4.487,-1.311 z m 18.581,7.869 c -4.118,-1.569 -8.604,-2.752 -9.474,-0.797 -0.857,1.974 -1.244,4.461 1.741,6.418 2.978,1.972 -7.355,5.766 -5.607,-8.12 0,0 0.631,-3.929 3.481,-4.707 2.862,-0.796 6.968,0.134 10.332,1.568 3.364,1.433 3.627,7.207 -0.473,5.638 z"
   id="path113" />
			</g>
			<g
   id="g118">
				<path
   style="fill:#dd692f"
   d="m 223.984,115.411 c 0,0 -0.074,-0.091 -0.208,-0.294 -0.074,-0.104 -0.117,-0.239 -0.178,-0.398 -0.043,-0.16 -0.147,-0.343 -0.178,-0.54 -0.074,-0.416 -0.147,-0.912 -0.104,-1.434 0.03,-0.257 0,-0.538 0.104,-0.796 0.073,-0.265 0.135,-0.534 0.208,-0.803 0.135,-0.54 0.429,-0.993 0.638,-1.447 0.129,-0.213 0.233,-0.447 0.38,-0.619 0.135,-0.19 0.282,-0.349 0.417,-0.496 0.496,-0.619 0.913,-0.95 0.913,-0.95 0,0 -0.147,0.545 -0.429,1.256 -0.074,0.177 -0.16,0.374 -0.264,0.582 -0.092,0.184 -0.122,0.411 -0.221,0.637 -0.073,0.221 -0.147,0.442 -0.252,0.674 -0.104,0.233 -0.177,0.454 -0.238,0.699 -0.135,0.466 -0.307,0.944 -0.386,1.397 -0.025,0.215 -0.098,0.442 -0.13,0.644 -0.018,0.214 -0.042,0.41 -0.073,0.606 -0.018,0.184 0,0.344 -0.018,0.504 0,0.165 0,0.299 0,0.404 0.001,0.229 0.019,0.374 0.019,0.374 z"
   id="path114" />
				<path
   style="fill:#dd692f"
   d="m 228.428,99.669 c 0,0 0.202,-0.019 0.619,-0.012 0.368,0.03 0.956,0.073 1.655,0.343 0.692,0.269 1.471,0.815 2.035,1.765 0.557,0.931 0.808,2.243 0.723,3.56 -0.031,0.693 -0.208,1.429 -0.65,2.078 -0.429,0.643 -1.133,1.115 -1.888,1.286 -0.754,0.178 -1.581,0.122 -2.347,-0.067 -0.386,-0.079 -0.754,-0.226 -1.139,-0.411 -0.368,-0.214 -0.693,-0.356 -1.048,-0.625 -1.428,-0.919 -2.445,-2.524 -2.905,-4.24 -0.546,-1.698 -0.589,-3.493 -0.638,-5.271 0.019,-1.74 0.221,-3.622 1.024,-5.257 0.38,-0.822 0.943,-1.569 1.68,-2.097 0.711,-0.533 1.581,-0.821 2.389,-0.925 0.827,-0.092 1.642,-0.043 2.378,0.122 0.735,0.122 1.447,0.252 2.169,0.374 1.403,0.257 2.734,0.551 3.929,0.956 1.195,0.368 2.274,0.882 3.144,1.403 0.912,0.515 1.605,1.115 2.169,1.611 0.503,0.527 0.913,0.969 1.134,1.287 0.239,0.331 0.368,0.503 0.368,0.503 0,0 -0.129,-0.16 -0.41,-0.46 -0.251,-0.307 -0.692,-0.692 -1.225,-1.182 -0.588,-0.442 -1.299,-0.956 -2.201,-1.403 -0.882,-0.46 -1.961,-0.865 -3.126,-1.195 -1.182,-0.343 -2.513,-0.577 -3.916,-0.772 -0.673,-0.086 -1.428,-0.184 -2.17,-0.276 -0.704,-0.104 -1.415,-0.165 -2.138,-0.056 -0.711,0.099 -1.403,0.332 -1.991,0.779 -0.577,0.429 -1.048,1.06 -1.373,1.771 -0.661,1.441 -0.809,3.125 -0.839,4.829 0.03,1.692 0.043,3.425 0.527,4.981 0.417,1.569 1.287,2.942 2.482,3.757 0.282,0.221 0.661,0.405 0.974,0.589 0.295,0.147 0.638,0.295 0.962,0.392 0.661,0.19 1.355,0.257 1.992,0.134 0.631,-0.122 1.177,-0.441 1.533,-0.943 0.355,-0.478 0.563,-1.115 0.606,-1.715 0.104,-1.263 -0.012,-2.415 -0.49,-3.328 -0.453,-0.894 -1.164,-1.464 -1.796,-1.771 -0.668,-0.295 -1.225,-0.417 -1.612,-0.466 -0.389,-0.048 -0.59,-0.048 -0.59,-0.048 z"
   id="path115" />
				<path
   style="fill:#dd692f"
   d="m 223.837,103.308 c 0,0 -0.178,0 -0.491,-0.048 -0.306,-0.061 -0.765,-0.123 -1.299,-0.337 -0.557,-0.202 -1.225,-0.496 -1.888,-0.993 -0.691,-0.509 -1.36,-1.221 -1.857,-2.164 -0.533,-0.938 -0.901,-2.084 -1.023,-3.309 -0.105,-0.625 -0.074,-1.25 -0.105,-1.875 0.031,-0.638 0.031,-1.312 0.153,-1.98 0.338,-2.629 1.471,-5.46 3.597,-7.408 1.067,-0.956 2.378,-1.637 3.781,-1.863 0.356,-0.025 0.681,-0.062 1.048,-0.068 0.325,0.024 0.631,0.042 0.956,0.055 0.619,0 1.287,0.092 1.893,0.16 0.631,0.055 1.251,0.202 1.845,0.318 0.6,0.099 1.164,0.282 1.723,0.441 0.533,0.165 1.097,0.343 1.58,0.564 0.522,0.221 1.005,0.392 1.465,0.618 0.882,0.509 1.722,0.901 2.371,1.44 0.65,0.491 1.244,0.883 1.685,1.312 0.84,0.834 1.312,1.305 1.312,1.305 0,0 -0.527,-0.416 -1.446,-1.146 -0.429,-0.385 -1.079,-0.71 -1.753,-1.14 -0.668,-0.466 -1.538,-0.772 -2.409,-1.213 -0.429,-0.208 -0.943,-0.355 -1.434,-0.539 -0.472,-0.19 -1.017,-0.325 -1.575,-0.447 -0.533,-0.148 -1.091,-0.276 -1.685,-0.349 -0.557,-0.074 -1.152,-0.209 -1.753,-0.239 -0.625,-0.056 -1.202,-0.116 -1.863,-0.116 -0.307,0 -0.631,0 -0.943,-0.019 -0.283,0.019 -0.589,0.037 -0.901,0.068 -1.164,0.196 -2.317,0.809 -3.23,1.649 -1.918,1.71 -3.014,4.308 -3.395,6.766 -0.135,0.631 -0.147,1.232 -0.239,1.832 0,0.637 -0.012,1.237 0.031,1.801 0.073,1.141 0.337,2.219 0.797,3.102 0.429,0.869 0.986,1.593 1.581,2.132 0.6,0.526 1.225,0.87 1.753,1.115 1.05,0.484 1.718,0.575 1.718,0.575 z"
   id="path116" />
				<path
   style="fill:#dd692f"
   d="m 217.739,97.94 c 0,0 -0.159,-0.048 -0.441,-0.239 -0.282,-0.177 -0.65,-0.484 -1.036,-0.925 -0.38,-0.441 -0.754,-1.035 -1.048,-1.715 -0.135,-0.338 -0.306,-0.699 -0.379,-1.078 -0.105,-0.374 -0.209,-0.761 -0.252,-1.153 -0.135,-0.777 -0.165,-1.568 -0.104,-2.31 0.012,-0.735 0.117,-1.409 0.251,-1.967 0.105,-0.576 0.277,-1.016 0.381,-1.349 0.104,-0.317 0.177,-0.489 0.177,-0.489 0,0 0,0.183 0,0.526 0.031,0.343 0,0.815 0,1.373 0.031,0.281 0.031,0.594 0.031,0.907 -0.031,0.318 0.013,0.65 0.013,0.998 0,0.35 0.061,0.705 0.091,1.06 0.013,0.369 0.074,0.723 0.148,1.073 0.073,0.73 0.281,1.428 0.459,2.071 0.129,0.307 0.202,0.631 0.338,0.913 0.086,0.282 0.22,0.552 0.355,0.785 0.502,0.968 1.016,1.519 1.016,1.519 z"
   id="path117" />
				<path
   style="fill:#dd692f"
   d="m 224.99,79.434 c 0,0 0.245,-0.036 0.704,-0.062 0.46,-0.024 1.121,-0.068 1.888,0.013 0.797,0.049 1.716,0.196 2.671,0.429 0.472,0.135 0.975,0.244 1.464,0.429 0.515,0.172 0.987,0.368 1.477,0.577 0.484,0.221 0.974,0.465 1.428,0.729 0.46,0.227 0.901,0.545 1.299,0.815 0.448,0.257 0.797,0.595 1.152,0.889 0.386,0.282 0.692,0.577 0.974,0.87 0.576,0.551 0.986,1.097 1.299,1.477 0.282,0.379 0.429,0.588 0.429,0.588 0,0 -0.22,-0.16 -0.588,-0.441 -0.177,-0.147 -0.386,-0.325 -0.637,-0.527 -0.252,-0.195 -0.564,-0.392 -0.87,-0.625 -0.294,-0.233 -0.65,-0.472 -1.017,-0.711 -0.386,-0.233 -0.772,-0.502 -1.195,-0.723 -0.815,-0.491 -1.716,-0.969 -2.66,-1.373 -0.913,-0.441 -1.888,-0.76 -2.775,-1.09 -0.914,-0.295 -1.784,-0.545 -2.525,-0.724 -0.735,-0.183 -1.385,-0.33 -1.814,-0.403 -0.46,-0.076 -0.704,-0.137 -0.704,-0.137 z"
   id="path118" />
			</g>
			<g
   id="g120">
				<path
   style="fill:#6e150c"
   d="m 150.985,173.979 0.704,4.492 c 0,0 6.153,-3.206 19.93,-4.253 13.77,-1.048 39.257,-0.6 46.225,-33.87 2.978,-13.887 0.147,-18.961 0.147,-18.961 0,0 4.203,4.038 5.001,7.06 1.048,-5.945 2.567,-7.661 2.567,-7.661 l 1.642,6.251 c 0,0 4.308,-5.54 5.178,-5.649 0.839,-0.093 -0.104,6.452 -0.104,6.452 0,0 3.928,-5.545 8.31,-5.031 0.974,0.294 -5.147,6.042 -5.251,12.384 -0.092,6.35 -3.009,24.238 -8.623,32.046 -11.38,15.81 -63.421,26.019 -63.421,26.019 0,0 -0.735,35.63 -13.433,67.582 0,0 50.306,5.246 58.261,70.995 -3.469,-2.879 -4.976,-3.928 -4.976,-3.928 l 1.992,4.976 -2.727,-2.108 0.483,3.683 -5.459,-4.455 -1.257,5.497 -3.971,-7.072 c 0,0 -1.771,6.551 -3.493,6.803 -1.747,0.269 4.485,-26.186 -19.678,-42.426 -24.145,-16.24 -32.854,-13.371 -45.564,-11.006 -12.691,2.366 -42.076,-6.294 -47.052,-31.964 -4.976,-25.672 39.067,-54.75 49.044,-64.175 0,0 -23.643,-10.999 -54.283,0 -17.68,6.031 -21.399,12.576 -21.399,17.809 0,2.365 -2.984,-1.826 -3.236,-4.45 -1.502,2.09 -1.502,2.09 -1.502,2.09 l -0.741,-6.552 c 0,0 -3.482,5.51 -4.989,5.772 -0.753,0.257 0.742,-6.813 0.742,-6.813 l -6.717,3.407 c 0,0 16.191,-26.192 60.014,-28.557 20.407,-0.778 39.594,6.294 42.327,7.863 0.503,-4.535 0.46,-4.137 0.46,-4.137 0,0 5.578,3.413 14.849,1.887 z"
   id="path119" />
				<path
   style="fill:#300100"
   d="m 196.174,336.034 c -0.177,0 -0.325,-0.098 -0.429,-0.264 l -3.395,-6.048 c -0.63,2.065 -1.992,5.791 -3.566,6.036 0,0 0,0 -0.031,0 -0.919,0 -0.919,-0.999 -0.943,-3.609 -0.073,-7.183 -0.252,-26.266 -19.059,-38.902 -13.279,-8.954 -22.741,-12.758 -31.67,-12.758 -3.929,0 -7.587,0.698 -11.454,1.434 -0.668,0.134 -1.361,0.269 -2.066,0.391 -1.36,0.251 -2.892,0.38 -4.547,0.38 -15.265,0 -38.699,-10.149 -43.081,-32.75 -4.167,-21.411 25.28,-45.14 41.114,-57.911 3.131,-2.531 5.718,-4.597 7.47,-6.214 -2.641,-1.066 -12.232,-4.529 -25.653,-4.529 -9.296,0 -18.55,1.636 -27.528,4.872 -14.181,4.829 -21.075,10.491 -21.075,17.306 0,1.128 -0.63,1.225 -0.808,1.225 -1.048,0 -2.556,-2.427 -3.175,-4.443 l -0.839,1.183 c -0.122,0.171 -0.325,0.245 -0.533,0.183 -0.209,-0.056 -0.325,-0.22 -0.356,-0.441 l -0.588,-5.179 c -1.182,1.746 -3.339,4.627 -4.577,4.841 -0.031,0.018 -0.105,0.043 -0.129,0.018 -0.178,0 -0.325,-0.086 -0.46,-0.233 -0.135,-0.183 -0.533,-0.711 0.558,-6.171 l -5.815,2.941 c -0.203,0.105 -0.422,0.056 -0.588,-0.122 -0.147,-0.178 -0.147,-0.435 -0.043,-0.631 0.178,-0.269 16.84,-26.449 60.412,-28.797 1.078,-0.043 2.151,-0.055 3.217,-0.055 17.993,0 34.417,5.583 38.73,7.647 0.172,-1.691 0.307,-2.64 0.411,-3.18 -0.03,-0.068 -0.03,-0.128 -0.03,-0.214 l 0.043,0.012 c 0.134,-0.485 0.239,-0.485 0.447,-0.485 0.117,0 0.221,0.043 0.325,0.117 0.514,0.294 4.087,2.157 9.769,2.157 v 0 c 1.532,0 3.082,-0.135 4.651,-0.392 0.275,-0.043 0.527,0.148 0.577,0.429 l 0.618,3.825 c 1.857,-0.809 8.028,-3.138 19.482,-4.008 0.839,-0.061 1.74,-0.123 2.653,-0.178 14.598,-0.962 36.665,-2.427 43.143,-33.295 2.88,-13.445 0.227,-18.52 0.208,-18.568 -0.104,-0.233 -0.061,-0.515 0.117,-0.674 0.208,-0.159 0.46,-0.147 0.65,0.025 0.147,0.135 3.058,2.941 4.492,5.693 1.047,-4.725 2.316,-6.196 2.389,-6.269 0.129,-0.148 0.307,-0.197 0.484,-0.148 0.147,0.044 0.312,0.19 0.356,0.369 l 1.385,5.27 c 1.684,-2.12 4.044,-4.952 4.872,-5.043 0.281,0 0.459,0.08 0.594,0.239 0.472,0.6 0.349,2.978 0.086,5.049 1.532,-1.679 4.473,-4.246 7.691,-3.885 0.276,0.086 0.429,0.234 0.503,0.442 0.159,0.502 -0.227,1.066 -1.171,2.432 -1.532,2.274 -4.117,6.049 -4.191,10.057 -0.073,5.871 -2.801,24.138 -8.689,32.338 -4.799,6.655 -16.964,13.083 -36.224,19.119 -12.912,4.051 -24.825,6.563 -27.123,7.018 -0.122,4.106 -1.581,37.063 -13.212,66.723 2.775,0.429 13.947,2.574 25.714,10.841 12.47,8.751 28.189,26.352 32.35,60.522 0.031,0.196 -0.073,0.417 -0.252,0.508 -0.19,0.111 -0.385,0.093 -0.556,-0.036 -1.569,-1.293 -2.734,-2.218 -3.531,-2.837 l 1.299,3.266 c 0.104,0.227 0.031,0.46 -0.147,0.613 -0.178,0.148 -0.417,0.148 -0.594,0.013 l -1.784,-1.367 0.325,2.445 c 0.031,0.214 -0.074,0.429 -0.251,0.521 -0.178,0.122 -0.387,0.098 -0.558,-0.031 l -4.841,-3.952 -1.078,4.707 c -0.049,0.202 -0.208,0.361 -0.399,0.392 -0.034,0.02 -0.065,0.02 -0.096,0.02 z m -59.093,-56.601 c 9.118,0 18.745,3.874 32.215,12.931 19.262,12.943 19.439,32.437 19.512,39.772 0,0.993 0.03,2.009 0.074,2.494 0.845,-0.577 2.096,-3.598 2.837,-6.35 0.042,-0.195 0.208,-0.348 0.411,-0.373 0.195,-0.025 0.398,0.061 0.471,0.257 l 3.383,5.957 0.956,-4.241 c 0.031,-0.178 0.166,-0.325 0.313,-0.374 0.178,-0.061 0.325,-0.031 0.49,0.08 l 4.486,3.664 -0.313,-2.384 c -0.043,-0.227 0.062,-0.422 0.239,-0.534 0.178,-0.104 0.38,-0.091 0.527,0.031 l 1.299,0.993 -1.299,-3.253 c -0.074,-0.208 -0.025,-0.447 0.147,-0.595 0.165,-0.147 0.417,-0.165 0.595,-0.049 0.055,0.049 1.28,0.901 4.056,3.169 -4.338,-32.945 -19.617,-49.982 -31.762,-58.518 -13.28,-9.34 -25.781,-10.731 -25.916,-10.749 -0.148,-0.018 -0.282,-0.104 -0.356,-0.252 -0.104,-0.134 -0.104,-0.306 -0.061,-0.471 12.532,-31.493 13.433,-67.049 13.433,-67.392 0,-0.257 0.178,-0.454 0.399,-0.491 0.515,-0.11 51.998,-10.368 63.114,-25.836 5.314,-7.385 8.395,-24.832 8.5,-31.726 0.073,-4.332 2.776,-8.279 4.381,-10.638 0.282,-0.442 0.62,-0.925 0.816,-1.263 -3.868,0.013 -7.324,4.817 -7.366,4.86 -0.135,0.196 -0.386,0.264 -0.589,0.172 -0.208,-0.092 -0.325,-0.318 -0.312,-0.564 0.337,-2.218 0.564,-4.816 0.441,-5.718 -0.735,0.607 -2.874,3.089 -4.62,5.325 -0.129,0.147 -0.307,0.221 -0.484,0.178 -0.178,-0.037 -0.325,-0.19 -0.386,-0.374 l -1.324,-5.111 c -0.533,1.018 -1.299,3.015 -1.906,6.484 -0.061,0.233 -0.264,0.411 -0.49,0.423 -0.252,0.031 -0.423,-0.147 -0.485,-0.386 -0.429,-1.71 -2.096,-3.8 -3.334,-5.209 0.6,2.708 1.091,8.064 -0.846,17.085 -6.636,31.622 -30.047,33.179 -44.056,34.109 -0.931,0.049 -1.783,0.123 -2.629,0.172 -13.5,1.036 -19.671,4.161 -19.745,4.203 -0.135,0.062 -0.313,0.062 -0.441,-0.012 -0.148,-0.074 -0.252,-0.22 -0.283,-0.381 l -0.637,-3.983 c -1.428,0.215 -2.874,0.319 -4.308,0.319 v 0 c -4.976,0 -8.341,-1.33 -9.695,-1.985 -0.049,0.576 -0.178,1.606 -0.387,3.395 0,0.16 -0.086,0.325 -0.251,0.404 -0.147,0.086 -0.325,0.067 -0.459,-0.013 -2.801,-1.593 -20.279,-7.855 -38.903,-7.855 -1.047,0 -2.114,0.018 -3.186,0.061 -36.531,1.973 -53.861,20.812 -58.377,26.621 l 4.871,-2.463 c 0.178,-0.086 0.38,-0.061 0.503,0.061 0.16,0.122 0.233,0.319 0.191,0.527 -0.473,2.267 -0.932,4.902 -0.944,5.981 1.121,-0.779 3.052,-3.42 4.296,-5.345 0.104,-0.184 0.325,-0.27 0.502,-0.221 0.202,0.049 0.369,0.239 0.38,0.454 l 0.619,5.245 0.742,-1.048 c 0.135,-0.177 0.325,-0.251 0.533,-0.19 0.203,0.062 0.338,0.234 0.35,0.442 0.196,1.753 1.612,4.014 2.262,4.571 0,-0.018 0,-0.036 0,-0.06 0,-7.317 7.115,-13.323 21.755,-18.299 9.075,-3.26 18.433,-4.928 27.834,-4.928 16.013,0 26.7,4.89 26.805,4.939 0.147,0.062 0.251,0.227 0.282,0.405 0.03,0.171 -0.031,0.343 -0.148,0.465 -1.789,1.692 -4.589,3.96 -8.162,6.815 -15.646,12.611 -44.779,36.1 -40.753,56.869 4.296,22.013 27.203,31.916 42.125,31.916 1.606,0 3.052,-0.122 4.369,-0.369 0.705,-0.128 1.404,-0.263 2.065,-0.391 3.93,-0.738 7.601,-1.455 11.634,-1.455 z"
   id="path120" />
			</g>
			<path
   style="opacity:0.5;fill:#300100"
   d="m 164.798,187.314 c -3.309,-4.186 10.638,-6.281 26.566,-10.829 15.939,-4.541 23.569,-8.72 27.884,-18.507 4.338,-9.78 5.668,-29.336 6.655,-28.98 0.987,0.343 0.987,7.673 1.655,5.576 0.661,-2.096 3.321,-7.673 3.321,-5.576 0,2.089 0,8.021 1.324,4.877 1.33,-3.137 5.301,-7.684 3.971,-5.925 -1.312,1.74 -1.98,5.925 -2.316,10.46 -0.252,3.431 -0.503,9.033 -0.607,11.582 1.342,-5.993 2.04,-11.742 2.084,-14.8 0.104,-6.343 6.226,-12.091 5.251,-12.384 -4.382,-0.514 -8.31,5.031 -8.31,5.031 0,0 0.943,-6.545 0.104,-6.452 -0.87,0.109 -5.178,5.649 -5.178,5.649 l -1.642,-6.251 c 0,0 -1.52,1.716 -2.567,7.661 -0.797,-3.022 -5.001,-7.06 -5.001,-7.06 0,0 2.831,5.074 -0.147,18.961 -6.969,33.27 -32.455,32.822 -46.225,33.87 -13.777,1.047 -19.93,4.253 -19.93,4.253 l -0.704,-4.492 c -9.271,1.525 -14.849,-1.888 -14.849,-1.888 0,0 0.043,-0.399 -0.46,4.137 -2.732,-1.568 -21.92,-8.641 -42.327,-7.863 -0.712,0.037 -1.373,0.11 -2.071,0.147 5.815,0.319 31.56,2.097 33.018,7.973 1.655,6.643 -16.252,-4.884 -48.143,3.855 -8.622,1.398 -20.59,7.673 -23.9,10.822 -3.321,3.144 -1.667,-1.39 0.325,-4.547 1.992,-3.138 -5.962,3.505 -7.629,5.246 -1.667,1.746 0.668,-2.089 2.996,-5.246 2.317,-3.138 -1.329,0 -4.326,1.047 -0.766,0.27 -1.146,0.013 -1.25,-0.564 -6.275,5.381 -9.033,9.824 -9.033,9.824 l 6.717,-3.407 c 0,0 -1.495,7.071 -0.742,6.813 1.507,-0.263 4.989,-5.772 4.989,-5.772 l 0.741,6.552 c 0,0 0,0 1.502,-2.09 0.252,2.623 3.236,6.814 3.236,4.45 0,-5.233 3.72,-11.778 21.399,-17.809 30.641,-10.999 54.283,0 54.283,0 -9.977,9.425 -54.02,38.503 -49.044,64.175 4.976,25.67 34.361,34.33 47.052,31.964 12.71,-2.366 21.419,-5.234 45.564,11.006 24.163,16.24 17.931,42.695 19.678,42.426 1.722,-0.252 3.493,-6.803 3.493,-6.803 l 3.971,7.072 1.257,-5.497 5.459,4.455 -0.483,-3.683 2.727,2.108 -1.992,-4.976 c 0,0 1.507,1.048 4.976,3.928 -1.299,-10.84 -3.781,-20.033 -6.968,-27.828 3.806,13.17 -7.544,12.6 -15.1,-2.12 -10.939,-21.308 -37.516,-26.902 -34.538,-34.233 2.39,-5.846 12.164,-2.585 16.013,-1.029 -9.884,-4.964 -17.668,-5.785 -17.668,-5.785 12.698,-31.952 13.433,-67.582 13.433,-67.582 0,0 31.1,-6.104 50.496,-16.179 -15.267,7.688 -46.085,13.901 -48.99,10.237 z m -9.946,18.163 c -4.669,-10.822 -15.602,-16.755 -21.583,-15.705 -5.988,1.047 -8.31,0.349 -7.642,-0.35 0,0 6.655,-8.389 12.293,-8.04 5.637,0.356 17.931,1.042 20.59,7.691 2.642,6.631 0.987,27.24 -3.658,16.404 z"
   id="path121" />
			<g
   id="g124">
				<g
   id="g123">
					<path
   style="fill:#fbcaa2"
   d="m 148.639,202.947 c -8.224,-14.664 -22.436,-12.569 -40.857,1.048 -10.791,7.967 -22.448,21.265 -27.112,34.256 -5.76,15.971 1.459,31.5 16.025,38.326 14.199,6.655 32.339,7.985 43.51,-4.94 10.853,-12.488 15.161,-32.16 13.653,-48.694 -0.587,-6.41 -2.064,-14.345 -5.219,-19.996 z"
   id="path122" />
					<path
   style="fill:#dd692f"
   d="m 133.171,192.829 c 6.361,0 11.552,3.192 15.468,10.117 3.156,5.651 4.633,13.587 5.22,19.997 1.508,16.534 -2.8,36.206 -13.653,48.694 -6.122,7.073 -14.297,9.879 -22.803,9.879 -7.041,0 -14.286,-1.918 -20.708,-4.94 C 82.128,269.75 74.91,254.221 80.67,238.25 c 4.664,-12.991 16.32,-26.29 27.112,-34.256 9.725,-7.181 18.274,-11.165 25.389,-11.165 z m 0,-1.041 c -7.146,0 -15.62,3.714 -25.965,11.35 -9.389,6.962 -22.24,20.235 -27.485,34.759 -5.755,16.044 1.023,32.351 16.564,39.637 7.01,3.285 14.316,5.031 21.118,5.031 9.627,0 17.759,-3.529 23.544,-10.215 10.136,-11.674 15.584,-31.119 13.904,-49.516 -0.459,-4.829 -1.728,-13.924 -5.374,-20.419 -3.958,-7.048 -9.449,-10.627 -16.306,-10.627 z"
   id="path123" />
				</g>
			</g>
			<g
   id="g132">
				<path
   style="fill:#fcd2b0"
   d="m 102.101,253.205 c -0.178,-1.226 0.276,-2.378 1.151,-2.954 0.074,-0.055 0.172,-0.122 0.276,-0.159 0.503,-0.245 1.067,-0.257 1.612,-0.11 0.221,-0.258 0.399,-0.404 0.399,-0.404 v 0 0 c -0.104,0.146 -0.178,0.306 -0.252,0.452 0.809,0.301 1.563,1.018 1.962,1.993 0.135,0.348 0.239,0.699 0.282,1.047 0.386,0.122 0.619,0.226 0.619,0.226 -0.208,-0.067 -0.411,-0.116 -0.619,-0.177 0.134,1.214 -0.313,2.353 -1.165,2.929 -0.073,0.049 -0.177,0.123 -0.281,0.16 -0.484,0.221 -1.005,0.258 -1.49,0.123 0.031,0.159 0.056,0.257 0.056,0.257 -0.056,-0.098 -0.098,-0.197 -0.148,-0.27 -0.869,-0.257 -1.697,-0.993 -2.126,-2.04 -0.129,-0.258 -0.202,-0.522 -0.245,-0.791 -0.178,0.048 -0.282,0.079 -0.282,0.079 0.042,-0.141 0.146,-0.251 0.251,-0.361 z"
   id="path124" />
				<path
   style="fill:#fcd2b0"
   d="m 100.372,256.245 c -1.697,-2.826 -1.489,-6.288 1.416,-8.2 0.074,-0.049 0.165,-0.098 0.239,-0.159 4.633,-2.758 7.011,1.102 7.139,1.274 0,0.019 0,0.019 0,0.019 v 0 0 0 c 0,0 -0.233,-0.178 -0.589,-0.411 0.105,0.116 0.147,0.183 0.147,0.183 0,0 -3.75,-1.464 -5.607,-0.245 v 0 c -1.863,1.25 -3.162,5.012 0.534,8.481 1.845,1.746 3.566,1.354 4.823,0.527 1.287,-0.834 2.041,-2.084 2.041,-2.084 0,0 -0.018,0.122 -0.092,0.307 0.074,-0.16 0.147,-0.331 0.221,-0.509 v 0 0 c 0,0 -0.381,3.193 -2.285,4.467 -0.932,0.595 -2.158,0.773 -3.856,-0.011 -1.844,-0.821 -3.248,-2.145 -4.131,-3.639 z"
   id="path125" />
				<path
   style="fill:#faae7b"
   d="m 102.867,248.491 c -0.619,0.418 -1.257,1.036 -1.814,1.949 -1.048,1.637 -0.711,3.782 0.306,5.528 1.477,2.482 4.388,4.186 6.894,2.519 0.785,-0.503 1.52,-1.324 2.17,-2.549 0.074,-0.184 0.092,-0.307 0.092,-0.307 0,0 -0.754,1.25 -2.041,2.084 -1.256,0.827 -2.978,1.219 -4.823,-0.527 -3.696,-3.469 -2.397,-7.231 -0.534,-8.481 v 0 c 1.857,-1.22 5.607,0.245 5.607,0.245 0,0 -0.042,-0.068 -0.147,-0.183 -1.078,-0.651 -3.467,-1.741 -5.71,-0.278 z"
   id="path126" />
				<path
   style="fill:#fccaa1"
   d="m 110.644,255.429 c -4.076,8.831 -12.649,-0.214 -9.591,-4.989 3.291,-5.153 8.113,-1.262 8.113,-1.262 0,0 -2.371,-4.118 -7.139,-1.293 -4.756,2.849 -2.88,9.572 2.475,11.999 5.332,2.446 6.142,-4.455 6.142,-4.455 z"
   id="path127" />
				<path
   style="fill:#e18a4c"
   d="m 101.788,248.044 c -2.905,1.912 -3.113,5.375 -1.416,8.2 0.882,1.494 2.286,2.818 4.13,3.64 1.698,0.784 2.923,0.606 3.856,0.011 1.905,-1.274 2.285,-4.467 2.285,-4.467 -0.074,0.178 -0.147,0.349 -0.221,0.509 -0.65,1.225 -1.385,2.046 -2.17,2.549 -2.506,1.667 -5.417,-0.036 -6.894,-2.519 -1.017,-1.746 -1.355,-3.891 -0.306,-5.528 0.557,-0.912 1.195,-1.531 1.814,-1.949 3.009,-1.967 6.3,0.687 6.3,0.687 v 0 c 0,0 0,0 0,-0.019 -0.129,-0.172 -2.506,-4.032 -7.139,-1.274 -0.074,0.063 -0.165,0.111 -0.239,0.16 z"
   id="path128" />
				<path
   style="fill:#fddbbe"
   d="m 107.249,252.022 c 0.692,1.679 0.177,3.555 -1.164,4.185 -1.33,0.62 -3.009,-0.239 -3.708,-1.929 -0.705,-1.686 -0.202,-3.573 1.151,-4.186 1.348,-0.619 3.015,0.239 3.721,1.93 z"
   id="path129" />
				<path
   style="fill:#e18f54"
   d="m 102.101,253.205 c -0.105,0.11 -0.209,0.221 -0.252,0.361 0,0 0.104,-0.031 0.282,-0.079 0,-0.098 -0.03,-0.191 -0.03,-0.282 z"
   id="path130" />
				<path
   style="fill:#e18f54"
   d="m 105.539,249.577 c 0,0 -0.178,0.146 -0.399,0.404 0.043,0.012 0.104,0.043 0.147,0.048 0.074,-0.146 0.148,-0.306 0.252,-0.452 z"
   id="path131" />
				<path
   style="fill:#e2955a"
   d="m 105.14,249.981 c -0.417,0.484 -1.048,1.329 -1.299,2.488 -0.515,0.037 -0.974,0.159 -1.385,0.416 -0.122,0.074 -0.251,0.197 -0.355,0.319 0,0.091 0.03,0.184 0.03,0.282 0.325,-0.067 0.913,-0.209 1.606,-0.295 -0.061,0.895 0.116,1.955 0.765,3.126 0.019,0 0.049,0.013 0.092,0.013 -0.092,-0.514 -0.325,-1.728 -0.178,-3.236 1.018,-0.111 2.17,-0.16 3.114,0.025 0,-0.006 0,-0.025 0,-0.049 -0.711,-0.233 -1.888,-0.564 -3.009,-0.619 0.129,-0.766 0.38,-1.6 0.766,-2.421 -0.043,-0.006 -0.104,-0.037 -0.147,-0.049 z"
   id="path132" />
			</g>
			<g
   id="g133">
				<path
   style="fill:#faaa74"
   d="m 96.413,261.711 c -27.895,-28.986 18.599,-62.52 18.599,-62.52 l -0.086,-0.012 c -2.292,1.397 -4.694,3.003 -7.146,4.816 -10.791,7.967 -22.448,21.265 -27.112,34.256 -5.76,15.971 1.459,31.5 16.025,38.326 14.199,6.655 32.339,7.985 43.51,-4.94 10.853,-12.488 15.161,-32.16 13.653,-48.694 -0.429,-4.572 -1.329,-9.928 -2.935,-14.671 11.689,59.763 -37.587,67.38 -54.508,53.439 z"
   id="path133" />
			</g>
			<path
   style="fill:#fdd8b6"
   d="m 83.428,62.851 c -5.772,-4.131 -13.622,-2.832 -16.454,0.135 -0.049,0.048 -0.03,0.159 0.074,0.146 5.417,-1.544 10.155,-1.949 15.302,1.478 4.137,2.708 6.183,7.354 7.764,11.845 1.477,4.179 3.009,1.716 2.954,1.441 -0.742,-4.995 -4.842,-11.626 -9.64,-15.045 z"
   id="path134" />
			<g
   id="g135">
				<path
   style="fill:#300100"
   d="m 107.488,16.864 c -0.491,1.312 -3.573,10.443 1.372,15.419 2.035,0.711 4.278,1.177 6.625,1.177 -6.215,-4.199 -7.715,-11.729 -7.997,-16.596 z"
   id="path135" />
			</g>
			<path
   style="fill:#893c2e"
   d="m 110.441,25.107 c 0,0 4.511,7.286 8.751,4.118 4.204,-3.18 26.83,-19.678 61.221,-7.936 17.477,5.705 28.649,18.397 27.736,26.657 -0.901,8.249 -9.953,-0.637 -23.827,-8.886 -13.856,-8.254 -21.105,9.512 -37.682,0 -16.59,-9.516 -31.376,5.7 -37.4,12.049 -5.429,5.399 -3.922,-6.974 10.853,-13.635 -5.141,0.638 -12.354,-0.95 -16.282,-4.13 9.946,2.536 15.068,0.643 15.068,0.643 0,0 -6.936,-2.231 -8.438,-8.88 z"
   id="path136" />
			<g
   id="g138">
				<path
   style="fill:#b95323"
   d="m 252.174,119.254 c -0.148,-0.159 -0.387,0.073 -0.221,0.257 2.077,2.746 3.848,5.766 4.148,9.346 0.367,3.867 -1.863,6.257 -4.211,8.83 -0.208,0.202 -0.03,0.631 0.252,0.527 8.814,-3.222 4.58,-13.984 0.032,-18.96 z"
   id="path137" />
				<path
   style="fill:#b95323"
   d="m 260.57,124.942 c -0.202,-0.161 -0.484,0.097 -0.306,0.306 4.798,5.479 1.857,11.05 -2.452,15.517 -0.221,0.257 0.061,0.631 0.356,0.496 6.299,-2.978 7.69,-11.65 2.402,-16.319 z"
   id="path138" />
			</g>
			<g
   id="g140">
				<path
   style="fill:#b95323"
   d="m 243.687,55.258 c -0.178,-0.044 -0.233,0.239 -0.061,0.307 2.794,0.888 5.466,2.139 7.384,4.54 2.035,2.598 1.576,5.454 1.091,8.519 -0.043,0.239 0.282,0.453 0.429,0.227 4.822,-6.858 -3.267,-12.374 -8.843,-13.593 z"
   id="path139" />
				<path
   style="fill:#b95323"
   d="m 252.351,55.001 c -0.221,-0.031 -0.282,0.312 -0.073,0.361 5.993,1.453 6.508,6.986 5.503,12.391 -0.044,0.318 0.343,0.441 0.49,0.183 3.114,-5.392 0.056,-12.329 -5.92,-12.935 z"
   id="path140" />
			</g>
			<path
   style="fill:#300100"
   d="m 76.668,301.446 c 0,0 -0.165,0.564 -0.441,1.354 -0.123,0.404 -0.282,0.852 -0.46,1.341 -0.147,0.491 -0.386,0.994 -0.533,1.52 -0.178,0.515 -0.38,1.03 -0.527,1.533 -0.165,0.478 -0.355,0.92 -0.49,1.323 -0.282,0.791 -0.534,1.312 -0.534,1.312 0,0 -0.086,-0.577 -0.024,-1.452 0,-0.442 0.098,-0.925 0.203,-1.458 0.074,-0.252 0.104,-0.534 0.178,-0.803 0.104,-0.27 0.178,-0.54 0.282,-0.821 0.177,-0.534 0.398,-1.055 0.661,-1.533 0.105,-0.257 0.252,-0.465 0.386,-0.668 0.117,-0.214 0.221,-0.41 0.356,-0.576 0.503,-0.692 0.943,-1.072 0.943,-1.072 z"
   id="path141" />
			<path
   style="fill:#893c2e"
   d="m 74.009,268.096 c -3.67,1.544 -5.858,5.515 -7.672,9.009 -3.113,5.919 -5.418,11.993 -7.704,18.286 -1.862,5.167 -3.069,8.31 -1.255,11.154 2.984,4.669 6.054,-7.998 6.361,-9.664 0.815,-4.516 1.728,-9.052 3.573,-13.256 2.108,-4.805 5.252,-9.032 8.071,-13.377 0.648,-1.001 -0.044,-2.703 -1.374,-2.152 z"
   id="path142" />
			<path
   style="fill:#893c2e"
   d="m 162.157,269.395 c 0,0 20.915,10.835 31.199,30.733 4.976,9.438 7.973,0.349 -3.659,-14.664 -11.6,-15.015 -33.177,-23.404 -27.54,-16.069 z"
   id="path143" />
			<g
   id="g148">
				<path
   style="fill:none"
   d="m 137.92,181.382 c -5.639,-0.349 -12.293,8.04 -12.293,8.04 -0.668,0.699 1.654,1.398 7.642,0.35 5.98,-1.049 16.913,4.883 21.583,15.705 4.646,10.835 6.301,-9.773 3.659,-16.404 -2.659,-6.649 -14.953,-7.335 -20.591,-7.691 z"
   id="path144" />
				<path
   style="fill:none"
   d="m 213.959,176.982 c -0.043,0.03 -0.129,0.068 -0.172,0.098 0.043,-0.031 0.098,-0.068 0.172,-0.098 z"
   id="path145" />
				<path
   style="fill:none"
   d="m 215.779,176.001 c -0.356,0.202 -0.742,0.417 -1.152,0.619 0.41,-0.202 0.796,-0.416 1.152,-0.619 z"
   id="path146" />
				<path
   style="opacity:0.5;fill:#300100"
   d="m 214.626,176.62 c -0.208,0.116 -0.429,0.239 -0.668,0.361 0.24,-0.121 0.461,-0.245 0.668,-0.361 z"
   id="path147" />
				<path
   style="opacity:0.5;fill:#300100"
   d="m 215.779,176.001 c 2.696,-1.513 5.093,-3.1 7.084,-4.761 -1.121,0.631 -2.316,1.421 -3.616,2.457 -0.944,0.772 -2.126,1.545 -3.468,2.304 z"
   id="path148" />
			</g>
			<path
   style="fill:#893c2e"
   d="m 59.902,182.78 c 0,0 22.583,-10.131 44.129,-8.041 10.644,0.355 6.999,-4.884 -8.616,-4.884 -25.224,0 -47.145,14.665 -35.513,12.925 z"
   id="path149" />
			<path
   style="fill:#893c2e"
   d="m 227.894,145.054 c 0,0 0.662,21.315 -26.565,31.781 -16.608,4.903 -2.011,5.945 11.275,-1.047 13.298,-6.974 17.282,-18.159 18.937,-26.192 1.654,-8.029 0.661,-7.33 -0.662,-3.487 -1.329,3.836 -0.343,-2.796 -0.668,-6.288 -0.325,-3.506 -0.987,0 -2.317,5.233 z"
   id="path150" />
			<path
   style="fill:#893c2e"
   d="m 129.831,187.032 c 0,0 5.784,-7.612 9.051,-3.419 3.242,4.191 4.339,4.191 9.383,2.28 5.062,-1.894 6.864,4.191 7.25,9.124 0.356,4.951 -1.446,4.951 -5.08,-0.374 -3.616,-5.331 -11.938,-7.611 -16.265,-6.471 -4.339,1.14 -6.508,0.766 -4.339,-1.14 z"
   id="path151" />
			<path
   style="fill:#893c2e"
   d="m 185.977,211.766 c 0,0 9.149,-20.107 29.445,-17.177 7.569,1.048 13.917,6.079 16.926,9.634 2.985,3.573 -2.8,-9.836 -18.519,-13.188 -12.721,-1.882 -23.691,5.226 -27.852,20.731 z"
   id="path152"
   inkscape:label="path152" />
			<path
   style="fill:#893c2e"
   d="m 238.508,220.553 c 0,0 -0.595,18.642 -17.711,22.625 -5.375,0.62 -0.785,4.608 7.378,0.417 8.164,-4.191 12.135,-15.915 10.333,-23.042 z"
   id="path153" />
		<ellipse
   style="fill:#fbcaa2;fill-opacity:1;stroke:#000000;stroke-width:0.0946378;stroke-dasharray:none;stroke-opacity:1"
   id="path157-8"
   cx="144.48763"
   cy="148.53581"
   rx="18.719425"
   ry="13.784066"
   inkscape:label="path157" /><ellipse
   style="opacity:1;fill:#300100;fill-opacity:1"
   id="path157"
   cx="144.56496"
   cy="148.67776"
   rx="17.479404"
   ry="12.955323"
   inkscape:label="path157" /></g>
	<ellipse
   style="opacity:0.409794;fill:#800080;fill-opacity:1"
   id="path158"
   cx="144.35931"
   cy="154.43568"
   rx="13.983523"
   ry="6.3748417"
   inkscape:label="path158" /></g>
</g>

</svg>
