<?xml version="1.0" encoding="UTF-8"?><svg xmlns="http://www.w3.org/2000/svg" viewBox="0 0 363.67 46.24"><g id="a"/><g id="b"><g id="c"><g><path d="M.1,31.1L6.08,10.91c.44-1.56,.88-2.66,1.33-3.29,.28-.37,.66-.68,1.13-.93v-.1h-.35c-.49,0-1.5,.28-3.04,.83-1.69,.59-2.86,.88-3.49,.88-.34,0-.57-.06-.69-.18-.13-.12-.19-.32-.19-.6,0-.67,.19-1.4,.57-2.2s.87-1.51,1.47-2.15c.6-.64,1.22-1.09,1.86-1.36,1.46-.57,3.44-1.01,5.93-1.33s5.21-.48,8.15-.48c3.15,0,5.83,.5,8.04,1.48,2.21,.99,3.89,2.46,5.04,4.4,1.15,1.94,1.72,4.29,1.72,7.04s-.55,5.55-1.65,8.36c-1.1,2.81-2.55,5.16-4.36,7.05-4.24,4.49-9.91,6.74-17,6.74-2.28,0-4.36-.18-6.25-.55-1.89-.37-3.13-.82-3.73-1.36-.39-.3-.58-.75-.58-1.33,0-.15,.03-.39,.1-.73ZM17.09,6.08l-5.05,19.11c-.03,.12-.1,.43-.2,.93-.3,1.32-.65,2.35-1.03,3.07-.27,.55-.7,1.19-1.28,1.91,.49,.03,1.03,.05,1.63,.05,1.46,0,2.67-.1,3.65-.29,.97-.19,1.88-.52,2.71-.99,.84-.47,1.63-1.07,2.36-1.81,1.39-1.42,2.46-3.08,3.21-4.95,.75-1.88,1.12-3.91,1.12-6.11,0-2.01-.3-3.84-.91-5.48s-1.44-2.94-2.52-3.88c-1.07-.95-2.31-1.46-3.7-1.55Z"/><path d="M52.42,27.91v.1l-.1-.1c-1.56,1.83-2.99,3.32-4.29,4.49s-2.5,2.04-3.6,2.63-2.11,.88-3.03,.88c-1.88,0-3.43-.63-4.65-1.89s-1.83-2.85-1.83-4.78c0-1.19,.3-2.6,.9-4.22,.6-1.62,1.43-3.22,2.49-4.78,1.76-2.55,3.97-4.71,6.64-6.49,2.75-1.83,5.4-2.74,7.95-2.74,2.15,0,3.91,.44,5.29,1.32s2.07,1.99,2.07,3.33c0,.99-.34,2.04-1.03,3.14,.9,0,1.47,.1,1.71,.29,.23,.19,.35,.64,.35,1.35,0-.07-.04,.28-.13,1.03-.1,1.66-.15,3.21-.15,4.65,0,.75,0,1.32,.02,1.71s.05,.83,.1,1.33c.05,.5,.1,.91,.15,1.21,.13,.79,.35,1.57,.65,2.34-1.01,.99-1.97,1.71-2.89,2.17-.92,.46-1.86,.69-2.82,.69-2.58,0-3.87-2.16-3.87-6.49,0-.5,.02-.9,.05-1.18Zm1.51-5.76l-.48,.15c-1.21,.33-2.08,.5-2.61,.5-.65,0-.98-.17-.98-.5,0-.12,.13-.43,.4-.93,.94-1.42,1.41-2.77,1.41-4.02,0-.72-.13-1.38-.38-1.97s-.53-.89-.83-.89c-.27,0-.68,.29-1.23,.85-1.56,1.69-2.79,3.43-3.71,5.21-.91,1.78-1.37,3.36-1.37,4.75,0,.92,.19,1.68,.57,2.29,.38,.6,.85,.91,1.42,.91,.49,0,1.4-.52,2.73-1.56,1.33-1.04,2.83-2.41,4.49-4.12l.68-.55-.1-.1Z"/><path d="M67.3,35.48c-.75-.05-1.44-.39-2.06-1.03-.62-.67-1.06-1.4-1.32-2.17-.26-.78-.39-1.79-.39-3.03,0-2.77,.51-5.89,1.55-9.37,1.03-3.48,2.2-6,3.51-7.55,.52-.65,1.24-.98,2.16-.98,.97,0,1.76,.44,2.35,1.33,.59,.89,.89,2.05,.89,3.49,0,2.13-.31,4.62-.92,7.48s-1.47,5.83-2.58,8.91c-.44,1.24-.97,2.08-1.61,2.52-.44,.27-.95,.4-1.53,.4h-.05Zm3.02-25.27c-1.58-.05-2.36-1-2.36-2.84,0-.92,.23-1.99,.69-3.21,.46-1.21,.98-2.12,1.57-2.7,.3-.32,.61-.54,.92-.68,.31-.13,.71-.2,1.19-.2,.84,0,1.45,.21,1.85,.62,.39,.41,.59,1.09,.59,2.05,0,1.19-.21,2.32-.62,3.38-.41,1.07-.96,1.93-1.65,2.59-.69,.66-1.39,.99-2.11,.99h-.08Z"/><path d="M90.06,16.42c.67-1.89,1.23-3.88,1.68-5.95,.45-2.07,.68-3.66,.68-4.76,0-.3-.08-.45-.25-.45-.27,0-.74,.6-1.41,1.8-.67,1.2-1.23,2.42-1.68,3.66-.97,2.73-1.72,5-2.25,6.8s-.89,3.32-1.09,4.54c-.2,1.22-.3,2.47-.3,3.75,0,1.09,.12,1.89,.37,2.39,.24,.5,.63,.75,1.17,.75,.92,0,1.95-.41,3.09-1.22,1.14-.81,2.17-1.88,3.09-3.21,.72-.99,1.28-1.48,1.68-1.48,.52,0,.78,.41,.78,1.23,0,1.79-.56,3.54-1.68,5.25-1.12,1.71-2.57,3.1-4.34,4.16s-3.57,1.6-5.42,1.6c-2.26,0-4.11-.71-5.53-2.14s-2.14-3.29-2.14-5.58c0-1.88,.4-4.08,1.21-6.6,.8-2.52,1.88-5.06,3.23-7.62,1.35-2.56,2.83-4.87,4.44-6.95,1.61-2.08,3.2-3.67,4.78-4.78,.97-.72,2.05-1.08,3.24-1.08,.9,0,1.73,.28,2.46,.84,.74,.56,1.31,1.34,1.71,2.35s.6,2.12,.6,3.34c0,2.63-.52,5.2-1.55,7.72-1.03,2.51-2.47,4.69-4.31,6.54-.87,.89-1.71,1.58-2.51,2.09-.8,.5-1.51,.75-2.11,.75s-.88-.23-.88-.68c0-.25,.22-.73,.65-1.43,.59-.92,1.27-2.31,2.06-4.17,.07-.18,.14-.38,.23-.59,.08-.21,.18-.5,.3-.87Z"/><path d="M115.39,17.98l.33-1.08c.44-1.68,1.1-2.97,1.99-3.87,.57-.57,1.22-1.04,1.96-1.41,.74-.37,1.41-.55,2.01-.55,1.11,0,1.66,.47,1.66,1.41,0,.47-.15,1.2-.45,2.19-.3,.99-.7,2.11-1.2,3.36-.49,1.25-1.07,2.62-1.74,4.11-.66,1.49-1.4,3.03-2.2,4.6-1.46,2.98-2.94,5.51-4.43,7.57-1.07,1.48-2.17,2.78-3.27,3.92-1.11,1.14-2.27,2.16-3.49,3.07s-2.37,1.59-3.45,2.05-2.08,.69-2.98,.69c-.75,0-1.13-.33-1.13-.98,0-.52,.12-1.14,.35-1.86,.24-.72,.56-1.4,.98-2.04,.45-.6,1.02-1.14,1.71-1.61,.87-.6,2.16-1.29,3.85-2.06-1.01-1.69-1.77-3.03-2.29-4.02-.52-.99-1.09-2.22-1.71-3.7-1.38-3.27-2.07-6.24-2.07-8.9,0-2.03,.25-3.68,.75-4.95,.45-1.09,1.28-1.86,2.49-2.31,.97-.39,1.84-.58,2.62-.58,1.09,0,1.82,.42,2.2,1.24,.38,.83,.71,2.77,.99,5.82,.3,3.27,.79,6.5,1.47,9.68,.12,.49,.25,1.16,.41,2.01h.1c.45-.99,.95-2.19,1.48-3.59,.17-.4,.75-1.89,1.76-4.45,.57-1.54,1-2.79,1.28-3.75Z"/><path d="M157.49,17c.65-1.68,1.21-3.56,1.67-5.64,.46-2.09,.69-3.81,.69-5.17,0-.89-.21-1.33-.63-1.33-.39,0-1.09,.51-2.11,1.53-1.53,1.64-2.88,3.53-4.07,5.67-1.19,2.14-2.1,4.32-2.74,6.55-.64,2.23-.96,4.41-.96,6.54,0,1.68,.18,2.82,.54,3.44,.36,.62,1.04,.93,2.05,.93,.87,0,1.95-.24,3.24-.73,2.92-1.16,6-2.81,9.25-4.95,1.44-.92,2.35-1.38,2.74-1.38,.55,0,.83,.28,.83,.83v.05c-.08,.75-.34,1.61-.78,2.56-.87,1.84-1.63,3.05-2.26,3.62-1.07,.96-2.54,1.89-4.41,2.82-1.87,.92-3.78,1.68-5.75,2.26-1.96,.59-3.6,.88-4.93,.88-1.53,0-2.97-.29-4.32-.87-1.36-.58-2.54-1.37-3.55-2.38-1-1.01-1.79-2.18-2.36-3.52-.57-1.34-.85-2.77-.85-4.3,0-1.16,.18-2.41,.55-3.76,.37-1.35,.91-2.76,1.61-4.24,.7-1.47,1.5-2.86,2.39-4.15,.52-.77,1.06-1.51,1.62-2.21,.56-.7,1.18-1.39,1.86-2.06,.68-.67,1.42-1.32,2.22-1.94s1.54-1.15,2.21-1.58c1.17-.79,2.39-1.47,3.65-2.06s2.42-1.02,3.5-1.31c1.07-.28,2.05-.43,2.94-.43,2.2,0,3.91,.57,5.15,1.71,1.24,1.14,1.86,2.72,1.86,4.73,0,2.11-.52,4.32-1.56,6.62-1.04,2.31-2.42,4.32-4.15,6.05-1.19,1.22-2.37,2.19-3.55,2.89-1.17,.7-2.23,1.06-3.17,1.06-.82,0-1.23-.39-1.23-1.18,0-.37,.23-.88,.68-1.53,.64-.91,1.34-2.25,2.11-4.02Z"/><path d="M187.31,4.58v-.4c0-.62-.08-.93-.25-.93-.22,0-.56,.33-1.02,1-.46,.67-.88,1.42-1.24,2.24-.92,2.09-1.73,4.31-2.44,6.65-.7,2.34-1.25,4.67-1.63,7-.13,.9-.28,1.89-.43,2.94l.12,.1c1.68-1.73,2.92-2.95,3.75-3.67s1.89-1.54,3.19-2.46c1.64-1.14,3-1.71,4.07-1.71,.69,0,1.22,.25,1.6,.74s.57,1.18,.57,2.05c0,.5-.1,1.22-.3,2.16-.35,1.98-.53,3.65-.53,5,0,.62,.05,1.27,.15,1.96,.08,.54,.36,1.62,.83,3.24,.39,1.24,.58,1.93,.58,2.06,0,.24-.28,.52-.83,.85-1.78,1.17-3.41,1.76-4.9,1.76-1.22,0-2.22-.6-2.98-1.79s-1.14-2.74-1.14-4.66c0-.75,.08-1.67,.23-2.74l-.13-.1c-2.38,2.45-3.97,4.11-4.78,4.96-2.98,2.88-5.28,4.32-6.89,4.32-.74,0-1.35-.49-1.82-1.47s-.72-2.26-.72-3.83c0-3.39,1.05-7.71,3.14-12.97,.84-2.04,1.73-4,2.67-5.87s1.84-3.48,2.69-4.84c.62-.96,1.27-1.79,1.95-2.5,.68-.71,1.37-1.31,2.06-1.79s1.4-.83,2.12-1.07c.72-.23,1.44-.35,2.16-.35,1.79,0,3.26,.55,4.39,1.66,1.13,1.11,1.7,2.52,1.7,4.25,0,1.21-.34,2.49-1.03,3.85s-1.65,2.65-2.89,3.87c-.79,.77-1.68,1.45-2.68,2.05s-1.77,.89-2.33,.89c-.17,0-.32-.06-.45-.18-.13-.12-.2-.27-.2-.45,0-.25,.22-.8,.65-1.63,.5-.92,1-2.05,1.48-3.38,.49-1.33,.86-2.6,1.12-3.8,.26-1.2,.39-2.21,.39-3.03Z"/><path d="M213.36,27.91v.1l-.1-.1c-1.56,1.83-2.99,3.32-4.29,4.49s-2.5,2.04-3.6,2.63-2.11,.88-3.03,.88c-1.88,0-3.43-.63-4.65-1.89s-1.83-2.85-1.83-4.78c0-1.19,.3-2.6,.9-4.22,.6-1.62,1.43-3.22,2.49-4.78,1.76-2.55,3.97-4.71,6.64-6.49,2.75-1.83,5.4-2.74,7.95-2.74,2.15,0,3.91,.44,5.29,1.32s2.07,1.99,2.07,3.33c0,.99-.34,2.04-1.03,3.14,.9,0,1.47,.1,1.71,.29,.23,.19,.35,.64,.35,1.35,0-.07-.04,.28-.13,1.03-.1,1.66-.15,3.21-.15,4.65,0,.75,0,1.32,.02,1.71s.05,.83,.1,1.33c.05,.5,.1,.91,.15,1.21,.13,.79,.35,1.57,.65,2.34-1.01,.99-1.97,1.71-2.89,2.17-.92,.46-1.86,.69-2.82,.69-2.58,0-3.87-2.16-3.87-6.49,0-.5,.02-.9,.05-1.18Zm1.51-5.76l-.48,.15c-1.21,.33-2.08,.5-2.61,.5-.65,0-.98-.17-.98-.5,0-.12,.13-.43,.4-.93,.94-1.42,1.41-2.77,1.41-4.02,0-.72-.13-1.38-.38-1.97s-.53-.89-.83-.89c-.27,0-.68,.29-1.23,.85-1.56,1.69-2.79,3.43-3.71,5.21-.91,1.78-1.37,3.36-1.37,4.75,0,.92,.19,1.68,.57,2.29,.38,.6,.85,.91,1.42,.91,.49,0,1.4-.52,2.73-1.56,1.33-1.04,2.83-2.41,4.49-4.12l.68-.55-.1-.1Z"/><path d="M238.12,16.42c.67-1.89,1.23-3.88,1.68-5.95,.45-2.07,.68-3.66,.68-4.76,0-.3-.08-.45-.25-.45-.27,0-.74,.6-1.41,1.8-.67,1.2-1.23,2.42-1.68,3.66-.97,2.73-1.72,5-2.25,6.8s-.89,3.32-1.09,4.54c-.2,1.22-.3,2.47-.3,3.75,0,1.09,.12,1.89,.37,2.39,.24,.5,.63,.75,1.17,.75,.92,0,1.95-.41,3.09-1.22,1.14-.81,2.17-1.88,3.09-3.21,.72-.99,1.28-1.48,1.68-1.48,.52,0,.78,.41,.78,1.23,0,1.79-.56,3.54-1.68,5.25-1.12,1.71-2.57,3.1-4.34,4.16s-3.57,1.6-5.42,1.6c-2.26,0-4.11-.71-5.53-2.14s-2.14-3.29-2.14-5.58c0-1.88,.4-4.08,1.21-6.6,.8-2.52,1.88-5.06,3.23-7.62,1.35-2.56,2.83-4.87,4.44-6.95,1.61-2.08,3.2-3.67,4.78-4.78,.97-.72,2.05-1.08,3.24-1.08,.9,0,1.73,.28,2.46,.84,.74,.56,1.31,1.34,1.71,2.35s.6,2.12,.6,3.34c0,2.63-.52,5.2-1.55,7.72-1.03,2.51-2.47,4.69-4.31,6.54-.87,.89-1.71,1.58-2.51,2.09-.8,.5-1.51,.75-2.11,.75s-.88-.23-.88-.68c0-.25,.22-.73,.65-1.43,.59-.92,1.27-2.31,2.06-4.17,.07-.18,.14-.38,.23-.59,.08-.21,.18-.5,.3-.87Z"/><path d="M259.85,16.42c.67-1.89,1.23-3.88,1.68-5.95,.45-2.07,.68-3.66,.68-4.76,0-.3-.08-.45-.25-.45-.27,0-.74,.6-1.41,1.8-.67,1.2-1.23,2.42-1.68,3.66-.97,2.73-1.72,5-2.25,6.8s-.89,3.32-1.09,4.54c-.2,1.22-.3,2.47-.3,3.75,0,1.09,.12,1.89,.37,2.39,.24,.5,.63,.75,1.17,.75,.92,0,1.95-.41,3.09-1.22,1.14-.81,2.17-1.88,3.09-3.21,.72-.99,1.28-1.48,1.68-1.48,.52,0,.78,.41,.78,1.23,0,1.79-.56,3.54-1.68,5.25-1.12,1.71-2.57,3.1-4.34,4.16s-3.57,1.6-5.42,1.6c-2.26,0-4.11-.71-5.53-2.14s-2.14-3.29-2.14-5.58c0-1.88,.4-4.08,1.21-6.6,.8-2.52,1.88-5.06,3.23-7.62,1.35-2.56,2.83-4.87,4.44-6.95,1.61-2.08,3.2-3.67,4.78-4.78,.97-.72,2.05-1.08,3.24-1.08,.9,0,1.73,.28,2.46,.84,.74,.56,1.31,1.34,1.71,2.35s.6,2.12,.6,3.34c0,2.63-.52,5.2-1.55,7.72-1.03,2.51-2.47,4.69-4.31,6.54-.87,.89-1.71,1.58-2.51,2.09-.8,.5-1.51,.75-2.11,.75s-.88-.23-.88-.68c0-.25,.22-.73,.65-1.43,.59-.92,1.27-2.31,2.06-4.17,.07-.18,.14-.38,.23-.59,.08-.21,.18-.5,.3-.87Z"/><path d="M275.54,28.21c.18,1.01,.84,1.51,1.96,1.51,1.26,0,2.89-.74,4.9-2.21,1.17-.85,1.96-1.28,2.36-1.28,.5,0,.97,.13,1.41,.4,.44,.27,.65,.54,.65,.83,0,.3-.24,.7-.73,1.18-.89,.89-1.91,1.76-3.07,2.6-1.16,.85-2.27,1.55-3.34,2.11-1.07,.56-2.15,1.01-3.22,1.33-1.07,.33-2.03,.49-2.87,.49-2.1,0-3.77-.6-5.03-1.8s-1.89-2.79-1.89-4.79c0-1.52,.33-3.25,.99-5.17,.66-1.92,1.55-3.72,2.68-5.39,1.32-1.96,2.95-3.6,4.88-4.9,2.38-1.58,4.66-2.36,6.84-2.36,1.58,0,2.81,.5,3.71,1.5,.9,1,1.34,2.37,1.34,4.11,0,1.36-.36,2.77-1.07,4.25-.71,1.47-1.76,2.89-3.16,4.25-1.14,1.14-2.26,2.03-3.36,2.67s-2.06,.96-2.88,.96c-.37,0-.75-.09-1.13-.28Zm-.05-.8c.77-.52,1.36-1.04,1.76-1.56,.89-1.09,1.58-2.34,2.06-3.75,.39-.92,.69-1.95,.91-3.09s.33-2.2,.33-3.19c0-.92-.19-1.38-.58-1.38-.54,0-1.36,1.18-2.46,3.55-.65,1.42-1.19,2.84-1.6,4.26-.41,1.42-.62,2.64-.62,3.66,0,.35,.07,.86,.2,1.51Z"/><path d="M299.57,21.97l1.52-1.76c1.53-1.7,2.75-2.96,3.64-3.79,.9-.83,1.7-1.43,2.41-1.8s1.44-.55,2.17-.55c1.19,0,2.03,.32,2.51,.96,.49,.64,.73,1.74,.73,3.32,0,.65-.07,1.62-.2,2.89-.2,1.69-.3,3.29-.3,4.78,0,1.68,.08,3.03,.25,4.07,.12,.64,.29,1.27,.53,1.91,.17,.6,.25,1.01,.25,1.23,0,.27-.1,.48-.3,.63-.52,.45-1.21,.85-2.06,1.18s-1.58,.5-2.16,.5c-.96,0-1.82-.33-2.6-.98-.78-.65-1.38-1.56-1.81-2.72-.43-1.16-.64-2.46-.64-3.92,0-.97,.1-2.12,.3-3.44l-.1-.1c-.72,.8-1.3,1.44-1.75,1.91-.44,.47-.86,.91-1.25,1.33-1.88,2.15-3.47,4.08-4.78,5.81-.5,.67-.96,1.26-1.38,1.76-.62,.62-1.33,.93-2.11,.93-1.07,0-1.94-.4-2.62-1.21-.67-.8-1-1.84-1-3.12,0-.79,.09-1.75,.28-2.89,.18-1.14,.43-2.36,.74-3.66s.68-2.64,1.11-4.01,.89-2.68,1.4-3.92c.77-2.06,1.71-3.67,2.82-4.83,.75-.75,1.67-1.13,2.74-1.13,1.74,0,2.62,1.13,2.62,3.39,0,1.66-.35,4.04-1.04,7.13l.1,.1Z"/><path d="M331.81,28.34l-.68,.5c-.05,.05-.13,.12-.24,.2-.11,.08-.25,.19-.41,.33-2.9,2.26-5.18,3.86-6.83,4.78-1.65,.92-3.09,1.38-4.31,1.38-1.36,0-2.45-.49-3.28-1.48-.83-.99-1.24-2.31-1.24-3.97,0-2.06,.58-4.19,1.75-6.4s2.7-4.23,4.61-6.07c1.91-1.84,4.01-3.32,6.29-4.44,2.28-1.11,4.48-1.67,6.61-1.67s3.69,.36,4.79,1.08c1.1,.72,1.65,1.8,1.65,3.24,0,1.21-.48,2.7-1.43,4.48,.69,.05,1.19,.26,1.51,.64,.32,.38,.48,.97,.48,1.77,0,1.31-.27,3.13-.8,5.47-.54,2.34-1.19,4.5-1.96,6.47-.94,2.5-2.28,4.67-4.02,6.51-1.32,1.39-2.97,2.58-4.93,3.58-1.96,1-3.65,1.5-5.05,1.5-1.17,0-2.22-.47-3.14-1.41-.92-.94-1.38-2-1.38-3.17,0-.79,.2-1.61,.6-2.45,.4-.85,.92-1.57,1.56-2.17,1.31-1.32,3.23-2.58,5.76-3.77,.47-.23,.83-.35,1.08-.35,.1,0,.19,.04,.28,.13s.13,.18,.13,.28c0,.12-.1,.34-.3,.68-.5,.86-.95,1.95-1.33,3.28-.39,1.33-.58,2.49-.58,3.46,0,1.14,.18,1.71,.53,1.71,.18,0,.42-.21,.69-.62s.52-.88,.74-1.4c1.42-3.62,2.34-6.97,2.73-10.06,.05-.45,.1-1.13,.16-2.04Zm1.28-5.36v.1l-.1-.1c-.1,.03-.23,.05-.4,.05-.32,.03-.72,.05-1.21,.05-.85,0-1.28-.16-1.28-.48,0-.17,.11-.37,.33-.6,.64-.72,1.19-1.67,1.65-2.84,.46-1.17,.72-2.24,.77-3.19,0-.23,.02-.44,.05-.63,.02-.07,.03-.13,.04-.18,0-.05,.01-.09,.01-.13,0-.23-.16-.35-.48-.35-.65,0-1.66,.7-3.02,2.11-.85,.91-1.66,1.98-2.41,3.22-.75,1.24-1.34,2.48-1.76,3.72-.42,1.24-.63,2.36-.63,3.34s.24,1.46,.73,1.46,1.65-.79,3.54-2.36c.86-.74,2.25-1.8,4.17-3.19Z"/><path d="M352.08,28.21c.18,1.01,.84,1.51,1.96,1.51,1.26,0,2.89-.74,4.9-2.21,1.17-.85,1.96-1.28,2.36-1.28,.5,0,.97,.13,1.41,.4,.44,.27,.65,.54,.65,.83,0,.3-.24,.7-.73,1.18-.89,.89-1.91,1.76-3.07,2.6-1.16,.85-2.27,1.55-3.34,2.11-1.07,.56-2.15,1.01-3.22,1.33-1.07,.33-2.03,.49-2.87,.49-2.1,0-3.77-.6-5.03-1.8s-1.89-2.79-1.89-4.79c0-1.52,.33-3.25,.99-5.17,.66-1.92,1.55-3.72,2.68-5.39,1.32-1.96,2.95-3.6,4.88-4.9,2.38-1.58,4.66-2.36,6.84-2.36,1.58,0,2.81,.5,3.71,1.5,.9,1,1.34,2.37,1.34,4.11,0,1.36-.36,2.77-1.07,4.25-.71,1.47-1.76,2.89-3.16,4.25-1.14,1.14-2.26,2.03-3.36,2.67s-2.06,.96-2.88,.96c-.37,0-.75-.09-1.13-.28Zm-.05-.8c.77-.52,1.36-1.04,1.76-1.56,.89-1.09,1.58-2.34,2.06-3.75,.39-.92,.69-1.95,.91-3.09s.33-2.2,.33-3.19c0-.92-.19-1.38-.58-1.38-.54,0-1.36,1.18-2.46,3.55-.65,1.42-1.19,2.84-1.6,4.26-.41,1.42-.62,2.64-.62,3.66,0,.35,.07,.86,.2,1.51Z"/></g></g></g></svg>