<?xml version="1.0" encoding="UTF-8"?><svg xmlns="http://www.w3.org/2000/svg" viewBox="0 0 103.4 44.12"><g id="a"/><g id="b"><g id="c"><g><path d="M11.9,23.36l-.51,1.66c-.08,.37-.22,.86-.41,1.48-.91,3.17-1.66,5.24-2.25,6.23-.12,.2-.33,.5-.65,.88-1.09,.99-2.41,1.48-3.97,1.48-1.24,0-2.24-.27-2.99-.82-.75-.54-1.13-1.24-1.13-2.1,0-.62,.22-1.73,.66-3.33s.92-3.12,1.46-4.56c-1.31-.25-1.97-.81-1.97-1.69,0-.62,.21-1.32,.62-2.1,.41-.78,.92-1.48,1.54-2.1,.62-.62,1.22-1.02,1.81-1.21,.25-.72,.73-2.24,1.44-4.55,1.59-5.01,2.88-8.37,3.87-10.08,.4-.57,.75-1.01,1.03-1.33,.87-.82,1.99-1.23,3.35-1.23,.84,0,1.58,.15,2.23,.44s1.14,.7,1.48,1.21,.52,1.11,.52,1.8c0,.96-1.2,4.97-3.6,12.04-.03,.12-.09,.29-.16,.52s-.15,.43-.21,.62l-.1,.2,9.27-.2,.45-1.58c.52-1.71,1.06-3.4,1.63-5.07,.57-1.67,1.06-3.01,1.47-4.02,.41-1.01,.83-1.91,1.25-2.68,.42-.77,.82-1.35,1.19-1.73,.88-.96,2.08-1.43,3.61-1.43,2.62,0,3.92,1.13,3.92,3.39,0,2.13-1.14,6.01-3.42,11.65-.34,.83-.54,1.34-.61,1.52,.07-.02,.12-.03,.17-.04s.11-.01,.17-.01c.92,0,1.64,.16,2.17,.49s.8,.77,.8,1.32c0,.37-.23,.9-.68,1.59-.45,.69-.93,1.3-1.44,1.83-.51,.53-.95,.9-1.31,1.12-.35,.19-1.03,.38-2.05,.58l-.1,.4c-.12,.25-.29,.71-.53,1.38-.35,.97-.71,1.95-1.08,2.93-.37,.98-.68,1.74-.92,2.29s-.48,1-.72,1.37c-.29,.4-.61,.75-.98,1.03-.81,.62-1.73,1.13-2.77,1.52-1.04,.39-1.91,.59-2.59,.59-.79,0-1.41-.19-1.86-.58-.45-.38-.68-.93-.68-1.63,0-1.21,.63-3.71,1.89-7.52,.3-.84,.5-1.45,.62-1.84l-8.94-.12Z"/><path d="M44.18,27.68c.18,1.01,.84,1.51,1.96,1.51,1.26,0,2.89-.74,4.9-2.21,1.17-.85,1.96-1.28,2.36-1.28,.5,0,.97,.13,1.41,.4,.44,.27,.65,.54,.65,.83,0,.3-.24,.7-.73,1.18-.89,.89-1.91,1.76-3.07,2.6-1.16,.85-2.27,1.55-3.34,2.11-1.07,.56-2.15,1.01-3.22,1.33-1.07,.33-2.03,.49-2.87,.49-2.1,0-3.77-.6-5.03-1.8s-1.89-2.79-1.89-4.79c0-1.52,.33-3.25,.99-5.17,.66-1.92,1.55-3.72,2.68-5.39,1.32-1.96,2.95-3.6,4.88-4.9,2.38-1.58,4.66-2.36,6.84-2.36,1.58,0,2.81,.5,3.71,1.5,.9,1,1.34,2.37,1.34,4.11,0,1.36-.36,2.77-1.07,4.25-.71,1.47-1.76,2.89-3.16,4.25-1.14,1.14-2.26,2.03-3.36,2.67s-2.06,.96-2.88,.96c-.37,0-.75-.09-1.13-.28Zm-.05-.8c.77-.52,1.36-1.04,1.76-1.56,.89-1.09,1.58-2.34,2.06-3.75,.39-.92,.69-1.95,.91-3.09s.33-2.2,.33-3.19c0-.92-.19-1.38-.58-1.38-.54,0-1.36,1.18-2.46,3.55-.65,1.42-1.19,2.84-1.6,4.26-.41,1.42-.62,2.64-.62,3.66,0,.35,.07,.86,.2,1.51Z"/><path d="M71,15.89c.67-1.89,1.23-3.88,1.68-5.95,.45-2.07,.68-3.66,.68-4.76,0-.3-.08-.45-.25-.45-.27,0-.74,.6-1.41,1.8-.67,1.2-1.23,2.42-1.68,3.66-.97,2.73-1.72,5-2.25,6.8s-.89,3.32-1.09,4.54c-.2,1.22-.3,2.47-.3,3.75,0,1.09,.12,1.89,.37,2.39,.24,.5,.63,.75,1.17,.75,.92,0,1.95-.41,3.09-1.22,1.14-.81,2.17-1.88,3.09-3.21,.72-.99,1.28-1.48,1.68-1.48,.52,0,.78,.41,.78,1.23,0,1.79-.56,3.54-1.68,5.25-1.12,1.71-2.57,3.1-4.34,4.16s-3.57,1.6-5.42,1.6c-2.26,0-4.11-.71-5.53-2.14s-2.14-3.29-2.14-5.58c0-1.88,.4-4.08,1.21-6.6,.8-2.52,1.88-5.06,3.23-7.62,1.35-2.56,2.83-4.87,4.44-6.95,1.61-2.08,3.2-3.67,4.78-4.78,.97-.72,2.05-1.08,3.24-1.08,.9,0,1.73,.28,2.46,.84,.74,.56,1.31,1.34,1.71,2.35s.6,2.12,.6,3.34c0,2.63-.52,5.2-1.55,7.72-1.03,2.51-2.47,4.69-4.31,6.54-.87,.89-1.71,1.58-2.51,2.09-.8,.5-1.51,.75-2.11,.75s-.88-.23-.88-.68c0-.25,.22-.73,.65-1.43,.59-.92,1.27-2.31,2.06-4.17,.07-.18,.14-.38,.23-.59,.08-.21,.18-.5,.3-.87Z"/><path d="M88.89,18.22l.78-1.47c.74-1.3,1.42-2.38,2.05-3.25,.63-.87,1.19-1.5,1.68-1.91,.49-.4,1.07-.73,1.74-.99,.55-.22,1.16-.33,1.81-.33,1.28,0,2.41,.38,3.39,1.13,.98,.75,1.74,1.83,2.27,3.24,.53,1.41,.79,3.03,.79,4.85,0,2.63-.59,5.16-1.77,7.58-1.18,2.42-2.73,4.38-4.65,5.87-1.92,1.49-3.9,2.24-5.95,2.24-1.19,0-2.18-.25-2.98-.75-.8-.5-1.53-1.37-2.2-2.59l-.17,.43-.15,.55c-1.09,3.5-1.96,6.08-2.6,7.73-.65,1.65-1.2,2.66-1.67,3.03-.37,.35-.8,.53-1.28,.53-.96,0-1.7-.47-2.24-1.41-.54-.94-.8-2.25-.8-3.95,0-1.84,.2-4.06,.6-6.64s.96-5.21,1.67-7.89c.71-2.68,1.5-5.12,2.37-7.32,.57-1.34,1.19-2.51,1.88-3.52,.68-1,1.34-1.73,1.95-2.19,.45-.27,.94-.4,1.45-.4,.77,0,1.36,.21,1.78,.63,.42,.42,.63,1.02,.63,1.8,0,.66-.07,1.38-.2,2.17-.1,.78-.19,1.67-.28,2.68l.1,.13Zm-1.91,10.72c.47,1.38,1.36,2.06,2.67,2.06,.92,0,1.78-.41,2.58-1.24,.8-.83,1.43-1.95,1.91-3.37,.48-1.42,.72-2.9,.72-4.46,0-1.24-.1-2.31-.29-3.22s-.41-1.36-.64-1.36c-.17,0-.6,.44-1.28,1.33-.69,.89-1.38,1.92-2.06,3.09-1.41,2.28-2.47,4.29-3.19,6.03-.18,.45-.32,.83-.4,1.13Z"/></g></g></g></svg>