<?xml version="1.0" encoding="UTF-8"?><svg xmlns="http://www.w3.org/2000/svg" viewBox="0 0 104.84 35.48"><g id="a"/><g id="b"><g id="c"><g><path d="M7.37,18.58c-1.44-1.46-2.46-2.75-3.04-3.88-.59-1.13-.88-2.34-.88-3.63,0-1.94,.59-3.77,1.77-5.48,1.18-1.71,2.77-3.07,4.75-4.07s4.12-1.51,6.4-1.51c2.58,0,4.57,.54,5.96,1.61,1.39,1.07,2.09,2.59,2.09,4.55,0,.94-.25,1.91-.75,2.92s-1.2,1.94-2.09,2.82c-.6,.6-1.17,1.06-1.68,1.37s-.96,.46-1.31,.46c-.44,0-.65-.33-.65-1.01,0,.02,.03-.24,.1-.78,.1-.79,.15-1.49,.15-2.11,0-.87-.13-1.75-.39-2.63-.26-.88-.6-1.62-1.01-2.21-.41-.59-.8-.89-1.17-.89-.19,0-.39,.14-.63,.43-.45,.47-.8,1.05-1.06,1.75-.25,.7-.38,1.35-.38,1.95,0,.76,.11,1.46,.32,2.1,.21,.65,.59,1.3,1.13,1.97,.54,.67,1.25,1.41,2.14,2.21,1.41,1.27,2.5,2.38,3.26,3.34,.76,.96,1.32,1.91,1.67,2.85,.35,.95,.53,1.97,.53,3.08,0,1.95-.51,3.82-1.53,5.63-1.02,1.81-2.38,3.27-4.06,4.39s-3.42,1.67-5.22,1.67-3.38-.37-5-1.11c-1.63-.74-3.15-1.79-4.58-3.17-1.47-1.46-2.21-2.75-2.21-3.87,0-.69,.33-1.36,.98-2.01,.67-.67,1.5-1.24,2.48-1.71,.98-.47,1.81-.7,2.48-.7,.38,0,.71,.1,.98,.29,.27,.19,.51,.52,.72,.98,.21,.46,.42,1.09,.62,1.87,.32,1.12,.61,1.96,.88,2.5,.27,.54,.65,1.09,1.13,1.62,.5,.5,1.03,.75,1.58,.75,.67,0,1.2-.26,1.58-.79,.38-.53,.58-1.25,.58-2.18,0-1.44-.51-2.88-1.53-4.33-.3-.49-.63-.92-.99-1.3-.36-.38-1.14-1.1-2.35-2.17-.37-.3-.96-.83-1.76-1.58Z"/><path d="M31.1,10.38l.1-.3c1.11-3.12,2.06-5.31,2.87-6.59,.39-.6,.92-1.14,1.61-1.61,1.29-.82,2.51-1.23,3.65-1.23,.67,0,1.18,.15,1.54,.45,.35,.3,.53,.74,.53,1.31,0,.39-.25,1.17-.76,2.36-.86,1.98-1.5,3.83-1.92,5.55,.29,.03,.56,.08,.83,.15,1.01,.15,1.67,.32,1.99,.52,.32,.19,.48,.54,.48,1.04,0,.89-.23,1.71-.68,2.46-.45,.75-1.05,1.31-1.78,1.66-.55,.25-1.45,.42-2.69,.5-.22,.65-.46,1.55-.72,2.69-.15,1.01-.32,2.4-.5,4.17-.1,.65-.15,1.26-.15,1.83,0,2.65,1.28,3.97,3.85,3.97h.23c.3,0,.45,.05,.45,.15,0,.27-.29,.72-.85,1.36-.57,.64-1.2,1.2-1.89,1.68-.74,.5-1.54,.91-2.42,1.21s-1.66,.45-2.37,.45c-1.76,0-3.2-.59-4.29-1.79-1.1-1.19-1.65-2.77-1.65-4.73,0-.84,.15-1.94,.44-3.29,.29-1.36,.75-3.18,1.37-5.46,.1-.4,.21-.83,.33-1.27,.12-.44,.18-.71,.2-.79-.67-.02-1.15-.16-1.43-.43-.29-.27-.43-.7-.43-1.31,0-1.06,.41-2.05,1.22-2.99,.81-.94,1.76-1.52,2.85-1.76Z"/><path d="M61.27,27.38v.1l-.1-.1c-1.56,1.83-2.99,3.32-4.29,4.49s-2.5,2.04-3.6,2.63-2.11,.88-3.03,.88c-1.88,0-3.43-.63-4.65-1.89s-1.83-2.85-1.83-4.78c0-1.19,.3-2.6,.9-4.22,.6-1.62,1.43-3.22,2.49-4.78,1.76-2.55,3.97-4.71,6.64-6.49,2.75-1.83,5.4-2.74,7.95-2.74,2.15,0,3.91,.44,5.29,1.32s2.07,1.99,2.07,3.33c0,.99-.34,2.04-1.03,3.14,.9,0,1.47,.1,1.71,.29,.23,.19,.35,.64,.35,1.35,0-.07-.04,.28-.13,1.03-.1,1.66-.15,3.21-.15,4.65,0,.75,0,1.32,.02,1.71s.05,.83,.1,1.33c.05,.5,.1,.91,.15,1.21,.13,.79,.35,1.57,.65,2.34-1.01,.99-1.97,1.71-2.89,2.17-.92,.46-1.86,.69-2.82,.69-2.58,0-3.87-2.16-3.87-6.49,0-.5,.02-.9,.05-1.18Zm1.51-5.76l-.48,.15c-1.21,.33-2.08,.5-2.61,.5-.65,0-.98-.17-.98-.5,0-.12,.13-.43,.4-.93,.94-1.42,1.41-2.77,1.41-4.02,0-.72-.13-1.38-.38-1.97s-.53-.89-.83-.89c-.27,0-.68,.29-1.23,.85-1.56,1.69-2.79,3.43-3.71,5.21-.91,1.78-1.37,3.36-1.37,4.75,0,.92,.19,1.68,.57,2.29,.38,.6,.85,.91,1.42,.91,.49,0,1.4-.52,2.73-1.56,1.33-1.04,2.83-2.41,4.49-4.12l.68-.55-.1-.1Z"/><path d="M80.98,27.03l-.1,.5c0,.29-.03,.7-.1,1.23-.07,.82-.16,1.49-.28,2.01s-.29,.95-.53,1.29c-.24,.34-.55,.71-.96,1.09-1.22,1.12-2.46,1.68-3.7,1.68-1.01,0-1.75-.37-2.23-1.11s-.72-1.93-.72-3.57c0-1.31,.15-2.92,.44-4.84s.65-3.64,1.07-5.17l.2-.65c0-.1,.05-.31,.15-.63,.62-2.28,1.19-3.97,1.71-5.07,.52-1.1,1.15-1.98,1.89-2.65,.65-.52,1.39-.78,2.21-.78,1.19,0,1.91,.72,2.16,2.16,.23-.2,.46-.44,.68-.7,.49-.59,.86-.98,1.13-1.17,.27-.19,.58-.29,.93-.29,1.44,0,2.16,1.42,2.16,4.27,0,1.56-.17,3.07-.5,4.53-.34,1.46-.76,2.65-1.27,3.57-.51,.92-1.02,1.38-1.52,1.38-.55,0-.83-1.05-.83-3.14,0-1.11-.06-1.97-.19-2.6s-.32-1.12-.59-1.47c-.5,.94-.83,3.08-.98,6.44-.12,1.94-.2,3.17-.25,3.67Z"/><path d="M93.93,10.38l.1-.3c1.11-3.12,2.06-5.31,2.87-6.59,.39-.6,.92-1.14,1.61-1.61,1.29-.82,2.51-1.23,3.65-1.23,.67,0,1.18,.15,1.54,.45,.35,.3,.53,.74,.53,1.31,0,.39-.25,1.17-.76,2.36-.86,1.98-1.5,3.83-1.92,5.55,.29,.03,.56,.08,.83,.15,1.01,.15,1.67,.32,1.99,.52,.32,.19,.48,.54,.48,1.04,0,.89-.23,1.71-.68,2.46-.45,.75-1.05,1.31-1.78,1.66-.55,.25-1.45,.42-2.69,.5-.22,.65-.46,1.55-.72,2.69-.15,1.01-.32,2.4-.5,4.17-.1,.65-.15,1.26-.15,1.83,0,2.65,1.28,3.97,3.85,3.97h.23c.3,0,.45,.05,.45,.15,0,.27-.29,.72-.85,1.36-.57,.64-1.2,1.2-1.89,1.68-.74,.5-1.54,.91-2.42,1.21s-1.66,.45-2.37,.45c-1.76,0-3.2-.59-4.29-1.79-1.1-1.19-1.65-2.77-1.65-4.73,0-.84,.15-1.94,.44-3.29,.29-1.36,.75-3.18,1.37-5.46,.1-.4,.21-.83,.33-1.27,.12-.44,.18-.71,.2-.79-.67-.02-1.15-.16-1.43-.43-.29-.27-.43-.7-.43-1.31,0-1.06,.41-2.05,1.22-2.99,.81-.94,1.76-1.52,2.85-1.76Z"/></g></g></g></svg>